<svg width="128" height="128" viewBox="0 0 128 128" fill="none" xmlns="http://www.w3.org/2000/svg">
<path fill-rule="evenodd" clip-rule="evenodd" d="M32 0C14.3269 0 0 14.3269 0 32V96C0 113.673 14.3269 128 32 128H96C113.673 128 128 113.673 128 96V32C128 14.3269 113.673 0 96 0H32ZM42.14 76.86V74.1C44.9 74.1 46.74 72.26 46.74 69.5C46.74 66.74 44.9 64.9 42.14 64.9V53.86C42.14 50.64 39.38 47.88 35.7 47.88C30.64 47.88 28.386 50.1801 25.58 53.906L17.3 64.9C17.3 64.9 15.46 67.2 15.46 69.5C15.46 72.26 17.3 74.1 20.52 74.1H32.02V76.86C32.02 79.62 33.86 81.46 37.08 81.46C40.3 81.46 42.14 79.62 42.14 76.86ZM32.02 64.9H27.65V64.4399L31.56 59.38H32.02V64.9ZM63.309 55.7C65.379 55.7 67.219 57.54 67.219 60.53V69.27C67.219 72.26 65.379 74.1 63.309 74.1C61.239 74.1 59.399 72.26 59.399 69.27V60.53C59.399 57.54 61.239 55.7 63.309 55.7ZM49.049 60.53V69.27C49.049 76.4 54.569 81.92 63.309 81.92C72.049 81.92 77.569 76.4 77.569 69.27V60.53C77.569 53.4 72.049 47.88 63.309 47.88C54.569 47.88 49.049 53.4 49.049 60.53ZM106.558 76.86V74.1C109.318 74.1 111.158 72.26 111.158 69.5C111.158 66.74 109.318 64.9 106.558 64.9V53.86C106.558 50.64 103.798 47.88 100.118 47.88C95.058 47.88 92.804 50.1801 89.998 53.906L81.718 64.9C81.718 64.9 79.878 67.2 79.878 69.5C79.878 72.26 81.718 74.1 84.938 74.1H96.438V76.86C96.438 79.62 98.278 81.46 101.498 81.46C104.718 81.46 106.558 79.62 106.558 76.86ZM96.438 64.9H92.068V64.4399L95.978 59.38H96.438V64.9Z" fill="#1D1D1D"/>
</svg>
