<svg width="128" height="128" viewBox="0 0 128 128" fill="none" xmlns="http://www.w3.org/2000/svg">
<path fill-rule="evenodd" clip-rule="evenodd" d="M0 32C0 14.3269 14.3269 0 32 0H96C113.673 0 128 14.3269 128 32V96C128 113.673 113.673 128 96 128H32C14.3269 128 0 113.673 0 96V32ZM73.225 55.15V99.35C73.225 104.45 69.825 107.85 63.875 107.85C57.925 107.85 54.525 104.45 54.525 99.35V55.15C54.525 50.05 57.925 46.65 63.875 46.65C69.825 46.65 73.225 50.05 73.225 55.15ZM73 30.4C73 25.6 69.4 22 63.8 22C58.2 22 54.6 25.6 54.6 30.4C54.6 35.2 58.2 38.8 63.8 38.8C69.4 38.8 73 35.2 73 30.4Z" fill="#1D1D1D"/>
</svg>
