<svg width="128" height="128" viewBox="0 0 128 128" fill="none" xmlns="http://www.w3.org/2000/svg">
<path fill-rule="evenodd" clip-rule="evenodd" d="M32 0C14.3269 0 0 14.3269 0 32V96C0 113.673 14.3269 128 32 128H96C113.673 128 128 113.673 128 96V32C128 14.3269 113.673 0 96 0H32ZM96.2614 68.6684C96.7664 69.2255 97.3008 69.815 97.2753 70.544C96.9131 80.9483 70.3342 92.6796 54.1831 86.3418C50.1416 91.5329 44.3258 96.4014 39.4074 98.2887L37.8794 101H30.7247V67.8311C33.3775 63.3351 38.2475 60.3084 43.8492 60.3084C49.2515 60.3084 53.988 63.1224 56.7009 67.356C59.8728 65.0171 64.3615 63.5536 69.3561 63.5536C70.519 63.5536 71.6452 63.6328 72.7392 63.7823C70.3468 59.65 68.4807 54.2283 66.8916 49.6114C65.6053 45.8741 64.5005 42.6642 63.445 41.0924C62.2259 39.2796 59.6709 39.8624 56.9701 40.4784C54.434 41.0569 51.7693 41.6647 49.9612 40.346C46.0474 37.5041 48.0681 29.1983 51.7063 27.6981C55.3415 26.198 60.8333 27.1218 65.7517 30.4007C67.4563 31.5376 67.7567 32.5172 68.179 33.8938C68.1995 33.9608 68.2204 34.0287 68.2416 34.0976C68.4323 34.1401 68.639 34.1914 68.8707 34.2823C73.468 36.0978 85.5718 47.8673 90.1456 55.1671C92.9978 59.7233 94.9628 64.3146 95.9541 68.3224C96.0517 68.4369 96.1559 68.5519 96.2614 68.6684Z" fill="#008F12"/>
</svg>
