<svg width="128" height="128" viewBox="0 0 128 128" fill="none" xmlns="http://www.w3.org/2000/svg">
<path fill-rule="evenodd" clip-rule="evenodd" d="M32 0C14.3269 0 0 14.3269 0 32V96C0 113.673 14.3269 128 32 128H96C113.673 128 128 113.673 128 96V32C128 14.3269 113.673 0 96 0H32ZM97.0846 32.267C92.0625 27.2449 82.9351 25.0895 73.2006 26.3545C63.2206 27.6512 51.897 32.5789 41.738 42.7379C31.5789 52.8971 26.6513 64.2207 25.3544 74.2006C24.0895 83.9351 26.2448 93.0625 31.267 98.0846C34.6125 101.43 38.5051 103.078 42.7728 102.997C46.8405 102.919 50.7874 101.278 54.4688 99.0247C59.829 95.7437 65.5157 90.5834 71.3441 84.8881L74.2692 82.002L81.1062 75.1643L84.1926 72.032C89.7671 66.3127 94.8022 60.7333 98.0247 55.4688C100.278 51.7874 101.919 47.8405 101.997 43.7728C102.078 39.505 100.43 35.6125 97.0846 32.267ZM34.0865 73.161C34.671 70.0861 35.6865 66.8265 37.2255 63.4989C38.3726 66.0535 40.2562 67.7014 43.0758 68.6411C45.2925 69.3799 46.4907 71.7759 45.7518 73.9928C45.0129 76.2095 42.6168 77.4076 40.4 76.6689C37.9733 75.86 35.8613 74.6829 34.0865 73.161ZM47.7211 48.7212C48.4482 47.994 49.1804 47.2992 49.9162 46.6359C50.5862 47.6403 51.4893 48.7495 52.5828 49.8431C54.5985 51.8588 56.6678 53.2271 58.0344 53.6825L58.4935 53.8656C60.4123 54.7628 61.3964 56.9757 60.7104 59.0344C59.9713 61.251 57.5753 62.4492 55.3586 61.7101C52.2374 60.6697 49.0713 58.2986 46.5994 55.8265C45.689 54.9161 44.7922 53.9116 43.9706 52.8497C45.1116 51.4617 46.3595 50.0828 47.7211 48.7212ZM60.551 39.1831C63.293 37.754 66.0042 36.6876 68.621 35.9333C69.7185 37.2002 71.1575 38.1121 72.9929 38.7239C75.2098 39.4628 76.4077 41.8588 75.6689 44.0756C74.9302 46.2924 72.5342 47.4905 70.3172 46.7516C66.0457 45.3278 62.7498 42.7644 60.551 39.1831Z" fill="#1D1D1D"/>
</svg>
