<svg width="128" height="128" viewBox="0 0 128 128" fill="none" xmlns="http://www.w3.org/2000/svg">
<path fill-rule="evenodd" clip-rule="evenodd" d="M32 0C14.3269 0 0 14.3269 0 32V96C0 113.673 14.3269 128 32 128H96C113.673 128 128 113.673 128 96V32C128 14.3269 113.673 0 96 0H32ZM21 35H23.4444C24.549 35 25.4444 35.8954 25.4444 37V91C25.4444 92.1046 24.549 93 23.4444 93H21C19.8954 93 19 92.1046 19 91V37C19 35.8954 19.8954 35 21 35ZM94.3333 35H91.8889C90.7843 35 89.8889 35.8954 89.8889 37V91C89.8889 92.1046 90.7843 93 91.8889 93H94.3333C95.4379 93 96.3333 92.1046 96.3333 91V37C96.3333 35.8954 95.4379 35 94.3333 35ZM107.222 35H104.778C103.673 35 102.778 35.8954 102.778 37V91C102.778 92.1046 103.673 93 104.778 93H107.222C108.327 93 109.222 92.1046 109.222 91V37C109.222 35.8954 108.327 35 107.222 35ZM81.4444 35H72.5556C71.451 35 70.5556 35.8954 70.5556 37V91C70.5556 92.1046 71.451 93 72.5556 93H81.4444C82.549 93 83.4444 92.1046 83.4444 91V37C83.4444 35.8954 82.549 35 81.4444 35ZM33.8889 35H49.2222C50.3268 35 51.2222 35.8954 51.2222 37V91C51.2222 92.1046 50.3268 93 49.2222 93H33.8889C32.7843 93 31.8889 92.1046 31.8889 91V37C31.8889 35.8954 32.7843 35 33.8889 35ZM62.1111 35H59.6667C58.5621 35 57.6667 35.8954 57.6667 37V91C57.6667 92.1046 58.5621 93 59.6667 93H62.1111C63.2157 93 64.1111 92.1046 64.1111 91V37C64.1111 35.8954 63.2157 35 62.1111 35Z" fill="#1D1D1D"/>
</svg>
