<svg width="128" height="128" viewBox="0 0 128 128" fill="none" xmlns="http://www.w3.org/2000/svg">
<path fill-rule="evenodd" clip-rule="evenodd" d="M32 0C14.3269 0 0 14.3269 0 32V96C0 113.673 14.3269 128 32 128H96C113.673 128 128 113.673 128 96V32C128 14.3269 113.673 0 96 0H32ZM49.5987 64.255C48.1942 61.12 47.3704 57.66 47.3704 54C47.3704 40.19 58.4775 29 72.1852 29C85.8929 29 97 40.19 97 54C97 67.81 85.8929 79 72.1852 79H59.7778V89H49.8519V99H39.9259C34.4468 99 30 91.5 30 91.5V84L49.5987 64.255ZM62.2593 54C62.2593 59.52 66.7061 64 72.1852 64C77.6693 64 82.1111 59.52 82.1111 54C82.1111 48.47 77.6693 43.99 72.1852 43.99C66.7061 43.99 62.2593 48.475 62.2593 54Z" fill="#008F12"/>
</svg>
