<svg width="128" height="128" viewBox="0 0 128 128" fill="none" xmlns="http://www.w3.org/2000/svg">
<path fill-rule="evenodd" clip-rule="evenodd" d="M32 0C14.3269 0 0 14.3269 0 32V96C0 113.673 14.3269 128 32 128H96C113.673 128 128 113.673 128 96V32C128 14.3269 113.673 0 96 0H32ZM62.725 73.7034C63.1273 73.8961 63.568 73.9974 64.015 74C64.4519 73.993 64.8819 73.8918 65.275 73.7034L110.276 52.6763C110.792 52.4368 111.227 52.0572 111.533 51.5819C111.838 51.1066 112 50.5553 112 49.9923C112 49.4293 111.838 48.878 111.533 48.4027C111.227 47.9274 110.792 47.5478 110.276 47.3083L65.275 26.2812C64.8761 26.096 64.4408 26 64 26C63.5593 26 63.1239 26.096 62.725 26.2812L17.7238 47.3083C17.2084 47.5478 16.7726 47.9274 16.4674 48.4027C16.1621 48.878 16 49.4293 16 49.9923C16 50.5553 16.1621 51.1066 16.4674 51.5819C16.7726 52.0572 17.2084 52.4368 17.7238 52.6763L62.725 73.7034ZM62.7277 87.6979C63.1296 87.8908 63.5699 87.9923 64.0164 87.995C64.4561 88.0204 64.8961 87.9494 65.3051 87.787L110.259 66.7222C110.619 66.5545 110.942 66.318 111.21 66.0264C111.478 65.7348 111.685 65.3937 111.82 65.0226C111.955 64.6516 112.015 64.2578 111.997 63.8638C111.978 63.4697 111.882 63.0832 111.712 62.7262C111.543 62.3692 111.305 62.0487 111.01 61.7831C110.716 61.5175 110.372 61.3119 109.998 61.1781C109.624 61.0443 109.226 60.9849 108.829 61.0033C108.431 61.0216 108.042 61.1175 107.681 61.2852L64.0164 81.7558L20.3214 61.3447C19.9641 61.1702 19.5753 61.068 19.1777 61.0442C18.7802 61.0204 18.3818 61.0753 18.006 61.2059C17.6301 61.3364 17.2842 61.54 16.9886 61.8046C16.693 62.0692 16.4535 62.3895 16.2842 62.7469C16.1149 63.1043 16.0192 63.4916 16.0026 63.8861C15.986 64.2806 16.0489 64.6744 16.1876 65.0445C16.3263 65.4146 16.538 65.7536 16.8104 66.0417C17.0828 66.3298 17.4104 66.5611 17.774 66.7222L62.7277 87.6979ZM63.9642 101.995C63.5172 101.992 63.0765 101.887 62.6742 101.687L17.6742 79.8443C16.9692 79.4876 16.4286 78.8611 16.1687 78.0994C15.9089 77.3377 15.9504 76.5017 16.2845 75.7712C16.6186 75.0407 17.2185 74.4739 17.9552 74.1929C18.692 73.9118 19.5067 73.9388 20.2242 74.2682L63.9642 95.6177L107.674 74.3914C108.032 74.2105 108.421 74.1045 108.819 74.0798C109.217 74.0551 109.616 74.1121 109.992 74.2475C110.368 74.3829 110.714 74.5939 111.01 74.8683C111.306 75.1427 111.546 75.4748 111.715 75.8454C111.885 76.216 111.981 76.6176 111.997 77.0266C112.014 77.4357 111.951 77.8441 111.812 78.2278C111.673 78.6116 111.461 78.9632 111.189 79.2619C110.916 79.5606 110.588 79.8005 110.224 79.9675L65.2542 101.779C64.8449 101.948 64.4044 102.021 63.9642 101.995Z" fill="#1D1D1D"/>
</svg>
