<svg width="128" height="128" viewBox="0 0 128 128" fill="none" xmlns="http://www.w3.org/2000/svg">
<path d="M28.4859 0.179965C17.7567 1.40612 8.12784 8.11244 3.501 17.5463C2.12545 20.349 1.42518 22.3509 0.649869 25.729C0.124661 28.0312 0.124661 28.4066 0.0246213 62.0883C-0.0504084 96.5458 -0.000388586 99.4235 0.849949 103.102C3.0008 112.361 9.32831 120.443 17.6066 124.497C20.4077 125.873 22.4085 126.574 25.7848 127.35C28.0858 127.875 28.4609 127.875 62.1243 127.975C96.5629 128.05 99.4391 128 103.116 127.15C112.369 124.998 120.447 118.667 124.499 110.384C125.875 107.581 126.575 105.579 127.35 102.201C127.875 99.8989 127.875 99.5236 127.975 65.8418C128.05 31.3844 128 28.5067 127.15 24.8282C124.999 15.5695 118.672 7.48685 110.393 3.43303C107.592 2.05673 105.592 1.35607 102.215 0.580343C99.9143 0.0548476 99.6391 0.0548476 65.1254 0.00480041C45.9929 -0.0202232 29.5113 0.0548476 28.4859 0.179965ZM62.1243 28.7569C65.0504 29.7328 67.0762 31.009 69.6522 33.5614C71.603 35.4882 72.1032 36.1639 73.1036 38.1908C74.7042 41.4689 75.1044 43.1955 75.1044 46.6988C75.1044 50.2021 74.7042 51.9287 73.0786 55.2068C72.0782 57.2337 71.578 57.9344 69.5272 59.9613C66.7511 62.7139 64.3501 64.1152 60.7737 64.991C57.6225 65.7918 53.4458 65.5916 50.4196 64.5406C47.3184 63.4396 45.6927 62.4136 43.0917 59.8362C41.1659 57.9094 40.6407 57.2087 39.6403 55.2068C38.0397 51.9287 37.6395 50.2021 37.6395 46.6988C37.6395 43.2205 38.0397 41.4689 39.6153 38.2909C41.9663 33.4863 46.418 29.8829 51.7701 28.4316C54.4962 27.6809 59.3482 27.856 62.1243 28.7569ZM81.1318 30.3084C86.5339 31.6846 91.2608 36.339 92.6114 41.594C93.1366 43.5708 93.1366 47.6247 92.6364 49.5515C92.0611 51.7786 90.3855 54.7814 88.7848 56.433C86.1838 59.1355 83.1076 60.712 79.3311 61.2375C77.6054 61.4877 74.2541 61.3126 74.2541 60.9622C74.2541 60.8621 74.7543 60.0113 75.3795 59.0855C79.5062 52.7795 80.1564 44.2215 77.0302 37.315C76.1548 35.4132 74.8793 33.4363 73.4788 31.8348C72.3783 30.5836 72.3783 30.5836 74.104 30.1832C75.5046 29.8329 79.5812 29.908 81.1318 30.3084ZM92.1362 67.0179C99.4891 69.4953 104.516 76.3267 104.516 83.7837C104.516 86.4863 102.94 89.0637 100.439 90.415C99.7892 90.7903 99.0139 90.8654 96.1378 90.8654H92.6364L92.4613 89.2889C91.5609 81.1563 85.8837 73.3989 78.1806 69.8456C75.0544 68.3942 70.7777 67.4934 67.0012 67.4684L65.6256 67.4433L66.7511 66.8428L67.8765 66.2172L79.006 66.2923L90.1354 66.3423L92.1362 67.0179ZM73.6288 72.1978C80.7817 74.6001 85.8087 79.6548 88.0095 86.6114C88.3847 87.8125 88.6098 89.2639 88.6848 91.2408C88.8098 93.8182 88.7598 94.2686 88.2346 95.6199C87.4843 97.6468 85.4335 99.7237 83.4327 100.474L81.9821 101L56.0468 100.95L30.1116 100.875L28.8611 100.249C27.0103 99.3484 25.1846 97.3966 24.4843 95.6199C23.9841 94.2936 23.9341 93.7932 24.0592 91.2408C24.2092 87.8626 24.7594 85.8607 26.3851 82.7578C28.4859 78.779 31.6122 75.6761 35.4637 73.7493C39.9655 71.4972 39.8654 71.4972 56.9972 71.5472L71.8781 71.5973L73.6288 72.1978Z" fill="#1D1D1D"/>
</svg>
