<svg width="128" height="128" viewBox="0 0 128 128" fill="none" xmlns="http://www.w3.org/2000/svg">
<path fill-rule="evenodd" clip-rule="evenodd" d="M32 0C14.3269 0 0 14.3269 0 32V96C0 113.673 14.3269 128 32 128H96C113.673 128 128 113.673 128 96V32C128 14.3269 113.673 0 96 0H32ZM31.1632 35.173C29.1378 37.2047 28 39.9602 28 42.8334V86.1666C28 89.0398 29.1378 91.7953 31.1632 93.827C33.1886 95.8586 35.9357 97 38.8 97H89.2C92.0643 97 94.8114 95.8586 96.8368 93.827C98.8622 91.7953 100 89.0398 100 86.1666V42.8334C100 39.9602 98.8622 37.2047 96.8368 35.173C94.8114 33.1414 92.0643 32 89.2 32H38.8C35.9357 32 33.1886 33.1414 31.1632 35.173ZM43.4544 47.5021C44.1295 46.825 45.0452 46.4445 46 46.4445H60.4C61.3548 46.4445 62.2704 46.825 62.9456 47.5021C63.6207 48.1793 64 49.0978 64 50.0555V64.5C64 65.4578 63.6207 66.3762 62.9456 67.0535C62.2704 67.7307 61.3548 68.1111 60.4 68.1111H46C45.0452 68.1111 44.1295 67.7307 43.4544 67.0535C42.7793 66.3762 42.4 65.4578 42.4 64.5V50.0555C42.4 49.0978 42.7793 48.1793 43.4544 47.5021ZM49.6 53.6666V60.8889H56.8V53.6666H49.6ZM72.2544 47.5021C72.9295 46.825 73.8452 46.4445 74.8 46.4445H82C82.9548 46.4445 83.8705 46.825 84.5456 47.5021C85.2207 48.1793 85.6 49.0978 85.6 50.0555C85.6 51.0133 85.2207 51.9318 84.5456 52.609C83.8705 53.2863 82.9548 53.6666 82 53.6666H74.8C73.8452 53.6666 72.9295 53.2863 72.2544 52.609C71.5793 51.9318 71.2 51.0133 71.2 50.0555C71.2 49.0978 71.5793 48.1793 72.2544 47.5021ZM72.2544 61.9465C72.9295 61.2693 73.8452 60.8889 74.8 60.8889H82C82.9548 60.8889 83.8705 61.2693 84.5456 61.9465C85.2207 62.6238 85.6 63.5422 85.6 64.5C85.6 65.4578 85.2207 66.3762 84.5456 67.0535C83.8705 67.7307 82.9548 68.1111 82 68.1111H74.8C73.8452 68.1111 72.9295 67.7307 72.2544 67.0535C71.5793 66.3762 71.2 65.4578 71.2 64.5C71.2 63.5422 71.5793 62.6238 72.2544 61.9465ZM43.4544 76.391C44.1295 75.7137 45.0452 75.3334 46 75.3334H82C82.9548 75.3334 83.8705 75.7137 84.5456 76.391C85.2207 77.0682 85.6 77.9867 85.6 78.9445C85.6 79.9022 85.2207 80.8207 84.5456 81.4979C83.8705 82.175 82.9548 82.5555 82 82.5555H46C45.0452 82.5555 44.1295 82.175 43.4544 81.4979C42.7793 80.8207 42.4 79.9022 42.4 78.9445C42.4 77.9867 42.7793 77.0682 43.4544 76.391Z" fill="#1D1D1D"/>
</svg>
