<svg width="128" height="128" viewBox="0 0 128 128" fill="none" xmlns="http://www.w3.org/2000/svg">
<path d="M27.9208 72.7739L65.6299 113.934C68.6774 117.531 68.2358 122.921 64.6435 125.972C61.0512 129.023 55.6685 128.581 52.621 124.984L2.47499 70.249C1.75391 69.5235 1.16959 68.6737 0.750167 67.7403C0.228588 66.5801 -0.0269666 65.3177 0.0022508 64.0457L0.00237593 64.0378C0.031411 62.7686 0.341933 61.5218 0.911462 60.3875C0.966844 60.2777 1.02459 60.1691 1.08465 60.0618C1.4322 59.4391 1.85692 58.8629 2.34873 58.3469L53.828 2.7349C57.0304 -0.724558 62.4273 -0.929537 65.8822 2.27683C69.3371 5.4832 69.5419 10.8871 66.3397 14.3464L28.0661 55.6926H119.47C124.181 55.6926 128 59.5164 128 64.2333C128 68.9502 124.181 72.774 119.47 72.774H27.9208V72.7739Z" fill="#008F12"/>
</svg>
