<svg width="92" height="128" viewBox="0 0 92 128" fill="none" xmlns="http://www.w3.org/2000/svg">
<path d="M87.8374 86.0323L57.2931 36.5699L79.8763 0H12.1215L34.7043 36.5699L4.15996 86.0323C0.753823 91.549 -0.438098 97.5599 0.139545 103.265C1.476 116.452 12.2816 128 27.1407 128H27.1427H64.8556H66.1369L66.1725 127.966C86.6705 127.012 98.8843 103.921 87.8374 86.0323ZM44.1754 116.796C36.782 116.275 31.0733 109.503 33.1319 101.357C39.3555 103.725 44.4559 107.324 44.1754 116.796ZM44.1754 102.21C36.782 101.641 31.0733 94.8688 33.1319 86.7703C39.3555 89.1378 44.4559 92.7375 44.1754 102.21ZM44.1754 87.5754C36.782 87.007 31.0733 80.2819 33.1319 72.1361C39.3555 74.5036 44.4559 78.1034 44.1754 87.5754ZM45.5791 74.4564C39.0278 70.9989 36.4543 62.4742 41.4613 55.8441C46.234 60.5323 49.5564 65.8367 45.5791 74.4564ZM47.8249 113.007C47.5444 103.535 52.6448 99.936 58.8684 97.568C60.9275 105.714 55.2184 112.439 47.8249 113.007ZM47.8249 98.3731C47.5444 88.9011 52.6448 85.3018 58.8684 82.9338C60.9275 91.0796 55.2184 97.8047 47.8249 98.3731ZM47.8249 83.7389C47.5444 74.2669 52.6448 70.6677 58.8684 68.2997C60.9275 76.4455 55.2184 83.2178 47.8249 83.7389Z" fill="#008F12"/>
</svg>
