<svg width="128" height="128" viewBox="0 0 128 128" fill="none" xmlns="http://www.w3.org/2000/svg">
<path fill-rule="evenodd" clip-rule="evenodd" d="M40.645 102.39L10.398 126.586C6.20756 129.938 0 126.955 0 121.589V19.1982C0 8.59533 8.59613 0 19.2 0H108.8C119.404 0 128 8.59533 128 19.1982V83.1922C128 93.7951 119.404 102.39 108.8 102.39H40.645ZM12.8 108.274L34.402 90.9939C35.5368 90.0862 36.9467 89.5916 38.4 89.5916H108.8C112.335 89.5916 115.2 86.7265 115.2 83.1922V19.1982C115.2 15.6639 112.335 12.7988 108.8 12.7988H19.2C15.6654 12.7988 12.8 15.6639 12.8 19.1982V108.274Z" fill="#1D1D1D"/>
</svg>
