<svg width="127" height="128" viewBox="0 0 127 128" fill="none" xmlns="http://www.w3.org/2000/svg">
<path d="M115.103 73.9556L95.9191 99.5556H82.4194L60.3935 54.7556L95.9191 36.2667C97.3401 35.5556 98.7612 34.1333 99.4717 32C99.4717 30.5778 99.4717 28.4444 98.7612 26.3111C98.0507 25.6 97.3402 24.1778 97.3402 23.4667C86.6825 9.24445 70.3407 0 53.2884 0C46.8938 0 41.2097 0.711112 35.5256 2.84445C31.973 4.26667 29.8415 5.68889 26.9995 7.11111C26.2889 7.11111 26.2889 7.82222 25.5784 7.82222C21.3154 10.6667 17.0523 14.2222 13.4997 17.7778C4.97358 27.7333 0 40.5333 0 54.0444C0 61.1556 1.42102 68.2667 4.26307 74.6667C4.97358 76.8 6.39461 78.2222 8.52614 78.9333C9.23665 78.9333 9.94717 79.6444 10.6577 79.6444C12.0787 79.6444 12.7892 79.6444 14.2102 78.9333L48.3148 61.8667L67.4986 100.267H21.3154C17.0523 100.267 14.2102 103.111 14.2102 107.378C14.2102 109.511 15.6313 111.644 17.7628 113.067L14.9208 118.756C13.4997 122.311 14.9208 126.578 18.4733 128C19.1838 128 20.6048 128 21.3154 128C24.1574 128 26.2889 126.578 27.71 123.733L32.6836 113.778H88.1035L93.0771 123.733C94.4981 126.578 96.6296 128 99.4717 128C100.182 128 101.603 128 102.314 127.289C105.866 125.867 107.287 121.6 105.156 118.044L102.314 113.067C103.024 112.356 103.735 112.356 104.445 111.644L125.761 83.2C127.892 80.3556 127.182 75.3778 124.34 73.2444C122.208 70.4 117.234 71.1111 115.103 73.9556ZM14.9208 61.8667C14.2102 59.7333 14.2102 56.8889 14.2102 54.0444C14.2102 47.6444 15.6313 41.2444 18.4733 36.2667C19.1838 42.6667 20.6048 49.7778 24.8679 56.8889L14.9208 61.8667ZM81.7089 27.7333L73.1827 32C69.6302 24.1778 63.9461 18.4889 57.5515 14.2222C66.7881 15.6444 75.3143 19.9111 81.7089 27.7333ZM36.9466 50.4889C30.552 39.1111 32.6836 27.0222 34.8151 21.3333C41.9202 22.7556 55.4199 26.3111 61.104 38.4L36.9466 50.4889Z" fill="#008F12"/>
</svg>
