<svg width="116" height="128" viewBox="0 0 116 128" fill="none" xmlns="http://www.w3.org/2000/svg">
<path d="M107.705 63.3955L62.314 108.785C59.3897 111.709 56.033 113.888 52.443 115.344C47.0607 117.526 41.1517 118.076 35.5042 116.981C29.8549 115.887 24.4907 113.169 20.1049 108.785C17.1824 105.863 15.0059 102.506 13.5482 98.9143C11.3659 93.532 10.8159 87.623 11.9107 81.9772C13.0072 76.328 15.7232 70.9635 20.1052 66.5782L70.8877 15.7958C72.6729 14.0123 74.7124 12.6883 76.8964 11.8035C80.1714 10.474 83.7754 10.1395 87.2122 10.805C90.6544 11.4743 93.9117 13.1225 96.5867 15.7958C98.3699 17.5793 99.6924 19.6188 100.579 21.8045C101.908 25.0775 102.243 28.68 101.575 32.1205C100.908 35.561 99.2599 38.8162 96.5867 41.495L47.3152 90.766C46.6817 91.398 45.9714 91.857 45.2062 92.1685C44.0634 92.6313 42.791 92.7523 41.5825 92.5175C40.3705 92.279 39.2437 91.7112 38.2949 90.766C37.6614 90.1325 37.2039 89.424 36.8942 88.6588C36.4279 87.516 36.3087 86.2418 36.5437 85.035C36.7805 83.8248 37.3499 82.6962 38.2949 81.7477L82.1752 37.8657L74.7712 30.4615L30.8892 74.3415C29.2552 75.9755 28.0129 77.887 27.1889 79.9197C25.9537 82.9685 25.6474 86.288 26.2634 89.4703C26.8757 92.6528 28.435 95.7175 30.8892 98.17C32.525 99.8075 34.4347 101.05 36.4655 101.872C39.516 103.109 42.8337 103.414 46.018 102.798C49.1985 102.186 52.2652 100.628 54.7195 98.17L103.992 48.9005C106.778 46.1133 108.885 42.8722 110.284 39.4212C112.383 34.242 112.904 28.5927 111.858 23.1785C110.813 17.7677 108.175 12.5705 103.993 8.38975C101.205 5.60425 97.9642 3.497 94.5132 2.09825C89.3339 -0.00199938 83.6847 -0.521749 78.2704 0.523001C72.8597 1.5695 67.6627 4.20725 63.4817 8.39L12.7007 59.1738C8.77245 63.0965 5.8127 67.6565 3.8442 72.5117C0.889949 79.8002 0.152949 87.7543 1.62845 95.3773C3.10045 102.997 6.8077 110.301 12.7009 116.191C16.6254 120.119 21.1837 123.079 26.0409 125.047C33.3274 128 41.2835 128.737 48.9047 127.263C56.5242 125.789 63.8287 122.084 69.7182 116.19L115.11 70.7995L107.705 63.3955Z" fill="black"/>
</svg>
