<svg width="128" height="128" viewBox="0 0 128 128" fill="None" xmlns="http://www.w3.org/2000/svg">
<path d="M64.0065 128C51.3482 128.001 38.9738 124.249 28.4482 117.217C17.9226 110.186 9.71858 100.191 4.87359 88.4962C0.0285922 76.8019 -1.23974 63.9334 1.22899 51.5182C3.69771 39.103 9.79261 27.6987 18.7429 18.7475C27.6932 9.79627 39.0969 3.70022 51.5119 1.23024C63.9268 -1.23973 76.7954 0.0273031 88.4903 4.87112C100.185 9.71494 110.181 17.918 117.214 28.4429C124.246 38.9677 128 51.3417 128 64C127.981 80.967 121.233 97.2338 109.236 109.232C97.2395 121.23 80.9734 127.98 64.0065 128ZM64.0065 6.44255C52.6224 6.44127 41.4936 9.81587 32.0275 16.1396C22.5614 22.4633 15.1831 31.4521 10.8257 41.9693C6.46832 52.4864 5.32757 64.0595 7.54771 75.225C9.76785 86.3905 15.2492 96.6468 23.2985 104.697C31.3478 112.747 41.6035 118.23 52.7687 120.451C63.934 122.672 75.5072 121.533 86.0248 117.177C96.5424 112.821 105.532 105.443 111.857 95.9779C118.182 86.5125 121.557 75.3841 121.557 64C121.54 48.7412 115.472 34.1121 104.683 23.3218C93.8937 12.5316 79.2653 6.4613 64.0065 6.44255Z" fill="#1D1D1D"/>
<path d="M44.6789 52.7771C42.4432 52.7761 40.277 52 38.5494 50.5809C36.8218 49.1618 35.6397 47.1876 35.2044 44.9947C34.7692 42.8018 35.1078 40.5257 36.1625 38.5545C37.2172 36.5832 38.9228 35.0385 40.9886 34.1838C43.0545 33.329 45.3528 33.217 47.492 33.8667C49.6312 34.5165 51.4789 35.8879 52.7204 37.7473C53.9618 39.6067 54.5201 41.839 54.3003 44.0638C54.0804 46.2887 53.0959 48.3685 51.5145 49.9489C50.6167 50.8461 49.5509 51.5577 48.378 52.043C47.2052 52.5282 45.9482 52.7777 44.6789 52.7771ZM44.6789 39.8921C43.9335 39.8919 43.211 40.1503 42.6348 40.6232C42.0585 41.0961 41.6641 41.7543 41.5188 42.4854C41.3735 43.2166 41.4863 43.9755 41.8379 44.6328C42.1895 45.2901 42.7582 45.8052 43.4471 46.0901C44.136 46.375 44.9023 46.4122 45.6155 46.1953C46.3287 45.9784 46.9446 45.5208 47.3582 44.9006C47.7718 44.2804 47.9575 43.536 47.8837 42.7942C47.8098 42.0524 47.4809 41.3592 46.9532 40.8327C46.3484 40.2329 45.5307 39.8906 44.6789 39.8921Z" fill="#1D1D1D"/>
<path d="M36.6776 94.5569C36.0388 94.5619 35.4129 94.3768 34.8795 94.0252C34.3462 93.6736 33.9294 93.1714 33.6821 92.5823C33.4349 91.9933 33.3684 91.344 33.4911 90.7171C33.6138 90.0901 33.9201 89.5138 34.3712 89.0614L89.0617 34.3644C89.6693 33.7777 90.483 33.453 91.3276 33.4603C92.1722 33.4677 92.9801 33.8064 93.5773 34.4037C94.1746 35.0009 94.5134 35.8089 94.5207 36.6535C94.5281 37.4981 94.2034 38.3118 93.6166 38.9193L38.9518 93.6356C38.345 94.2307 37.5275 94.5618 36.6776 94.5569Z" fill="#1D1D1D"/>
<path d="M83.3341 94.5504C81.0983 94.5479 78.9325 93.7702 77.2058 92.3499C75.4791 90.9295 74.2983 88.9544 73.8647 86.761C73.431 84.5676 73.7713 82.2918 74.8276 80.3212C75.8839 78.3506 77.5908 76.8072 79.6574 75.9541C81.7241 75.1009 84.0226 74.9908 86.1614 75.6424C88.3001 76.294 90.1468 77.6671 91.3867 79.5276C92.6265 81.3882 93.1829 83.6211 92.961 85.8458C92.7391 88.0706 91.7526 90.1496 90.1696 91.7286C89.2728 92.6267 88.2071 93.3384 87.0339 93.8227C85.8607 94.307 84.6033 94.5543 83.3341 94.5504ZM83.3341 81.6654C82.9104 81.6655 82.4908 81.7492 82.0994 81.9117C81.7081 82.0742 81.3526 82.3123 81.0535 82.6124C80.4529 83.2146 80.1147 84.0298 80.1129 84.8802C80.1129 85.7345 80.4522 86.5539 81.0563 87.158C81.6605 87.7621 82.4798 88.1015 83.3341 88.1015C84.1885 88.1015 85.0078 87.7621 85.6119 87.158C86.216 86.5539 86.5554 85.7345 86.5554 84.8802C86.5554 84.0259 86.216 83.2065 85.6119 82.6024C85.0078 81.9983 84.1885 81.6654 83.3341 81.6654Z" fill="#1D1D1D"/>
</svg>
