<svg width="128" height="122" viewBox="0 0 128 122" fill="#1D1D1D" xmlns="http://www.w3.org/2000/svg">
<path d="M107.789 0H33.6842C22.5415 0 13.4737 9.06779 13.4737 20.2105V26.9474H6.73684C3.01137 26.9474 0 29.9655 0 33.6842C0 37.4029 3.01137 40.4211 6.73684 40.4211H13.4737V53.8947H6.73684C3.01137 53.8947 0 56.9128 0 60.6316C0 64.3503 3.01137 67.3684 6.73684 67.3684H13.4737V80.8421H6.73684C3.01137 80.8421 0 83.8602 0 87.5789C0 91.2977 3.01137 94.3158 6.73684 94.3158H13.4737V101.053C13.4737 112.195 22.5415 121.263 33.6842 121.263H107.789C118.932 121.263 128 112.195 128 101.053V20.2105C128 9.06779 118.932 0 107.789 0ZM26.9474 20.2105C26.9474 16.4985 29.9722 13.4737 33.6842 13.4737V26.9474H26.9474V20.2105ZM26.9474 40.4211H33.6842V53.8947H26.9474V40.4211ZM26.9474 67.3684H33.6842V80.8421H26.9474V67.3684ZM26.9474 101.053V94.3158H33.6842V107.789C29.9722 107.789 26.9474 104.765 26.9474 101.053ZM114.526 101.053C114.526 104.765 111.501 107.789 107.789 107.789H40.4211V13.4737H107.789C111.501 13.4737 114.526 16.4985 114.526 20.2105V101.053Z" fill="1D1D1D"/>
<path d="M74.105 64C81.5463 64 87.5787 57.9676 87.5787 50.5263C87.5787 43.085 81.5463 37.0526 74.105 37.0526C66.6637 37.0526 60.6313 43.085 60.6313 50.5263C60.6313 57.9676 66.6637 64 74.105 64Z" fill="#1D1D1D"/>
<path d="M74.1053 69.7667C63.5823 69.7667 57.2632 74.5836 57.2632 79.3937C57.2632 81.7987 63.5823 84.2105 74.1053 84.2105C83.9815 84.2105 90.9474 81.8055 90.9474 79.3937C90.9474 74.5836 84.3453 69.7667 74.1053 69.7667Z" fill="#1D1D1D"/>
</svg>
