<svg width="128" height="128" viewBox="0 0 128 128" fill="none" xmlns="http://www.w3.org/2000/svg">
<path fill-rule="evenodd" clip-rule="evenodd" d="M0 83.6927C0 91.8497 6.61238 98.4624 14.7692 98.4624H29.5385V88.6162H14.7692C12.0503 88.6162 9.84615 86.4116 9.84615 83.6927V14.7693C9.84615 12.0504 12.0503 9.8462 14.7692 9.8462H83.6923C86.4112 9.8462 88.6154 12.0504 88.6154 14.7693V29.5382H44.3077C36.1509 29.5382 29.5385 36.1506 29.5385 44.3075V113.231C29.5385 121.387 36.1509 128 44.3077 128H113.231C121.387 128 128 121.387 128 113.231V44.3075C128 36.1506 121.387 29.5382 113.231 29.5382H98.4615V14.7693C98.4615 6.61241 91.8489 0 83.6923 0H14.7692C6.61238 0 0 6.61241 0 14.7693V83.6927ZM39.3846 44.3075C39.3846 41.5886 41.5888 39.3844 44.3077 39.3844H113.231C115.949 39.3844 118.154 41.5886 118.154 44.3075V113.231C118.154 115.95 115.949 118.154 113.231 118.154H44.3077C41.5888 118.154 39.3846 115.95 39.3846 113.231V44.3075Z" fill="#1D1D1D"/>
</svg>
