<svg width="128" height="128" viewBox="0 0 128 128" fill="none" xmlns="http://www.w3.org/2000/svg">
<path fill-rule="evenodd" clip-rule="evenodd" d="M32 0C14.3269 0 0 14.3269 0 32V96C0 113.673 14.3269 128 32 128H96C113.673 128 128 113.673 128 96V32C128 14.3269 113.673 0 96 0H32ZM36.9998 13C33.134 13 30 16.1216 30 19.9722C30 22.373 31.2185 24.4901 33.073 25.744V112.089C33.073 114.249 34.8312 116 37 116C39.1688 116 40.927 114.249 40.927 112.089V25.744C42.7813 24.4901 44 22.373 44 19.9722C43.9998 16.1216 40.8658 13 36.9998 13ZM95.8333 68.2354L78.0474 50.4998L95.8333 32.7644C98.2858 30.319 96.6598 26 92.9274 26H48.6492C47.186 26 46 27.1827 46 28.6417V72.3583C46 73.8173 47.186 75 48.6492 75H92.9276C96.6551 75 98.2885 70.6837 95.8333 68.2354Z" fill="#008F12"/>
</svg>
