<svg width="128" height="128" viewBox="0 0 128 128" fill="none" xmlns="http://www.w3.org/2000/svg">
<path d="M116.347 52.3158H75.6462V11.6546C75.6462 5.21833 70.4526 0 64.0155 0C57.5784 0 52.3876 5.21833 52.3876 11.6574V52.344H11.6674C5.23031 52.344 -0.00281499 57.5624 4.57785e-06 64.0014C-0.00281499 67.2181 1.29701 70.167 3.40322 72.2729C5.51226 74.3845 8.42206 75.718 11.6364 75.718H52.3876V116.348C52.3876 119.568 53.6649 122.483 55.7739 124.586C57.8829 126.695 60.7843 128 64.0042 128C70.4385 128 75.6462 122.782 75.6462 116.348V75.7152H116.347C122.784 75.7152 128.003 70.4517 128 64.0155C127.997 57.5821 122.778 52.3158 116.347 52.3158Z" fill="#008F12"/>
</svg>
