<svg width="128" height="128" viewBox="0 0 128 128" fill="none" xmlns="http://www.w3.org/2000/svg">
<path fill-rule="evenodd" clip-rule="evenodd" d="M0 32C0 14.3269 14.3269 0 32 0H96C113.673 0 128 14.3269 128 32V96C128 113.673 113.673 128 96 128H32C14.3269 128 0 113.673 0 96V32ZM64 77C71.1797 77 77 71.1797 77 64C77 56.8203 71.1797 51 64 51C56.8203 51 51 56.8203 51 64C51 71.1797 56.8203 77 64 77ZM29.8638 37H98.1362C102.426 37 106 40.588 106 45.0731V83.1063C106 87.412 102.426 91 98.1362 91H29.8638C25.5745 91 22 87.412 22 83.1063V44.8937C22 40.588 25.5745 37 29.8638 37ZM29.8638 73.9568C34.8681 73.9568 38.9787 77.9037 38.9787 83.1063H89.0213C89.0213 78.0831 92.9532 73.9568 98.1362 73.9568V54.2226C93.1319 54.2226 89.0213 50.2757 89.0213 45.0731H38.9787C38.9787 50.0963 35.0468 54.2226 29.8638 54.2226V73.9568Z" fill="#008F12"/>
</svg>
