<svg width="128" height="128" viewBox="0 0 128 128" fill="none" xmlns="http://www.w3.org/2000/svg">
<path fill-rule="evenodd" clip-rule="evenodd" d="M118.772 83.9025C119.699 83.5543 120.618 83.1804 121.527 82.7812C125.008 81.2459 129.153 84.1863 127.703 87.6466C127.069 89.1605 126.38 90.6458 125.636 92.0999L125.628 92.1153C122.575 98.0807 118.612 103.521 113.917 108.263C111.447 110.758 108.774 113.059 105.925 115.142C94.8733 123.219 81.1652 128 66.3174 128C29.6894 128 0 98.9084 0 63.0187C0 45.0061 7.47804 28.7052 19.5594 16.9353C21.9496 14.6067 24.5201 12.4554 27.2484 10.5034C32.6617 6.63035 38.6966 3.54144 45.1794 1.4072L45.1796 1.40715C46.6182 0.933523 48.0789 0.506916 49.5597 0.129189C53.2529 -0.813034 55.6778 3.60162 53.6632 6.78163C53.0741 7.71152 52.5137 8.66069 51.9831 9.62796L51.9828 9.62858C48.9731 15.1157 46.9243 21.1853 46.0583 27.621C45.871 29.0132 45.739 30.4226 45.6646 31.847C45.6172 32.7553 45.5932 33.6696 45.5932 34.5895C45.5932 62.3659 67.4806 85.1311 95.279 87.2293C96.6639 87.3338 98.0635 87.387 99.4758 87.387C99.6414 87.3873 99.8071 87.3867 99.9727 87.3855C106.404 87.3362 112.767 86.156 118.76 83.9069L118.772 83.9025ZM89.4096 0.734163L90.8569 1.69936L90.8608 1.70193L93.9091 3.73482L96.1776 5.24771C96.7116 5.60369 97.2637 5.92735 97.831 6.21781C98.0047 6.30675 98.1799 6.39259 98.3564 6.47528L98.3573 6.47571C99.0688 6.80905 99.8021 7.09134 100.551 7.32087C102.128 7.80379 103.776 8.05321 105.443 8.05321C107.109 8.05321 108.757 7.80379 110.334 7.32087C111.083 7.09134 111.816 6.80905 112.528 6.47572L112.529 6.47528C112.701 6.3944 112.873 6.31052 113.043 6.22366C113.614 5.9317 114.17 5.60608 114.708 5.24771L116.976 3.73516L120.029 1.69988L120.029 1.69981L121.471 0.738317C125.271 -1.79613 129.797 2.72995 127.266 6.52532L126.299 7.97586L126.298 7.97752L124.266 11.0254L122.753 13.2936C122.399 13.8251 122.076 14.3746 121.787 14.9392C121.696 15.1157 121.609 15.2937 121.525 15.473L121.525 15.4738C121.192 16.1841 120.91 16.9161 120.681 17.6641C120.197 19.2417 119.947 20.8908 119.947 22.5587C119.947 24.2266 120.197 25.8756 120.681 27.4532C120.91 28.2001 121.191 28.9311 121.523 29.6404L121.525 29.6437C121.605 29.815 121.688 29.9849 121.774 30.1536C122.067 30.7268 122.394 31.2845 122.753 31.8237L124.265 34.092L126.298 37.1411L126.303 37.1492L127.262 38.5878C129.797 42.3873 125.271 46.9134 121.476 44.379L120.027 43.4139L120.025 43.4126L116.977 41.3814L114.708 39.8696C114.174 39.5136 113.621 39.1899 113.054 38.8994C112.88 38.8105 112.705 38.7247 112.529 38.642L112.527 38.6411C111.816 38.308 111.083 38.0258 110.334 37.7964C108.757 37.3135 107.109 37.0641 105.443 37.0641C103.776 37.0641 102.128 37.3135 100.551 37.7964C99.802 38.026 99.0687 38.3083 98.3572 38.6416L98.3565 38.642C98.1874 38.7212 98.0196 38.8033 97.8531 38.8882C97.278 39.1816 96.7185 39.509 96.1776 39.8696L93.9089 41.3822L90.8562 43.4174L90.8561 43.4175L89.4139 44.379C85.615 46.9134 81.0885 42.3873 83.6192 38.5919L84.5859 37.1421L84.5875 37.1397L86.6197 34.0919L88.1321 31.8237C88.49 31.287 88.8152 30.732 89.1069 30.1616C89.1944 29.9905 89.2789 29.818 89.3603 29.6442L89.3605 29.6437C89.6933 28.9333 89.9752 28.2013 90.2046 27.4532C90.6881 25.8756 90.9378 24.2266 90.9378 22.5587C90.9378 20.8908 90.6881 19.2417 90.2046 17.6641C89.9753 16.9161 89.6934 16.1841 89.3606 15.4738L89.3595 15.4713C89.2795 15.3007 89.1966 15.1314 89.1108 14.9634C88.8181 14.3903 88.4916 13.8327 88.1321 13.2936L86.6197 11.0254L84.5836 7.97173L84.5833 7.9712L83.6192 6.52532C81.0885 2.7258 85.615 -1.79613 89.4096 0.734163Z" fill="#1D1D1D"/>
</svg>
