<svg width="128" height="128" viewBox="0 0 128 128" fill="none" xmlns="http://www.w3.org/2000/svg">
<path d="M121.528 14.6234L112.899 5.95771C104.989 -1.9859 92.7642 -1.9859 84.8538 5.95771L70.4717 21.1227L107.146 57.952L122.247 42.787C125.843 39.1763 128 34.1213 128 29.0663C128 24.0113 125.124 18.2341 121.528 14.6234Z" fill="#1D1D1D"/>
<path d="M91.3261 57.2301L62.5619 28.3441L5.75283 85.3933C2.15731 89.0042 0 94.0595 0 99.8362V122.223C0 125.112 2.15731 128 5.75283 128H28.764C33.7978 128 38.8315 125.834 43.146 122.223L99.9552 65.1738L91.3261 57.2301Z" fill="#1D1D1D"/>
</svg>
