<svg width="128" height="128" viewBox="0 0 128 128" fill="none" xmlns="http://www.w3.org/2000/svg">
<path fill-rule="evenodd" clip-rule="evenodd" d="M44.8623 22.5882H62.3404C52.6625 30.8727 46.5456 42.9902 46.5456 56.4705V96C46.5456 97.9795 46.9008 99.8795 47.5462 101.647H40.9832V122.353C40.9832 125.471 38.3786 128 35.1651 128C31.9523 128 29.3469 125.472 29.3469 122.353V101.647H5.81813C2.60538 101.647 0 99.1188 0 96V50.8235C0 35.2545 13.0501 22.5882 29.0909 22.5882H33.2258V11.294H23.5288C20.3161 11.294 17.7107 8.76575 17.7107 5.647C17.7107 2.52875 20.3161 0 23.5288 0H39.0442C42.2577 0 44.8623 2.52875 44.8623 5.647V22.5882ZM58.1819 56.4704C58.1819 37.7876 73.8425 22.5881 93.0909 22.5881C112.34 22.5881 128 37.7876 128 56.4704V95.9999C128 99.1184 125.395 101.647 122.182 101.647H64C60.7873 101.647 58.1819 99.1186 58.1819 95.9999V56.4704ZM81.4547 73.4116C81.4547 76.5301 84.06 79.0586 87.2728 79.0586H98.909C102.123 79.0586 104.727 76.5304 104.727 73.4116C104.727 70.2931 102.123 67.7646 98.909 67.7646H87.2728C84.06 67.7646 81.4547 70.2929 81.4547 73.4116Z" fill="#1D1D1D"/>
</svg>
