<svg width="128" height="128" viewBox="0 0 128 128" fill="none" xmlns="http://www.w3.org/2000/svg">
<path fill-rule="evenodd" clip-rule="evenodd" d="M128 64C128 99.3462 99.3462 128 64 128C28.6538 128 0 99.3462 0 64C0 28.6538 28.6538 0 64 0C99.3462 0 128 28.6538 128 64ZM68.2739 82.169C69.6911 81.5319 70.9682 80.6207 72.0316 79.488C72.6243 78.8913 73.3287 78.4171 74.1046 78.0925C74.8805 77.768 75.7128 77.5994 76.5539 77.5964C77.3949 77.5935 78.2284 77.7562 79.0066 78.0752C79.7848 78.3943 80.4925 78.8635 81.0893 79.456C81.6862 80.0485 82.1604 80.7528 82.485 81.5286C82.8097 82.3043 82.9783 83.1364 82.9812 83.9774C82.9842 84.8183 82.8215 85.6516 82.5024 86.4296C82.1832 87.2077 81.714 87.9153 81.1213 88.512C78.8647 90.8397 76.1708 92.6993 73.194 93.9842C70.2172 95.2691 67.0161 95.9542 63.7741 96C57.071 95.5092 50.7546 92.6749 45.9324 87.994C41.1102 83.3131 38.0899 77.0844 37.4012 70.4C35.7035 70.4 34.0753 69.7257 32.8749 68.5255C31.6744 67.3252 31 65.6974 31 64C31 62.3026 31.6744 60.6748 32.8749 59.4745C34.0753 58.2743 35.7035 57.6 37.4012 57.6C38.0899 50.9156 41.1102 44.6869 45.9324 40.006C50.7546 35.3251 57.071 32.4908 63.7741 32C67.2545 32.042 70.6862 32.8225 73.8423 34.2899C76.9983 35.7573 79.8067 37.8781 82.0815 40.512C82.7044 41.1229 83.1957 41.8547 83.5254 42.6623C83.8551 43.47 84.0162 44.3365 83.9987 45.2087C83.9813 46.0809 83.7857 46.9403 83.4239 47.7341C83.0622 48.528 82.5419 49.2395 81.8951 49.825C81.2483 50.4105 80.4887 50.8576 79.6628 51.1389C78.8368 51.4201 77.9621 51.5296 77.0923 51.4606C76.2226 51.3916 75.3761 51.1455 74.6049 50.7375C73.8337 50.3295 73.1541 49.7682 72.6078 49.088C71.5092 47.8046 70.1578 46.7614 68.6379 46.0236C67.118 45.2858 65.4622 44.8693 63.7741 44.8C60.4898 45.2274 57.4316 46.7044 55.0553 49.0111C52.679 51.3177 51.1119 54.3304 50.5876 57.6H50.9717C52.6694 57.6 54.2976 58.2743 55.498 59.4745C56.6985 60.6748 57.3729 62.3026 57.3729 64C57.3729 65.6974 56.6985 67.3252 55.498 68.5255C54.2976 69.7257 52.6694 70.4 50.9717 70.4H50.5876C51.1119 73.6696 52.679 76.6823 55.0553 78.9889C57.4316 81.2956 60.4898 82.7726 63.7741 83.2C65.3274 83.1565 66.8567 82.806 68.2739 82.169Z" fill="#1D1D1D"/>
</svg>
