<svg width="128" height="128" viewBox="0 0 128 128" fill="none" xmlns="http://www.w3.org/2000/svg">
<path fill-rule="evenodd" clip-rule="evenodd" d="M32 0C14.3269 0 0 14.3269 0 32V96C0 113.673 14.3269 128 32 128H96C113.673 128 128 113.673 128 96V32C128 14.3269 113.673 0 96 0H32ZM62.4626 54.611C58.5741 56.8833 53.6664 59.7512 52.5 65C51.2 70.9 55.5 75 62.5 75C68.5 75 72.5 71 74.5 67C75.598 64.804 78.1025 63.4117 80.8369 61.8917C85.5736 59.2586 91 56.242 91 48C91 37 81 27 61.5 27C44 27 35 36 35 44C35 49.5 38.5 53 46 53C50.2075 53 52.4787 51.0638 54.6321 49.228C56.5732 47.5732 58.4186 46 61.5 46C65.5 46 67.5 48 67.5 50C67.5 51.6672 65.2416 52.987 62.4626 54.611ZM73.5 89.5C73.5 83.5 69 79 62 79C55 79 50.5 83.5 50.5 89.5C50.5 95.5 55 100 62 100C69 100 73.5 95.5 73.5 89.5Z" fill="#008F12"/>
</svg>
