<svg width="105" height="128" viewBox="0 0 105 128" fill="none" xmlns="http://www.w3.org/2000/svg">
<path d="M48.2773 0.291261C37.9543 2.23998 26.6043 11.5359 17.3874 25.5456C8.14411 39.6081 2.37694 55.1452 0.322883 71.525C-0.124797 75.1064 -0.0984625 85.1397 0.349217 88.3788C1.69226 98.2541 5.16835 106.418 10.7512 112.843C17.7824 120.954 28.711 125.984 42.9051 127.669C47.2502 128.17 58.9162 128.091 63.1824 127.511C70.6876 126.511 76.2441 124.904 81.8796 122.086C94.8359 115.661 102.42 104.337 104.527 88.2998C105.054 84.297 105.054 75.8964 104.527 71.3933C103.184 59.701 99.8131 48.7196 93.9669 36.8956C84.3286 17.3821 71.1352 4.05704 58.0999 0.659938C55.4138 -0.0510821 50.9107 -0.209087 48.2773 0.291261ZM55.3611 17.4348C64.5254 19.3045 74.2427 30.1278 80.6682 45.5859C82.3536 49.615 84.434 56.2512 84.4866 57.6469C84.513 58.7793 84.4076 59.0163 83.6439 59.701C82.6959 60.5437 81.6162 60.6753 80.4838 60.096C79.5885 59.622 79.3251 59.1216 78.4298 55.9879C75.5594 45.9282 70.0555 35.6053 64.3674 29.5748C60.2329 25.2033 57.0992 23.2809 53.4651 22.8069C52.3854 22.6752 51.2267 22.4119 50.937 22.2276C50.3576 21.8589 49.6203 20.4895 49.6203 19.7785C49.6203 18.9621 50.463 17.7508 51.2793 17.4084C52.3854 16.9344 52.9121 16.9344 55.3611 17.4348Z" fill="#008F12"/>
</svg>
