<svg width="128" height="128" viewBox="0 0 128 128" fill="none" xmlns="http://www.w3.org/2000/svg">
<path d="M64 0C64 0 24.4096 37.9733 2.2848 58.5387C0.985601 59.8471 0 61.7529 0 64C0 67.9324 2.8608 71.1111 6.4 71.1111H19.2V120.889C19.2 124.821 22.0608 128 25.6 128H44.8C48.3392 128 51.2 124.814 51.2 120.889V92.4444H76.8V120.889C76.8 124.814 79.6608 128 83.2 128H102.4C105.939 128 108.8 124.821 108.8 120.889V71.1111H121.6C125.139 71.1111 128 67.9324 128 64C128 61.7529 127.014 59.8471 125.549 58.5387C103.578 37.9733 64 0 64 0Z" fill="#1D1D1D"/>
</svg>
