<svg width="128" height="128" viewBox="0 0 128 128" fill="none" xmlns="http://www.w3.org/2000/svg">
<path fill-rule="evenodd" clip-rule="evenodd" d="M32 0C14.3269 0 0 14.3269 0 32V96C0 113.673 14.3269 128 32 128H96C113.673 128 128 113.673 128 96V32C128 14.3269 113.673 0 96 0H32ZM18 64.5C18 38.832 38.7855 18 64.4535 18C90.168 18 111 38.832 111 64.5C111 90.168 90.168 111 64.4535 111C38.7855 111 18 90.168 18 64.5ZM82.9605 45.9H96.678C92.214 38.2275 85.0995 32.2755 76.5435 29.346C79.3335 34.5075 81.4725 40.0875 82.9605 45.9ZM73.3815 45.9C71.382 39.2505 68.3595 33.066 64.5 27.486C60.6405 33.066 57.618 39.2505 55.6185 45.9H73.3815ZM27.3 64.5C27.3 67.7085 27.765 70.824 28.509 73.8H44.226C43.854 70.731 43.575 67.662 43.575 64.5C43.575 61.338 43.854 58.269 44.226 55.2H28.509C27.765 58.176 27.3 61.2915 27.3 64.5ZM46.0395 83.1H32.322C36.786 90.819 43.9005 96.7245 52.4565 99.654C49.6665 94.4925 47.5275 88.9125 46.0395 83.1ZM32.322 45.9H46.0395C47.5275 40.0875 49.6665 34.5075 52.4565 29.346C43.9005 32.2755 36.786 38.181 32.322 45.9ZM55.6185 83.1C57.618 89.7495 60.6405 95.934 64.5 101.514C68.3595 95.934 71.382 89.7495 73.3815 83.1H55.6185ZM52.875 64.5C52.875 67.662 53.2005 70.731 53.619 73.8H75.381C75.7995 70.731 76.125 67.662 76.125 64.5C76.125 61.338 75.7995 58.2225 75.381 55.2H53.619C53.2005 58.2225 52.875 61.338 52.875 64.5ZM82.9605 83.1C81.4725 88.9125 79.3335 94.4925 76.5435 99.654C85.0995 96.7245 92.214 90.7725 96.678 83.1H82.9605ZM85.425 64.5C85.425 67.662 85.146 70.731 84.774 73.8H100.491C101.235 70.824 101.7 67.7085 101.7 64.5C101.7 61.2915 101.235 58.176 100.491 55.2H84.774C85.146 58.269 85.425 61.338 85.425 64.5Z" fill="#1D1D1D"/>
</svg>
