<svg width="128" height="128" viewBox="0 0 128 128" fill="none" xmlns="http://www.w3.org/2000/svg">
<path fill-rule="evenodd" clip-rule="evenodd" d="M56 120V107.274C58.5942 107.751 61.268 108 64 108C66.732 108 69.4057 107.751 72 107.274V120C72 124.418 68.4183 128 64 128C59.5817 128 56 124.418 56 120ZM96.527 110.669L87.2318 101.374C91.8057 98.5247 95.8185 94.8593 99.0665 90.5813L107.84 99.3552C110.965 102.479 110.965 107.545 107.84 110.669C104.716 113.793 99.651 113.793 96.527 110.669ZM17.331 96.527L26.626 87.2318C29.4753 91.8057 33.1408 95.8185 37.4188 99.0665L28.6448 107.84C25.5205 110.965 20.455 110.965 17.331 107.84C14.2067 104.716 14.2067 99.651 17.331 96.527ZM120 72H107.274C107.751 69.4057 108 66.732 108 64C108 61.268 107.751 58.5942 107.274 56H120C124.418 56 128 59.5817 128 64C128 68.4135 124.426 71.9925 120 72ZM20.7255 72H8C3.58175 72 0 68.4183 0 64C0 59.5817 3.58175 56 8 56H20.7255C20.249 58.5942 20 61.268 20 64C20 66.7268 20.248 69.3958 20.7255 72ZM28.6448 20.1593L37.4188 28.9335C33.1408 32.1815 29.4753 36.1942 26.626 40.7682L17.331 31.473C14.2067 28.3487 14.2067 23.2835 17.331 20.1593C20.4552 17.0352 25.5205 17.0352 28.6448 20.1593ZM107.84 28.6448L99.0665 37.4188C95.8185 33.1408 91.8057 29.4753 87.2318 26.626L96.527 17.331C99.651 14.2067 104.716 14.2067 107.84 17.331C110.965 20.455 110.965 25.5205 107.84 28.6448ZM72 8C72 3.58175 68.4183 0 64 0C59.5817 0 56 3.58175 56 8V20.7255C58.5942 20.249 61.268 20 64 20C66.732 20 69.4057 20.249 72 20.7255V8ZM63.5 102C84.2107 102 101 85.2107 101 64.5C101 43.7893 84.2107 27 63.5 27C42.7893 27 26 43.7893 26 64.5C26 85.2107 42.7893 102 63.5 102Z" fill="#008F12"/>
</svg>
