<svg width="128" height="128" viewBox="0 0 128 128" fill="none" xmlns="http://www.w3.org/2000/svg">
<path fill-rule="evenodd" clip-rule="evenodd" d="M0 32C0 14.3269 14.3269 0 32 0H96C113.673 0 128 14.3269 128 32V96C128 113.673 113.673 128 96 128H32C14.3269 128 0 113.673 0 96V32ZM52.3373 18.1813C46.5513 19.0033 41.665 21.423 37.5233 25.5487C35.3516 27.7047 33.9711 29.628 32.6525 32.2958C31.5046 34.6069 30.8376 36.5146 30.3412 38.9498L30 40.6714V64.48V88.2886L30.3412 90.0103C30.8531 92.4609 31.5046 94.3531 32.637 96.6642C33.9401 99.2855 35.3361 101.224 37.4457 103.334C41.6495 107.553 46.6599 110.019 52.6165 110.794C55.2845 111.135 74.597 111.027 77.0789 110.655C83.4078 109.709 87.8597 107.816 91.2569 104.637C94.9487 101.193 96.9343 96.5092 96.9963 91.158C97.0118 89.1572 96.9963 89.0176 96.5775 88.18C96.019 87.0322 94.7161 85.838 93.6458 85.4812C91.2259 84.6746 88.6199 85.6983 87.3944 87.9318C87.0066 88.6298 86.929 89.0486 86.7429 90.8788C86.5258 93.2054 86.1689 94.5393 85.4244 95.6871C84.0593 97.843 81.1121 99.4406 76.9858 100.247C75.7759 100.495 74.3178 100.526 64.9796 100.588C53.6248 100.65 53.0663 100.619 50.8792 99.8904C45.5895 98.1222 41.9132 94.043 40.5016 88.3661C40.2845 87.4665 40.2379 85.0004 40.1914 65.4882C40.1603 49.8691 40.1914 43.1841 40.3155 42.0674C41.0446 35.7391 45.5275 30.5276 51.7478 28.7594C52.9268 28.4337 53.2059 28.4182 63.3508 28.3716C73.8059 28.3251 75.295 28.3716 77.7925 28.899C82.353 29.8296 85.1762 31.877 86.231 34.9946C86.4016 35.522 86.6343 36.9024 86.7584 38.1122C86.9446 39.9269 87.0532 40.3923 87.4099 41.0592C88.6199 43.2772 91.2414 44.2854 93.6458 43.4788C94.7316 43.1066 96.1432 41.8037 96.6395 40.718C96.9808 39.9734 97.0118 39.6943 96.9963 37.802C96.9033 28.201 90.6674 21.1592 80.2589 18.8792C76.567 18.0882 76.1482 18.0572 64.6693 18.0106C56.0912 17.9796 53.5782 18.0106 52.3373 18.1813ZM73.7481 48.6445C73.9506 46.7944 75.3366 44.9598 77.0341 44.3123C78.4824 43.7572 80.4914 43.9576 81.7372 44.7902C82.4848 45.2835 96.1115 61.4409 96.5943 62.4122C97.1082 63.4451 97.1393 65.4494 96.6566 66.4977C96.2361 67.392 82.9832 83.1947 81.9865 83.9656C80.1644 85.3994 77.3767 85.3377 75.5858 83.8114C73.7949 82.3005 73.2498 79.9262 74.2153 77.8603C74.4333 77.3669 75.7882 75.6094 77.6415 73.4047C79.339 71.4005 80.7094 69.72 80.7094 69.6737C80.7094 69.6274 75.4145 69.5812 68.9515 69.5812C57.3338 69.5812 57.1936 69.5812 56.306 69.2574C55.0756 68.7949 53.7831 67.5153 53.3159 66.2973C52.4126 63.8614 53.5027 61.1325 55.8699 59.8991L56.6486 59.4828L68.6868 59.4366C75.2899 59.4212 80.7094 59.3596 80.7094 59.3133C80.7094 59.2516 79.3546 57.6174 77.7037 55.644C76.053 53.686 74.5891 51.8976 74.4489 51.6817C73.9818 50.9571 73.6547 49.5541 73.7481 48.6445Z" fill="#1D1D1D"/>
</svg>
