<svg width="128" height="90" viewBox="0 0 128 90" fill="none" xmlns="http://www.w3.org/2000/svg">
<path d="M121.577 38.3844H32.013C28.1745 38.3844 25.6156 35.8255 25.6156 31.987C25.6156 28.1486 28.1745 25.5896 32.013 25.5896H106.223L91.5088 10.8756C88.9499 8.31663 88.9499 4.47819 91.5088 1.91922C94.0678 -0.639741 97.9063 -0.639741 100.465 1.91922L126.055 27.5089C127.974 29.4281 128.614 31.987 127.334 34.546C126.695 37.105 124.136 38.3844 121.577 38.3844ZM32.013 89.5637C30.0937 89.5637 28.8143 88.924 27.5348 87.6445L1.94514 62.0549C0.0259214 60.1356 -0.61382 57.5767 0.665662 55.0177C1.94514 52.4587 3.86437 51.1793 6.42333 51.1793H95.987C99.8255 51.1793 102.384 53.7382 102.384 57.5767C102.384 61.4151 99.8255 63.9741 95.987 63.9741H21.7771L36.4911 78.6881C39.0501 81.2471 39.0501 85.0855 36.4911 87.6445C35.2117 88.924 33.9322 89.5637 32.013 89.5637Z" fill="#1D1D1D"/>
</svg>
