<svg width="128" height="128" viewBox="0 0 128 128" fill="none" xmlns="http://www.w3.org/2000/svg">
<path d="M90.0039 36H18.0039C15.3526 36.0029 12.8108 37.0575 10.9361 38.9322C9.06137 40.8069 8.00686 43.3487 8.00391 46V102C8.00686 104.651 9.06137 107.193 10.9361 109.068C12.8108 110.943 15.3526 111.997 18.0039 112H90.0039C92.6552 111.997 95.197 110.943 97.0717 109.068C98.9464 107.193 100.001 104.651 100.004 102V46C100.001 43.3487 98.9464 40.8069 97.0717 38.9322C95.197 37.0575 92.6552 36.0029 90.0039 36ZM88.0039 100H20.0039V48H88.0039V100ZM120.004 26V88C120.004 89.5913 119.372 91.1174 118.247 92.2426C117.121 93.3679 115.595 94 114.004 94C112.413 94 110.886 93.3679 109.761 92.2426C108.636 91.1174 108.004 89.5913 108.004 88V28H32.0039C30.4126 28 28.8865 27.3679 27.7613 26.2426C26.636 25.1174 26.0039 23.5913 26.0039 22C26.0039 20.4087 26.636 18.8826 27.7613 17.7574C28.8865 16.6321 30.4126 16 32.0039 16H110.004C112.655 16.0029 115.197 17.0575 117.072 18.9322C118.946 20.8069 120.001 23.3487 120.004 26Z" fill="#1D1D1D"/>
</svg>
