<svg width="128" height="102" viewBox="0 0 128 102" fill="none" xmlns="http://www.w3.org/2000/svg">
<path d="M3.73724 58.8613L92.3629 58.8613C94.7654 58.8613 95.8332 61.7977 94.2315 63.3994L68.6048 89.0261C67.0031 90.6277 67.0031 93.0302 68.6048 94.6319L74.4776 100.505C76.0793 102.106 78.4818 102.106 80.0834 100.505L126.799 53.5224C128.4 51.9207 128.4 49.5182 126.799 47.9166L80.0834 1.20125C78.4818 -0.400418 76.0793 -0.400418 74.4776 1.20125L68.8718 6.80709C67.2701 8.40875 67.2701 10.8113 68.8718 12.4129L94.4984 38.0396C96.1001 39.9082 95.0323 42.8446 92.6298 42.8446L4.00418 42.8446C1.86863 42.8446 1.26352e-05 44.4463 1.24485e-05 46.5818L1.17484e-05 54.5902C1.15617e-05 56.7257 1.60168 58.8613 3.73724 58.8613Z" fill="#1D1D1D"/>
</svg>
