<svg width="128" height="128" viewBox="0 0 128 128" fill="none" xmlns="http://www.w3.org/2000/svg">
<path d="M100.079 55.2261L62.3701 14.0659C59.3226 10.469 59.7642 5.07942 63.3565 2.02804C66.9488 -1.02334 72.3315 -0.581182 75.379 3.01573L125.525 57.751C126.246 58.4765 126.83 59.3263 127.25 60.2597C127.771 61.4199 128.027 62.6823 127.998 63.9543L127.998 63.9622C127.969 65.2314 127.658 66.4782 127.089 67.6125C127.033 67.7223 126.975 67.8309 126.915 67.9382C126.568 68.5609 126.143 69.1371 125.651 69.6531L74.172 125.265C70.9696 128.725 65.5727 128.93 62.1178 125.723C58.6629 122.517 58.4581 117.113 61.6603 113.654L99.9339 72.3074L8.52978 72.3074C3.81893 72.3074 1.11962e-05 68.4836 1.16086e-05 63.7667C1.20209e-05 59.0498 3.81893 55.226 8.52979 55.226L100.079 55.226L100.079 55.2261Z" fill="#008F12"/>
</svg>
