<svg width="128" height="128" viewBox="0 0 128 128" fill="none" xmlns="http://www.w3.org/2000/svg">
<path fill-rule="evenodd" clip-rule="evenodd" d="M32 0C14.3269 0 0 14.3269 0 32V96C0 113.673 14.3269 128 32 128H96C113.673 128 128 113.673 128 96V32C128 14.3269 113.673 0 96 0H32ZM61.421 18.6613C62.3888 18.2251 63.4384 17.9997 64.5 18C65.5616 17.9997 66.6112 18.2251 67.579 18.6613C68.5469 19.0974 69.4108 19.7343 70.1135 20.5297C70.8163 21.3251 71.3417 22.2609 71.655 23.2748C71.9682 24.2887 72.0621 25.3577 71.9305 26.4106C78.3712 28.062 84.0793 31.8083 88.1554 37.0593C92.2315 42.3102 94.4441 48.7675 94.4444 55.4138V85.3448H98.7222C99.8568 85.3448 100.945 85.7953 101.747 86.5972C102.549 87.399 103 88.4866 103 89.6207C103 90.7547 102.549 91.8423 101.747 92.6442C100.945 93.446 99.8568 93.8965 98.7222 93.8965H30.2778C29.1432 93.8965 28.0552 93.446 27.2529 92.6442C26.4507 91.8423 26 90.7547 26 89.6207C26 88.4866 26.4507 87.399 27.2529 86.5972C28.0552 85.7953 29.1432 85.3448 30.2778 85.3448H34.5556V55.4138C34.5559 48.7675 36.7685 42.3102 40.8446 37.0593C44.9207 31.8083 50.6288 28.062 57.0695 26.4106C56.9379 25.3577 57.0318 24.2887 57.345 23.2748C57.6583 22.2609 58.1837 21.3251 58.8865 20.5297C59.5892 19.7343 60.4531 19.0974 61.421 18.6613ZM55.4255 107.243C57.8322 109.649 61.0964 111 64.5 111C67.9036 111 71.1678 109.649 73.5745 107.243C75.9812 104.837 77.3333 101.575 77.3333 98.1724H51.6667C51.6667 101.575 53.0187 104.837 55.4255 107.243Z" fill="#1D1D1D"/>
</svg>
