<svg width="128" height="128" viewBox="0 0 128 128" fill="none" xmlns="http://www.w3.org/2000/svg">
<path d="M64 0C28.7093 0 0 28.7093 0 64C0 99.2907 28.7093 128 64 128C99.2907 128 128 99.2907 128 64C128 28.7093 99.2907 0 64 0ZM83.7708 67.7708L57.104 94.4372C56.6093 94.9332 56.0216 95.3266 55.3745 95.5947C54.7274 95.8629 54.0337 96.0006 53.3332 96C52.6328 96.0006 51.9391 95.8629 51.292 95.5947C50.6449 95.3265 50.0572 94.9332 49.5625 94.4372C47.4772 92.352 47.4772 88.9813 49.5625 86.896L72.4587 64L49.5628 41.104C47.4775 39.0187 47.4775 35.648 49.5628 33.5628C51.648 31.4775 55.0187 31.4775 57.104 33.5628L83.7708 60.2295C85.856 62.3148 85.856 65.6852 83.7708 67.7708Z" fill="#1D1D1D"/>
</svg>
