<svg width="128" height="128" viewBox="0 0 128 128" fill="none" xmlns="http://www.w3.org/2000/svg">
<path d="M116.344 70.9062C108.691 70.2847 101.211 68.2982 94.2565 65.0405C91.3362 63.7194 88.0289 63.5356 84.9805 64.5249C81.9321 65.5142 79.3617 67.6056 77.7714 70.3906L74.4872 75.8696C65.7377 69.9585 58.2151 62.4066 52.3354 53.6312L57.8733 50.4727C60.6555 48.8808 62.7448 46.3078 63.7331 43.2564C64.7215 40.205 64.5379 36.8943 63.2181 33.9712C59.8746 26.9626 57.8239 19.4069 57.165 11.6683C56.8597 8.46569 55.3692 5.49306 52.9862 3.3343C50.6032 1.17554 47.5 -0.0133225 44.286 0.00122477H19.3652C16.6104 -0.0298107 13.8808 0.52931 11.3597 1.64107C8.83848 2.75282 6.58402 4.3915 4.74755 6.44714C2.93775 8.59532 1.59622 11.0983 0.808902 13.7956C0.0215835 16.4929 -0.194153 19.3251 0.175513 22.1107C3.63141 48.9823 15.8913 73.9484 35.036 93.1005C54.1807 112.253 79.1293 124.51 105.976 127.953C106.877 128.016 107.78 128.016 108.681 127.953C113.404 128.013 117.986 126.339 121.56 123.247C123.605 121.416 125.237 119.17 126.348 116.658C127.458 114.146 128.021 111.426 127.999 108.679V83.7981C128.014 80.5809 126.826 77.4746 124.67 75.0892C122.513 72.7039 119.543 71.2118 116.344 70.9062Z" fill="#1D1D1D"/>
</svg>
