<svg width="99" height="128" viewBox="0 0 99 128" fill="none" xmlns="http://www.w3.org/2000/svg">
<path d="M17.8184 0.357838C8.96915 2.13482 1.98027 9.09256 0.371322 17.7522C-0.00577561 19.6543 -0.0309155 24.6349 0.0193642 64.9298L0.0947837 109.98L0.673 111.982C2.83503 119.566 8.79317 125.447 16.4105 127.449C18.4469 128 18.472 128 49.4946 128H80.5423L82.6792 127.424C90.2211 125.422 96.1541 119.541 98.3413 111.882L98.8944 109.98L98.9698 64.9298C99.0452 15.7249 99.0955 17.9524 97.6122 14.0231C95.5759 8.64206 90.6233 3.68654 85.1177 1.50911C81.1708 -0.0676417 82.0758 -0.017586 49.2683 0.0074419C25.7123 0.0324698 19.1005 0.10756 17.8184 0.357838ZM81.9501 21.3813C83.2574 22.082 83.6848 23.0831 83.6848 25.636C83.6848 27.438 83.5842 28.0637 83.182 28.6894C82.1764 30.3663 83.7853 30.2661 56.408 30.2661C33.7319 30.2661 31.5196 30.2411 30.7151 29.8407C29.4833 29.265 28.8799 27.8885 28.8799 25.636C28.8799 23.5587 29.3576 22.4074 30.6145 21.5815L31.4693 21.0058H56.3326C78.2797 21.0058 81.2713 21.0559 81.9501 21.3813ZM81.9501 40.6527C83.2574 41.3285 83.6848 42.3546 83.6848 44.8574C83.6848 47.3852 83.3328 48.2862 82.1009 49.037C81.3216 49.5126 80.5925 49.5376 49.6705 49.5376C14.7513 49.5376 17.0893 49.6377 16.0586 47.9609C15.3295 46.7845 15.3295 43.0053 16.0586 41.829C17.0642 40.2022 15.1033 40.3023 49.6957 40.2773C77.6512 40.2773 81.2713 40.3274 81.9501 40.6527ZM81.9501 59.9242C83.2574 60.5999 83.6848 61.6261 83.6848 64.1289C83.6848 66.6567 83.3328 67.5577 82.1009 68.3085C81.3216 68.784 80.5925 68.8091 49.6705 68.8091C14.7513 68.8091 17.0893 68.9092 16.0586 67.2323C15.3295 66.056 15.3295 62.2768 16.0586 61.1005C17.0642 59.4737 15.1033 59.5738 49.6957 59.5488C77.6512 59.5488 81.2713 59.5988 81.9501 59.9242ZM81.9501 79.1956C83.2574 79.8714 83.6848 80.8975 83.6848 83.4003C83.6848 85.9281 83.3328 86.8291 82.1009 87.58C81.3216 88.0555 80.5925 88.0805 49.6705 88.0805C14.7513 88.0805 17.0893 88.1807 16.0586 86.5038C15.3295 85.3275 15.3295 81.5483 16.0586 80.372C17.0642 78.7451 15.1033 78.8453 49.6957 78.8202C77.6512 78.8202 81.2713 78.8703 81.9501 79.1956ZM81.9501 98.4671C83.2574 99.1429 83.6848 100.169 83.6848 102.672C83.6848 105.2 83.3328 106.101 82.1009 106.851C81.3216 107.327 80.5925 107.352 49.6705 107.352C14.7513 107.352 17.0893 107.452 16.0586 105.775C15.3295 104.599 15.3295 100.82 16.0586 99.6434C17.0642 98.0166 15.1033 98.1167 49.6957 98.0917C77.6512 98.0917 81.2713 98.1417 81.9501 98.4671Z" fill="#1D1D1D"/>
</svg>
