<svg width="128" height="128" viewBox="0 0 128 128" fill="none" xmlns="http://www.w3.org/2000/svg">
<path fill-rule="evenodd" clip-rule="evenodd" d="M32 0C14.3269 0 0 14.3269 0 32V96C0 113.673 14.3269 128 32 128H96C113.673 128 128 113.673 128 96V32C128 14.3269 113.673 0 96 0H32ZM84.4375 22H42.5625C39.2307 22 36.0354 23.3275 33.6795 25.6905C31.3235 28.0534 30 31.2583 30 34.6V93.4C30 96.7417 31.3235 99.9466 33.6795 102.31C36.0354 104.673 39.2307 106 42.5625 106H84.4375C87.7693 106 90.9646 104.673 93.3205 102.31C95.6765 99.9466 97 96.7417 97 93.4V34.6C97 31.2583 95.6765 28.0534 93.3205 25.6905C90.9646 23.3275 87.7693 22 84.4375 22ZM39.6015 31.6302C40.3868 30.8425 41.4519 30.4 42.5625 30.4H84.4375C85.5481 30.4 86.6132 30.8425 87.3985 31.6302C88.1838 32.4178 88.625 33.4861 88.625 34.6V93.4C88.625 94.5139 88.1838 95.5822 87.3985 96.3699C86.6132 97.1575 85.5481 97.6 84.4375 97.6H42.5625C41.4519 97.6 40.3868 97.1575 39.6015 96.3699C38.8162 95.5822 38.375 94.5139 38.375 93.4V34.6C38.375 33.4861 38.8162 32.4178 39.6015 31.6302ZM76.0625 34.6H50.9375C49.8269 34.6 48.7618 35.0425 47.9765 35.8302C47.1912 36.6178 46.75 37.6861 46.75 38.8C46.75 39.9139 47.1912 40.9822 47.9765 41.7698C48.7618 42.5575 49.8269 43 50.9375 43H76.0625C77.1731 43 78.2382 42.5575 79.0235 41.7698C79.8088 40.9822 80.25 39.9139 80.25 38.8C80.25 37.6861 79.8088 36.6178 79.0235 35.8302C78.2382 35.0425 77.1731 34.6 76.0625 34.6ZM59.3125 85H50.9375C49.8269 85 48.7618 85.4425 47.9765 86.2301C47.1912 87.0178 46.75 88.0861 46.75 89.2C46.75 90.3139 47.1912 91.3822 47.9765 92.1699C48.7618 92.9575 49.8269 93.4 50.9375 93.4H59.3125C60.4231 93.4 61.4882 92.9575 62.2735 92.1699C63.0588 91.3822 63.5 90.3139 63.5 89.2C63.5 88.0861 63.0588 87.0178 62.2735 86.2301C61.4882 85.4425 60.4231 85 59.3125 85ZM76.0625 68.2H50.9375C49.8269 68.2 48.7618 68.6425 47.9765 69.4302C47.1912 70.2178 46.75 71.2861 46.75 72.4C46.75 73.5139 47.1912 74.5822 47.9765 75.3698C48.7618 76.1575 49.8269 76.6 50.9375 76.6H76.0625C77.1731 76.6 78.2382 76.1575 79.0235 75.3698C79.8088 74.5822 80.25 73.5139 80.25 72.4C80.25 71.2861 79.8088 70.2178 79.0235 69.4302C78.2382 68.6425 77.1731 68.2 76.0625 68.2ZM76.0625 51.4H50.9375C49.8269 51.4 48.7618 51.8425 47.9765 52.6301C47.1912 53.4178 46.75 54.4861 46.75 55.6C46.75 56.7139 47.1912 57.7822 47.9765 58.5698C48.7618 59.3575 49.8269 59.8 50.9375 59.8H76.0625C77.1731 59.8 78.2382 59.3575 79.0235 58.5698C79.8088 57.7822 80.25 56.7139 80.25 55.6C80.25 54.4861 79.8088 53.4178 79.0235 52.6301C78.2382 51.8425 77.1731 51.4 76.0625 51.4Z" fill="#1D1D1D"/>
</svg>
