<svg width="128" height="128" viewBox="0 0 128 128" fill="none" xmlns="http://www.w3.org/2000/svg">
<path fill-rule="evenodd" clip-rule="evenodd" d="M127.509 60.1247L127.529 60.5087L127.529 60.5099C128.358 76.7893 129.297 95.2401 118.914 109.439C113.186 117.27 102.976 123.414 90.8979 126.295C86.1153 127.437 81.327 128 76.7334 128C69.8156 128 63.3353 126.723 57.9589 124.207C51.3598 121.118 47.4542 116.178 43.6756 111.397C40.5905 107.492 37.6757 103.806 33.4328 101.381C30.2428 99.5603 26.5756 98.2364 23.027 96.9552L22.9902 96.942C12.2131 93.0527 0 88.6444 0 69.5467C0 61.2674 2.20506 52.5239 6.05401 45.5614C10.3751 37.7384 16.4074 32.6966 23.0362 31.3671C30.2151 29.9255 34.3958 24.6318 39.2374 18.5012L39.2386 18.4996L39.243 18.494C43.3497 13.2921 48.0047 7.39579 55.1114 3.76307C62.8738 -0.204684 72.5202 -1.05444 83.0113 1.30732C91.7049 3.26507 100.72 7.37083 108.393 12.8686C123.877 23.9608 126.663 42.3234 127.359 57.0781C127.404 58.0819 127.457 59.098 127.509 60.1247ZM50.4176 74.4579C50.4176 88.6679 62.3419 100.185 77.0543 100.185C91.7642 100.185 103.691 88.6679 103.691 74.4579C103.691 60.2479 91.764 48.7309 77.0543 48.7309C62.3419 48.7309 50.4176 60.2479 50.4176 74.4579ZM58.7577 74.0851L66.7468 72.8208C66.871 73.4411 68.5633 81.2173 77.1679 83.9886L74.6065 91.4076C61.1059 87.0618 58.8467 74.6143 58.7577 74.0851Z" fill="#1D1D1D"/>
</svg>
