<svg width="128" height="128" viewBox="0 0 128 128" fill="none" xmlns="http://www.w3.org/2000/svg">
<path fill-rule="evenodd" clip-rule="evenodd" d="M102.468 2.51158C103.736 1.23096 105.325 0.400926 107.103 0.0807709C108.064 -0.0970934 110.067 0.0333404 111.004 0.329781C113.92 1.23096 115.876 3.17561 116.884 6.18744L117.169 7.01748L117.204 19.9304C117.236 32.3393 117.239 33.8082 116.777 35.1115C116.714 35.2865 116.644 35.4585 116.564 35.6536C115.734 37.7168 114.027 39.4362 111.94 40.3137C111.729 40.4035 111.55 40.4815 111.366 40.5494C110.123 41.0098 108.704 40.9968 95.829 40.9658L82.3139 40.9303L81.484 40.6457C79.0299 39.8275 77.3583 38.4402 76.2795 36.3651C74.5723 33.0687 75.1651 29.2386 77.797 26.5825C78.7691 25.5984 79.8954 24.8988 81.2469 24.4363C82.0886 24.1399 82.4206 24.1043 84.2107 24.045L86.2261 23.9739L85.1592 23.4284C80.5711 21.0688 74.9991 19.4205 69.0952 18.6735C67.4236 18.4601 60.4763 18.4601 58.781 18.6735C51.5967 19.5628 45.3845 21.6498 39.4094 25.2189C36.2796 27.0806 33.7899 29.0134 30.9447 31.7999C24.2464 38.3334 19.8955 46.3136 18.129 55.278C17.6192 57.8392 17.4059 59.7364 17.2873 62.7246C17.1806 65.606 17.062 66.2463 16.41 67.6099C15.3312 69.8984 13.2091 71.6178 10.7076 72.2344C9.6406 72.5071 7.67261 72.5071 6.58192 72.2462C4.04487 71.6415 1.9939 69.9814 0.843931 67.6099C0.073333 66.0091 -0.0689312 65.0605 0.0259116 62.2147C0.168176 57.5783 0.689811 53.6891 1.74494 49.3492C5.42009 34.3137 14.7977 21.0095 27.8386 12.3178C33.3394 8.65383 39.5991 5.76057 45.918 3.94635C60.0614 -0.0970934 75.2481 0.756655 88.8343 6.37716C91.893 7.63407 96.1846 9.87516 98.9351 11.6538L99.8954 12.2704L99.9428 9.59058C99.9902 7.06491 100.014 6.83961 100.31 5.95029C100.761 4.58666 101.389 3.59063 102.468 2.51158ZM111.644 60.2582C112.865 57.7799 115.402 55.9538 118.164 55.5863C121.164 55.1712 124.412 56.4756 126.214 58.7997C126.914 59.7127 127.637 61.2898 127.838 62.3688C128.135 63.934 128.016 67.598 127.542 71.5347C125.384 89.3212 115.497 105.317 100.334 115.55C95.8408 118.586 90.3637 121.301 85.1236 123.092C70.4822 128.096 53.9203 127.633 39.6465 121.811C35.7816 120.234 31.5493 118.028 28.7751 116.155L28.0994 115.704L28.052 118.396C28.0045 120.874 27.969 121.159 27.6963 122.001C27.2339 123.376 26.6056 124.42 25.5979 125.428C24.6139 126.412 23.4402 127.159 22.314 127.538C18.1764 128.914 13.6358 127.123 11.7864 123.4C11.5848 122.992 11.4257 122.712 11.3 122.417C10.7825 121.206 10.8287 119.753 10.7906 108.163C10.7669 99.91 10.8024 95.0366 10.8736 94.4437C11.1344 92.4872 11.9287 90.9101 13.375 89.4872C14.3827 88.4911 15.5564 87.8034 17.0502 87.3291L17.9393 87.0564H31.7508H45.5623L46.4515 87.3291C50.5771 88.6216 53.0786 92.3212 52.6044 96.4595C52.2369 99.7203 49.9251 102.519 46.7478 103.562C45.9298 103.823 45.5149 103.882 43.784 103.942L41.7686 104.013L42.8356 104.558C46.57 106.479 51.6204 108.139 55.9713 108.874C59.1722 109.408 59.9665 109.467 64.1752 109.467C68.4668 109.455 69.439 109.384 72.8533 108.756C90.1858 105.578 104.365 92.8192 109.036 76.2067C110.044 72.5901 110.541 69.3529 110.707 65.2621C110.826 62.3095 110.933 61.7166 111.644 60.2582Z" fill="#1D1D1D"/>
</svg>
