<svg width="128" height="112" viewBox="0 0 128 112" fill="none" xmlns="http://www.w3.org/2000/svg">
<path fill-rule="evenodd" clip-rule="evenodd" d="M120.32 34.8341C124.544 34.8341 128 31.3181 128 27.0208C128 12.1105 116.096 0 101.44 0H26.496C11.84 0 0 12.0454 0 26.9557V27.0208C0 31.3181 3.456 34.8341 7.68 34.8341H120.32ZM0 85.0443V52.424C0 48.1267 3.456 44.6107 7.68 44.6107H120.32C124.544 44.6107 128 48.1267 128 52.424V84.9792C128 99.8895 116.096 112 101.44 112H26.496C11.84 112 0 99.9546 0 85.0443ZM25.6 90.188H38.4C41.024 90.188 43.2 87.9743 43.2 85.3047C43.2 82.6352 41.024 80.4215 38.4 80.4215H25.6C22.976 80.4215 20.8 82.6352 20.8 85.3047C20.8 87.9743 22.976 90.188 25.6 90.188ZM54.4 90.188H80C82.624 90.188 84.8 87.9743 84.8 85.3047C84.8 82.6352 82.624 80.4215 80 80.4215H54.4C51.776 80.4215 49.6 82.6352 49.6 85.3047C49.6 87.9743 51.776 90.188 54.4 90.188Z" fill="#1D1D1D"/>
</svg>
