<svg width="128" height="128" viewBox="0 0 128 128" fill="none" xmlns="http://www.w3.org/2000/svg">
<path fill-rule="evenodd" clip-rule="evenodd" d="M32 0C14.3269 0 0 14.3269 0 32V96C0 113.673 14.3269 128 32 128H96C113.673 128 128 113.673 128 96V32C128 14.3269 113.673 0 96 0H32ZM90.0053 19.9272C104.444 28.7241 108.989 47.6045 100.157 62.1008C94.7792 70.9278 85.6791 76.0665 76.1284 76.7673L74.8424 78.8781C73.9116 80.4059 71.9264 80.8898 70.4074 79.9643L67.6555 78.2877L64.2891 83.8133L59.6785 83.4288C59.082 83.3798 58.4941 83.6201 58.1046 84.0798C57.7151 84.5396 57.5688 85.1513 57.7071 85.7356L59.2395 92.1016L55.7627 91.8131C55.0594 91.7597 54.3833 92.1016 54.0146 92.7067C53.646 93.3117 53.6523 94.0694 54.0222 94.6698L55.873 97.6271L54.1898 100.39L50.7372 100.056C50.0363 99.9921 49.3569 100.321 48.9817 100.918C48.6065 101.515 48.5984 102.272 48.9578 102.877L50.8391 106.02L37.5155 109.172L29.8774 96.9424L48.3928 66.5519L45.641 64.8754C44.1219 63.9499 43.6415 61.9639 44.5724 60.436L45.8583 58.3253C42.1012 49.5167 42.4945 39.0734 47.8724 30.2463C56.7043 15.7501 75.5665 11.1304 90.0053 19.9272ZM87.6272 39.3138C89.95 35.5012 88.7532 30.5292 84.9557 28.2155C81.1581 25.9019 76.1909 27.1185 73.868 30.9311C71.5452 34.7437 72.742 39.7158 76.5396 42.0294C80.3371 44.343 85.3043 43.1265 87.6272 39.3138Z" fill="#1D1D1D"/>
</svg>
