<svg width="128" height="119" viewBox="0 0 128 119" fill="none" xmlns="http://www.w3.org/2000/svg">
<path fill-rule="evenodd" clip-rule="evenodd" d="M36.1488 6.93146L105.851 38.3081C110.847 40.5542 115.012 42.4259 118.109 44.1683C121.124 45.8698 124.453 48.1227 126.236 51.7232C127.396 54.0689 128 56.6508 128 59.2679C128 61.885 127.396 64.4668 126.236 66.8126C124.453 70.4198 121.131 72.6727 118.116 74.3675C115.019 76.1167 110.847 77.9884 105.851 80.2344L36.2713 111.543C31.1462 113.857 26.8787 115.77 23.462 116.961C20.1406 118.111 16.1794 119.125 12.2522 118.029C9.70913 117.319 7.3662 116.027 5.40878 114.255C3.45136 112.483 1.93315 110.28 0.974288 107.82C-0.509467 104.029 0.109899 99.9792 0.919839 96.5625C1.757 93.0369 3.24756 88.5993 5.02399 83.2768L11.9663 62.5382C12.6946 60.3739 12.7422 60.1357 12.7695 59.9587C12.8069 59.6695 12.8069 59.3767 12.7695 59.0875C12.7422 58.9105 12.7014 58.6723 11.9799 56.5079L4.88786 35.15C3.12505 29.8412 1.65491 25.4171 0.831358 21.8915C0.0282242 18.4816 -0.57753 14.4387 0.906226 10.6545C1.86838 8.19744 3.38879 5.99785 5.34729 4.22953C7.3058 2.4612 9.64873 1.1726 12.1909 0.465556C16.1113 -0.623438 20.0657 0.390688 23.3735 1.53413C26.7903 2.71841 31.0442 4.63096 36.1488 6.93146ZM25.1432 66.0775H60.9915C62.7966 66.0775 64.5278 65.3604 65.8042 64.084C67.0806 62.8076 67.7977 61.0764 67.7977 59.2713C67.7977 57.4661 67.0806 55.735 65.8042 54.4585C64.5278 53.1821 62.7966 52.465 60.9915 52.465H24.9798C24.9525 52.3834 24.9253 52.3017 24.8981 52.22L17.915 31.1752C16.016 25.4648 14.7501 21.6261 14.0831 18.7743C13.5386 16.4602 13.6066 15.6434 13.6202 15.5345C13.8136 15.0796 14.1037 14.6722 14.4704 14.3407C14.8371 14.0093 15.2717 13.7617 15.7438 13.6152C15.8459 13.6152 16.6762 13.6288 18.9223 14.4047C21.6924 15.3644 25.3814 17.0183 30.8672 19.4889L99.9639 50.5797C105.341 52.9959 108.941 54.6226 111.439 56.0315C113.461 57.1681 113.998 57.7671 114.073 57.842C114.281 58.2899 114.388 58.7776 114.388 59.2713C114.388 59.7649 114.281 60.2526 114.073 60.7006C114.005 60.7686 113.461 61.3676 111.439 62.511C108.941 63.9131 105.341 65.5398 99.9639 67.956L30.9897 98.9923C25.4835 101.477 21.7809 103.137 19.004 104.097C16.7443 104.88 15.9207 104.887 15.8186 104.893C15.3446 104.747 14.9083 104.499 14.5403 104.166C14.1723 103.833 13.8815 103.424 13.6883 102.967C13.6883 102.865 13.6066 102.042 14.1647 99.7206C14.8454 96.862 16.1249 93.0097 18.0443 87.2856L24.8777 66.8602L25.0002 66.4927L25.1432 66.0775Z" fill="#1D1D1D"/>
</svg>
