<svg width="128" height="128" viewBox="0 0 128 128" fill="none" xmlns="http://www.w3.org/2000/svg">
<path d="M12.8 0H115.2C118.595 0 121.851 1.34857 124.251 3.74903C126.651 6.1495 128 9.40523 128 12.8V115.2C128 118.595 126.651 121.851 124.251 124.251C121.851 126.651 118.595 128 115.2 128H12.8C9.40523 128 6.1495 126.651 3.74903 124.251C1.34857 121.851 -1.90735e-06 118.595 -1.90735e-06 115.2V12.8C-1.90735e-06 9.40523 1.34857 6.1495 3.74903 3.74903C6.1495 1.34857 9.40523 0 12.8 0ZM83.2 96C83.2 97.6974 83.8743 99.3253 85.0745 100.525C86.2747 101.726 87.9026 102.4 89.6 102.4C91.2974 102.4 92.9252 101.726 94.1255 100.525C95.3257 99.3253 96 97.6974 96 96V83.2C96 81.5026 95.3257 79.8748 94.1255 78.6745C92.9252 77.4743 91.2974 76.8 89.6 76.8C87.9026 76.8 86.2747 77.4743 85.0745 78.6745C83.8743 79.8748 83.2 81.5026 83.2 83.2V96ZM57.6 96C57.6 97.6974 58.2743 99.3253 59.4745 100.525C60.6747 101.726 62.3026 102.4 64 102.4C65.6974 102.4 67.3252 101.726 68.5255 100.525C69.7257 99.3253 70.4 97.6974 70.4 96V57.6C70.4 55.9026 69.7257 54.2748 68.5255 53.0745C67.3252 51.8743 65.6974 51.2 64 51.2C62.3026 51.2 60.6747 51.8743 59.4745 53.0745C58.2743 54.2748 57.6 55.9026 57.6 57.6V96ZM32 96C32 97.6974 32.6743 99.3253 33.8745 100.525C35.0747 101.726 36.7026 102.4 38.4 102.4C40.0974 102.4 41.7252 101.726 42.9255 100.525C44.1257 99.3253 44.8 97.6974 44.8 96V32C44.8 30.3026 44.1257 28.6748 42.9255 27.4745C41.7252 26.2743 40.0974 25.6 38.4 25.6C36.7026 25.6 35.0747 26.2743 33.8745 27.4745C32.6743 28.6748 32 30.3026 32 32V96Z" fill="#1D1D1D"/>
</svg>
