<svg width="128" height="128" viewBox="0 0 128 128" fill="none" xmlns="http://www.w3.org/2000/svg">
<path fill-rule="evenodd" clip-rule="evenodd" d="M64 128C80.9739 128 97.2525 121.257 109.255 109.255C121.257 97.2525 128 80.9739 128 64C128 47.0261 121.257 30.7475 109.255 18.7452C97.2525 6.74284 80.9739 0 64 0C47.0261 0 30.7475 6.74284 18.7452 18.7452C6.74284 30.7475 0 47.0261 0 64C0 80.9739 6.74284 97.2525 18.7452 109.255C30.7475 121.257 47.0261 128 64 128ZM91.4773 53.12C92.7755 51.484 93.3823 49.4051 93.1683 47.3277C92.9543 45.2502 91.9363 43.3387 90.3319 42.0017C88.7275 40.6647 86.6638 40.0081 84.5818 40.1722C82.4998 40.3363 80.5645 41.3081 79.1893 42.88L58.1333 68.1493L48.32 58.336C46.8105 56.8794 44.7893 56.074 42.6917 56.0932C40.5941 56.1124 38.588 56.9547 37.1055 58.4387C35.6229 59.9227 34.7825 61.9296 34.7653 64.0272C34.748 66.1248 35.5553 68.1452 37.0133 69.6533L53.0133 85.6533C53.7992 86.4386 54.74 87.0517 55.7758 87.4533C56.8116 87.855 57.9197 88.0365 59.0295 87.9864C60.1394 87.9362 61.2266 87.6554 62.2219 87.1619C63.2172 86.6684 64.0989 85.973 64.8107 85.12L91.4773 53.12Z" fill="#1D1D1D"/>
</svg>
