<svg width="128" height="128" viewBox="0 0 128 128" fill="none" xmlns="http://www.w3.org/2000/svg">
<path fill-rule="evenodd" clip-rule="evenodd" d="M32 0C14.3269 0 0 14.3269 0 32V96C0 113.673 14.3269 128 32 128H96C113.673 128 128 113.673 128 96V32C128 14.3269 113.673 0 96 0H32ZM38.7245 32.6069C44.8836 26.4557 53.2371 23 61.9474 23C70.6576 23 79.0112 26.4557 85.1702 32.6069C91.3293 38.7581 94.7895 47.1009 94.7895 55.8V64C96.967 64 99.0554 64.8639 100.595 66.4017C102.135 67.9395 103 70.0252 103 72.2V80.4C103 82.5748 102.135 84.6605 100.595 86.1983C99.0554 87.7361 96.967 88.6 94.7895 88.6H63.5484C62.4417 88.5208 61.377 88.1445 60.4668 87.5108C59.5566 86.8771 58.8347 86.0096 58.3775 84.9999C57.9203 83.9902 57.7447 82.8759 57.8694 81.7748C57.994 80.6737 58.4142 79.6267 59.0856 78.7444C59.757 77.8622 60.6545 77.1775 61.6834 76.7627C62.7123 76.348 63.8343 76.2186 64.9308 76.3882C66.0273 76.5578 67.0575 77.0201 67.9126 77.7263C68.7676 78.4325 69.4157 79.3563 69.7884 80.4H86.5789V59.9C86.5789 58.8126 86.1464 57.7698 85.3765 57.0009C84.6067 56.232 83.5625 55.8 82.4737 55.8H41.4211C40.3323 55.8 39.2881 56.232 38.5182 57.0009C37.7483 57.7698 37.3158 58.8126 37.3158 59.9V67.485L35.2632 68.674C34.6427 69.0317 34.1268 69.5454 33.7667 70.164C33.4066 70.7826 33.2149 71.4845 33.2105 72.2C33.2007 73.1949 33.5535 74.1594 34.203 74.9137C34.8526 75.668 35.7547 76.1608 36.7411 76.3L39.1632 76.546L40.0253 78.801C44.2537 89.83 52.6695 96.8 61.9474 96.8H74.2632V105H61.9474C49.0158 105 38.3011 95.652 32.9642 82.901C30.7118 82.1263 28.7462 80.6901 27.3251 78.7806C25.9039 76.8711 25.0935 74.5774 25 72.2C25.0571 70.5605 25.451 68.9503 26.1572 67.4691C26.8634 65.988 27.8668 64.6677 29.1053 63.59V55.8C29.1053 47.1009 32.5654 38.7581 38.7245 32.6069Z" fill="#008F12"/>
</svg>
