<svg width="128" height="128" viewBox="0 0 128 128" fill="none" xmlns="http://www.w3.org/2000/svg">
<path fill-rule="evenodd" clip-rule="evenodd" d="M114.735 0.894661C121.663 -2.51973 129.09 4.3373 127.867 13.0188L113.418 115.559C112.025 125.446 102.748 131.119 94.9991 126.192C88.5146 122.07 78.8938 115.724 70.2232 109.092C65.8936 105.781 52.6361 95.162 54.2656 87.603C55.6589 81.1398 77.9463 56.8558 90.6822 42.4139C95.6849 36.741 93.4065 33.4637 87.4982 38.687C72.8417 51.644 49.3108 71.3439 41.5294 76.8881C34.6639 81.7793 31.0792 82.6141 26.8034 81.7793C18.9955 80.2565 11.7565 77.8981 5.84651 75.0306C-2.1413 71.1545 -1.75221 58.3056 5.8411 54.5637L114.735 0.894661Z" fill="#1D1D1D"/>
</svg>
