<svg width="128" height="128" viewBox="0 0 128 128" fill="none" xmlns="http://www.w3.org/2000/svg">
<path fill-rule="evenodd" clip-rule="evenodd" d="M32 0C14.3269 0 0 14.3269 0 32V96C0 113.673 14.3269 128 32 128H96C113.673 128 128 113.673 128 96V32C128 14.3269 113.673 0 96 0H32ZM99 64.5C99 45.4462 83.5537 30 64.5 30C45.4462 30 30 45.4462 30 64.5C30 83.5537 45.4462 99 64.5 99C83.5537 99 99 83.5537 99 64.5ZM61.05 47.25C61.05 45.3446 62.5946 43.8 64.5 43.8C66.4054 43.8 67.95 45.3446 67.95 47.25V63.071L77.2895 72.4105C78.6367 73.7577 78.6367 75.9423 77.2895 77.2895C75.9423 78.6367 73.7577 78.6367 72.4105 77.2895L62.0605 66.9395C61.4136 66.2926 61.05 65.4149 61.05 64.5V47.25Z" fill="#008F12"/>
</svg>
