<svg width="111" height="128" viewBox="0 0 111 128" fill="none" xmlns="http://www.w3.org/2000/svg">
<path d="M109.966 80.213C109.528 79.0162 108.864 77.9443 108.042 76.9824C106.6 71.1658 103.747 64.4947 99.5992 57.8786C92.958 47.2673 75.3758 30.1698 68.6948 27.5339C68.3624 27.3989 68.0626 27.324 67.7828 27.2565C67.5554 25.61 66.6235 24.0809 64.4148 23.0315C60.9693 21.415 57.5713 19.8359 54.3806 18.734C50.5479 7.8429 40.1815 0 27.9961 0C12.5576 0 0 12.5501 0 27.9886C0 43.4246 12.5576 55.9822 27.9961 55.9822C40.7012 55.9822 51.4424 47.4622 54.8479 35.8365C57.3889 35.4467 59.5801 35.5792 60.8144 37.4181C64.2474 42.5251 68.0326 59.5226 74.319 70.3863C72.7299 70.1689 71.0908 70.049 69.4018 70.049C62.1461 70.049 55.6249 72.1727 51.0201 75.5757C47.0774 69.4243 40.1964 65.3367 32.346 65.3367C21.9496 65.3367 13.2572 72.495 10.8511 82.1494L9.8967 82.1569L10.4464 128L21.7822 127.805L25.8948 120.519C33.0406 117.776 41.4907 110.695 47.3598 103.16C55.3151 104.326 65.3592 104.991 69.4018 104.991C73.7793 104.991 90.3371 103.062 95.0668 101.326C106.09 97.3005 112.769 87.8435 109.966 80.213ZM27.9961 36.1938C23.4712 36.1938 19.7934 32.5134 19.7934 27.9886C19.7934 23.4663 23.4712 19.7909 27.9961 19.7909C32.5184 19.7909 36.1963 23.4687 36.1963 27.9886C36.1963 32.5159 32.5159 36.1938 27.9961 36.1938Z" fill="#008F12"/>
</svg>
