<svg width="128" height="128" viewBox="0 0 128 128" fill="none" xmlns="http://www.w3.org/2000/svg">
<path fill-rule="evenodd" clip-rule="evenodd" d="M64 128C99.3462 128 128 99.3462 128 64C128 28.6538 99.3462 0 64 0C28.6538 0 0 28.6538 0 64C0 99.3462 28.6538 128 64 128ZM36.5902 56.8752C32.3704 46.2779 28.8315 37.3638 28.715 37.0521L28.5 36.5L38.1849 36.5178L47.8788 36.5445L50.2171 45.8505L50.6776 47.6783C51.7557 51.9568 52.5957 55.2907 52.6271 55.4236C52.6899 55.6641 52.7078 55.673 52.7705 55.5127C52.8063 55.4147 53.9352 51.0957 55.288 45.9128L57.7339 36.5L71.2981 36.5178L84.8713 36.5445L91.9312 63.6609C95.8195 78.5772 98.991 90.8308 99 90.8842C99 90.9733 97.1006 91 89.772 91H80.544L80.4992 90.7952C80.4876 90.7488 80.3948 90.3582 80.2496 89.7467C80.0604 88.9498 79.782 87.7776 79.4779 86.5029L78.5103 82.4065L71.2623 82.3797L64.0143 82.3619L63.0377 86.681L62.0522 91H53.1557H44.2592V83.5641V76.1372L36.5902 56.8752ZM75.2581 68.4252C75.2581 68.3629 71.9522 53.9899 71.8446 53.5713C71.8049 53.4252 71.7828 53.3439 71.7299 53.2986C71.6634 53.2418 71.5484 53.2418 71.2892 53.2418H70.8143L69.0494 60.7846C68.0728 64.9433 67.2844 68.3629 67.2844 68.3985C67.2844 68.4787 75.2581 68.4965 75.2581 68.4252Z" fill="#1D1D1D"/>
</svg>
