<svg width="128" height="128" viewBox="0 0 128 128" fill="none" xmlns="http://www.w3.org/2000/svg">
<path fill-rule="evenodd" clip-rule="evenodd" d="M0 10.6667C0 7.83769 0.963262 5.12458 2.67788 3.1242C4.3925 1.12381 6.71802 0 9.14286 0H118.857C121.282 0 123.608 1.12381 125.322 3.1242C127.037 5.12458 128 7.83769 128 10.6667C128 13.4956 127.037 16.2087 125.322 18.2091C123.608 20.2095 121.282 21.3333 118.857 21.3333H9.14286C6.71802 21.3333 4.3925 20.2095 2.67788 18.2091C0.963262 16.2087 0 13.4956 0 10.6667ZM0 64C0 61.171 0.963262 58.4579 2.67788 56.4575C4.3925 54.4571 6.71802 53.3333 9.14286 53.3333H64C66.4248 53.3333 68.7504 54.4571 70.465 56.4575C72.1796 58.4579 73.1429 61.171 73.1429 64C73.1429 66.829 72.1796 69.5421 70.465 71.5425C68.7504 73.5429 66.4248 74.6667 64 74.6667H9.14286C6.71802 74.6667 4.3925 73.5429 2.67788 71.5425C0.963262 69.5421 0 66.829 0 64ZM0 117.333C0 114.504 0.963262 111.791 2.67788 109.791C4.3925 107.79 6.71802 106.667 9.14286 106.667H118.857C121.282 106.667 123.608 107.79 125.322 109.791C127.037 111.791 128 114.504 128 117.333C128 120.162 127.037 122.875 125.322 124.876C123.608 126.876 121.282 128 118.857 128H9.14286C6.71802 128 4.3925 126.876 2.67788 124.876C0.963262 122.875 0 120.162 0 117.333Z" fill="black"/>
</svg>
