<svg width="128" height="128" viewBox="0 0 128 128" fill="none" xmlns="http://www.w3.org/2000/svg">
<path d="M101.333 37.3333H96.0001V32C96.0001 27.7565 94.3144 23.6869 91.3138 20.6863C88.3132 17.6857 84.2435 16 80.0001 16H26.6667C22.4233 16 18.3536 17.6857 15.353 20.6863C12.3525 23.6869 10.6667 27.7565 10.6667 32V96C10.6667 100.243 12.3525 104.313 15.353 107.314C18.3536 110.314 22.4233 112 26.6667 112H101.333C105.577 112 109.647 110.314 112.647 107.314C115.648 104.313 117.333 100.243 117.333 96V53.3333C117.333 49.0899 115.648 45.0202 112.647 42.0196C109.647 39.019 105.577 37.3333 101.333 37.3333ZM26.6667 26.6667H80.0001C81.4146 26.6667 82.7711 27.2286 83.7713 28.2288C84.7715 29.229 85.3334 30.5855 85.3334 32V37.3333H26.6667C25.2523 37.3333 23.8957 36.7714 22.8955 35.7712C21.8953 34.771 21.3334 33.4145 21.3334 32C21.3334 30.5855 21.8953 29.229 22.8955 28.2288C23.8957 27.2286 25.2523 26.6667 26.6667 26.6667ZM106.667 80H101.333C99.9189 80 98.5624 79.4381 97.5622 78.4379C96.562 77.4377 96.0001 76.0812 96.0001 74.6667C96.0001 73.2522 96.562 71.8956 97.5622 70.8954C98.5624 69.8952 99.9189 69.3333 101.333 69.3333H106.667V80ZM106.667 58.6667H101.333C97.0899 58.6667 93.0203 60.3524 90.0197 63.353C87.0191 66.3535 85.3334 70.4232 85.3334 74.6667C85.3334 78.9101 87.0191 82.9798 90.0197 85.9804C93.0203 88.981 97.0899 90.6667 101.333 90.6667H106.667V96C106.667 97.4145 106.105 98.771 105.105 99.7712C104.104 100.771 102.748 101.333 101.333 101.333H26.6667C25.2523 101.333 23.8957 100.771 22.8955 99.7712C21.8953 98.771 21.3334 97.4145 21.3334 96V47.0933C23.0468 47.6961 24.8504 48.0027 26.6667 48H101.333C102.748 48 104.104 48.5619 105.105 49.5621C106.105 50.5623 106.667 51.9188 106.667 53.3333V58.6667Z" fill="#1D1D1D"/>
</svg>
