<svg width="436" height="436" viewBox="0 0 436 436" fill="none" xmlns="http://www.w3.org/2000/svg">
<path fill-rule="evenodd" clip-rule="evenodd" d="M218 436C275.817 436 331.266 413.032 372.149 372.149C413.032 331.266 436 275.817 436 218C436 160.183 413.032 104.734 372.149 63.8507C331.266 22.9678 275.817 0 218 0C160.183 0 104.734 22.9678 63.8507 63.8507C22.9678 104.734 0 160.183 0 218C0 275.817 22.9678 331.266 63.8507 372.149C104.734 413.032 160.183 436 218 436ZM311.595 180.94C316.016 175.367 318.084 168.286 317.354 161.21C316.625 154.133 313.158 147.623 307.693 143.068C302.228 138.514 295.199 136.278 288.107 136.837C281.015 137.396 274.423 140.706 269.739 146.06L198.017 232.134L164.59 198.707C159.448 193.746 152.564 191.002 145.419 191.068C138.274 191.133 131.44 194.002 126.39 199.057C121.34 204.112 118.478 210.948 118.419 218.093C118.36 225.237 121.11 232.12 126.077 237.257L180.577 291.757C183.253 294.432 186.458 296.52 189.986 297.888C193.514 299.256 197.289 299.874 201.069 299.704C204.85 299.533 208.553 298.576 211.943 296.895C215.334 295.214 218.337 292.846 220.761 289.94L311.595 180.94Z" fill="#FFE500" fill-opacity="0.5"/>
</svg>
