<svg width="1040" height="970" viewBox="0 0 1040 970" fill="none" xmlns="http://www.w3.org/2000/svg">
<path d="M37.1006 884.241C30.4606 884.241 25.3146 882.415 21.6626 878.763C18.1766 875.111 16.4336 869.965 16.4336 863.325V725.13C16.4336 718.324 18.3426 713.178 22.1606 709.692C25.9786 706.04 31.3736 704.214 38.3456 704.214C44.1556 704.214 48.7206 705.376 52.0406 707.7C55.5266 709.858 58.6806 713.51 61.5026 718.656L115.038 814.77H106.323L159.609 718.656C162.597 713.51 165.751 709.858 169.071 707.7C172.557 705.376 177.205 704.214 183.015 704.214C189.655 704.214 194.718 706.04 198.204 709.692C201.856 713.178 203.682 718.324 203.682 725.13V863.325C203.682 869.965 201.939 875.111 198.453 878.763C194.967 882.415 189.821 884.241 183.015 884.241C176.375 884.241 171.229 882.415 167.577 878.763C164.091 875.111 162.348 869.965 162.348 863.325V777.669H167.577L127.488 847.389C125.164 851.041 122.674 853.78 120.018 855.606C117.528 857.432 114.125 858.345 109.809 858.345C105.659 858.345 102.256 857.432 99.5996 855.606C96.9436 853.78 94.5366 851.041 92.3786 847.389L52.0406 777.42H57.7676V863.325C57.7676 869.965 56.0246 875.111 52.5386 878.763C49.0526 882.415 43.9066 884.241 37.1006 884.241ZM268.618 929.061C263.472 929.061 259.322 927.733 256.168 925.077C253.014 922.421 251.022 918.935 250.192 914.619C249.528 910.303 250.275 905.738 252.433 900.924L269.116 864.819V882.747L226.537 785.388C224.379 780.408 223.632 775.76 224.296 771.444C225.126 767.128 227.367 763.725 231.019 761.235C234.671 758.579 239.651 757.251 245.959 757.251C251.271 757.251 255.504 758.496 258.658 760.986C261.978 763.31 264.966 767.958 267.622 774.93L292.522 839.67H284.056L310.45 774.681C313.106 767.875 316.094 763.31 319.414 760.986C322.9 758.496 327.548 757.251 333.358 757.251C338.338 757.251 342.322 758.579 345.31 761.235C348.298 763.725 350.124 767.128 350.788 771.444C351.452 775.76 350.705 780.408 348.547 785.388L292.024 912.378C289.036 919.018 285.716 923.417 282.064 925.575C278.578 927.899 274.096 929.061 268.618 929.061ZM465.863 882C458.061 882 452.085 880.008 447.935 876.024C443.951 871.874 441.959 865.981 441.959 858.345V730.11C441.959 722.474 443.951 716.664 447.935 712.68C452.085 708.53 458.061 706.455 465.863 706.455H526.619C539.235 706.455 549.942 708.364 558.74 712.182C567.704 715.834 574.51 721.063 579.158 727.869C583.806 734.675 586.13 742.643 586.13 751.773C586.13 762.065 583.142 770.863 577.166 778.167C571.356 785.471 563.388 790.451 553.262 793.107V789.123C565.214 791.281 574.427 796.095 580.901 803.565C587.541 811.035 590.861 820.58 590.861 832.2C590.861 847.638 585.3 859.839 574.178 868.803C563.222 877.601 548.199 882 529.109 882H465.863ZM485.783 848.385H522.884C531.35 848.385 537.492 846.808 541.31 843.654C545.294 840.334 547.286 835.437 547.286 828.963C547.286 822.489 545.294 817.675 541.31 814.521C537.492 811.367 531.35 809.79 522.884 809.79H485.783V848.385ZM485.783 776.175H518.402C526.702 776.175 532.761 774.681 536.579 771.693C540.563 768.705 542.555 764.14 542.555 757.998C542.555 751.856 540.563 747.374 536.579 744.552C532.761 741.564 526.702 740.07 518.402 740.07H485.783V776.175ZM675.807 884.739C662.195 884.739 650.326 882.166 640.2 877.02C630.074 871.874 622.189 864.487 616.545 854.859C610.901 845.231 608.079 833.86 608.079 820.746C608.079 810.786 609.656 801.905 612.81 794.103C615.964 786.135 620.529 779.412 626.505 773.934C632.481 768.29 639.619 764.057 647.919 761.235C656.219 758.247 665.515 756.753 675.807 756.753C689.419 756.753 701.288 759.326 711.414 764.472C721.54 769.618 729.342 777.005 734.82 786.633C740.464 796.095 743.286 807.466 743.286 820.746C743.286 830.54 741.709 839.421 738.555 847.389C735.401 855.357 730.836 862.163 724.86 867.807C719.05 873.285 711.912 877.518 703.446 880.506C695.146 883.328 685.933 884.739 675.807 884.739ZM675.807 852.12C680.289 852.12 684.273 851.041 687.759 848.883C691.245 846.559 693.901 843.156 695.727 838.674C697.719 834.026 698.715 828.05 698.715 820.746C698.715 809.624 696.557 801.656 692.241 796.842C687.925 791.862 682.447 789.372 675.807 789.372C671.325 789.372 667.341 790.451 663.855 792.609C660.369 794.767 657.63 798.17 655.638 802.818C653.646 807.3 652.65 813.276 652.65 820.746C652.65 831.702 654.808 839.67 659.124 844.65C663.44 849.63 669.001 852.12 675.807 852.12ZM811.403 884.739C800.945 884.739 791.649 882.166 783.515 877.02C775.547 871.874 769.239 864.487 764.591 854.859C760.109 845.231 757.868 833.86 757.868 820.746C757.868 807.3 760.109 795.846 764.591 786.384C769.239 776.922 775.547 769.618 783.515 764.472C791.649 759.326 800.945 756.753 811.403 756.753C820.533 756.753 828.75 758.911 836.054 763.227C843.358 767.543 848.255 773.104 850.745 779.91H848.006V726.624C848.006 719.32 849.915 713.759 853.733 709.941C857.551 706.123 863.029 704.214 870.167 704.214C877.139 704.214 882.534 706.123 886.352 709.941C890.336 713.759 892.328 719.32 892.328 726.624V861.831C892.328 869.135 890.419 874.696 886.601 878.514C882.949 882.332 877.554 884.241 870.416 884.241C863.444 884.241 858.049 882.332 854.231 878.514C850.413 874.696 848.504 869.135 848.504 861.831V847.638L851.243 859.839C848.919 867.309 844.022 873.368 836.552 878.016C829.248 882.498 820.865 884.739 811.403 884.739ZM825.596 852.12C830.078 852.12 834.062 851.041 837.548 848.883C841.034 846.559 843.69 843.156 845.516 838.674C847.508 834.026 848.504 828.05 848.504 820.746C848.504 809.624 846.346 801.656 842.03 796.842C837.714 791.862 832.236 789.372 825.596 789.372C821.114 789.372 817.13 790.451 813.644 792.609C810.158 794.767 807.419 798.17 805.427 802.818C803.435 807.3 802.439 813.276 802.439 820.746C802.439 831.702 804.597 839.67 808.913 844.65C813.229 849.63 818.79 852.12 825.596 852.12ZM953.612 929.061C948.466 929.061 944.316 927.733 941.162 925.077C938.008 922.421 936.016 918.935 935.186 914.619C934.522 910.303 935.269 905.738 937.427 900.924L954.11 864.819V882.747L911.531 785.388C909.373 780.408 908.626 775.76 909.29 771.444C910.12 767.128 912.361 763.725 916.013 761.235C919.665 758.579 924.645 757.251 930.953 757.251C936.265 757.251 940.498 758.496 943.652 760.986C946.972 763.31 949.96 767.958 952.616 774.93L977.516 839.67H969.05L995.444 774.681C998.1 767.875 1001.09 763.31 1004.41 760.986C1007.89 758.496 1012.54 757.251 1018.35 757.251C1023.33 757.251 1027.32 758.579 1030.3 761.235C1033.29 763.725 1035.12 767.128 1035.78 771.444C1036.45 775.76 1035.7 780.408 1033.54 785.388L977.018 912.378C974.03 919.018 970.71 923.417 967.058 925.575C963.572 927.899 959.09 929.061 953.612 929.061Z" fill="#008F12"/>
<path fill-rule="evenodd" clip-rule="evenodd" d="M771.396 76.3325C771.396 76.3325 838.725 210.991 755.422 355.256C714.655 425.825 660.74 477.895 611.872 501.443C572.086 520.583 534.635 521.45 505.886 504.871C477.14 488.256 459.167 455.401 455.851 411.357C451.82 357.29 469.943 284.536 510.672 213.967C593.976 69.7004 744.27 60.6587 744.27 60.6587C749.836 60.2885 755.386 61.5811 760.216 64.3719C765.046 67.1627 768.938 71.3252 771.396 76.3325Z" fill="#008F12"/>
<path fill-rule="evenodd" clip-rule="evenodd" d="M359.248 504.871C327.977 496.054 294.971 482.265 262.418 463.501C123.729 383.4 115.063 238.945 115.063 238.945C114.69 233.375 115.981 227.818 118.772 222.982C121.562 218.145 125.727 214.247 130.736 211.781C130.736 211.781 158.165 198.368 201.381 191.322C199.445 255.408 215.583 318.747 247.95 374.094C279.9 429.478 319.574 474.239 359.248 504.871ZM834.544 190.38C880.133 197.124 909.295 211.781 909.295 211.781C914.305 214.247 918.469 218.145 921.26 222.982C924.051 227.818 925.342 233.375 924.968 238.945C924.968 238.945 916.303 383.4 777.614 463.501C742.876 483.545 707.609 497.9 674.491 506.604C714.882 475.897 755.46 430.533 788.051 374.094C820.55 318.459 836.667 254.775 834.544 190.38ZM437.842 71.9995C470.433 27.087 504.342 4.74533 504.342 4.74533C508.984 1.65107 514.437 0 520.016 0C525.594 0 531.048 1.65107 535.69 4.74533C535.69 4.74533 568.77 26.5222 600.946 70.3035C569.806 88.7032 541.798 111.954 517.981 139.177C494.903 112.775 467.868 90.1129 437.842 71.9995Z" fill="#008F12"/>
<path fill-rule="evenodd" clip-rule="evenodd" d="M457.172 513.309C445.741 510.585 434.648 506.604 424.092 501.442C375.224 477.892 321.31 425.824 280.58 355.255C197.276 210.988 264.567 76.3301 264.567 76.3301C267.033 71.3212 270.932 67.1572 275.769 64.3663C280.606 61.5755 286.162 60.2845 291.732 60.6563C291.732 60.6563 409.511 67.7409 494.323 169.506C488.538 177.813 483.107 186.362 478.046 195.126C432.909 273.343 413.807 354.237 418.29 414.181C421.417 455.852 435.508 489.461 457.172 513.309Z" fill="#008F12"/>
</svg>
