<svg width="512" height="512" viewBox="0 0 512 512" fill="none" xmlns="http://www.w3.org/2000/svg">
<g clip-path="url(#clip0_377_149)">
<path fill-rule="evenodd" clip-rule="evenodd" d="M107.901 0C48.3089 0 0 48.3089 0 107.901V404.099C0 463.691 48.3089 512 107.901 512H404.099C463.691 512 512 463.691 512 404.099V107.901C512 48.3089 463.691 0 404.099 0H107.901ZM362.467 299.574C400.121 234.367 369.688 173.501 369.688 173.501C368.577 171.239 366.817 169.357 364.635 168.096C362.452 166.835 359.942 166.25 357.427 166.418C357.427 166.418 289.495 170.504 251.842 235.711C233.433 267.609 225.242 300.493 227.064 324.932C228.563 344.839 236.686 359.69 249.679 367.199C262.673 374.692 279.601 374.301 297.584 365.649C319.672 355.005 344.042 331.47 362.467 299.574ZM183.399 367.199C169.264 363.214 154.346 356.981 139.632 348.501C76.9452 312.295 73.0283 247.002 73.0283 247.002C72.86 244.484 73.4436 241.973 74.7048 239.786C75.9661 237.601 77.8484 235.838 80.1128 234.723C80.1128 234.723 92.5105 228.661 112.043 225.477C111.169 254.444 118.462 283.071 133.093 308.089C147.534 333.123 165.466 353.354 183.399 367.199ZM398.23 225.05C418.836 228.099 432.017 234.723 432.017 234.723C434.282 235.838 436.164 237.601 437.426 239.786C438.687 241.973 439.27 244.484 439.101 247.002C439.101 247.002 435.185 312.295 372.498 348.501C356.796 357.56 340.857 364.048 325.887 367.982C344.143 354.103 362.484 333.599 377.215 308.089C391.905 282.942 399.19 254.157 398.23 225.05ZM218.923 171.543C233.654 151.243 248.981 141.145 248.981 141.145C251.079 139.746 253.544 139 256.065 139C258.586 139 261.051 139.746 263.149 141.145C263.149 141.145 278.102 150.988 292.645 170.776C278.569 179.094 265.911 189.603 255.145 201.907C244.715 189.973 232.495 179.73 218.923 171.543ZM212.707 365.648C217.478 367.983 222.493 369.781 227.659 371.013C217.868 360.233 211.498 345.043 210.085 326.207C208.058 299.114 216.692 262.55 237.094 227.196C239.382 223.234 241.836 219.371 244.451 215.617C206.117 169.618 152.882 166.417 152.882 166.417C150.363 166.249 147.852 166.832 145.666 168.094C143.48 169.355 141.717 171.237 140.603 173.501C140.603 173.501 110.188 234.366 147.841 299.573C166.25 331.47 190.62 355.005 212.707 365.648Z" fill="#008F12"/>
</g>
<defs>
<clipPath id="clip0_377_149">
<rect width="512" height="512" fill="white"/>
</clipPath>
</defs>
</svg>
