<svg width="1742" height="512" viewBox="0 0 1742 512" fill="none" xmlns="http://www.w3.org/2000/svg">
<path fill-rule="evenodd" clip-rule="evenodd" d="M107.901 0C48.3089 0 0 48.3089 0 107.901V404.099C0 463.691 48.3089 512 107.901 512H404.099C463.691 512 512 463.691 512 404.099V107.901C512 48.3089 463.691 0 404.099 0H107.901ZM362.467 299.574C400.121 234.367 369.688 173.501 369.688 173.501C368.577 171.239 366.817 169.357 364.635 168.096C362.452 166.835 359.942 166.25 357.427 166.418C357.427 166.418 289.495 170.504 251.842 235.711C233.433 267.609 225.242 300.493 227.064 324.932C228.562 344.839 236.686 359.69 249.679 367.199C262.673 374.692 279.601 374.301 297.584 365.649C319.672 355.005 344.042 331.47 362.467 299.574ZM183.399 367.199C169.264 363.214 154.346 356.981 139.632 348.501C76.9452 312.295 73.0283 247.002 73.0283 247.002C72.86 244.484 73.4435 241.973 74.7048 239.786C75.9661 237.601 77.8484 235.838 80.1128 234.723C80.1128 234.723 92.5105 228.661 112.043 225.477C111.169 254.444 118.462 283.071 133.092 308.089C147.534 333.123 165.466 353.354 183.399 367.199ZM398.23 225.05C418.836 228.099 432.017 234.723 432.017 234.723C434.282 235.838 436.164 237.601 437.426 239.786C438.687 241.973 439.27 244.484 439.101 247.002C439.101 247.002 435.185 312.295 372.498 348.501C356.796 357.56 340.857 364.048 325.887 367.982C344.143 354.103 362.484 333.599 377.215 308.089C391.905 282.942 399.19 254.157 398.23 225.05ZM218.923 171.543C233.654 151.243 248.981 141.145 248.981 141.145C251.079 139.746 253.544 139 256.065 139C258.586 139 261.051 139.746 263.149 141.145C263.149 141.145 278.102 150.988 292.645 170.776C278.569 179.094 265.911 189.603 255.145 201.907C244.715 189.973 232.495 179.73 218.923 171.543ZM212.707 365.648C217.478 367.983 222.493 369.781 227.659 371.013C217.868 360.233 211.498 345.043 210.085 326.207C208.058 299.114 216.692 262.55 237.094 227.196C239.382 223.234 241.836 219.371 244.451 215.617C206.117 169.618 152.882 166.417 152.882 166.417C150.363 166.249 147.852 166.832 145.666 168.094C143.48 169.355 141.717 171.236 140.603 173.501C140.603 173.501 110.188 234.366 147.841 299.573C166.25 331.47 190.619 355.005 212.707 365.648Z" fill="#008F12"/>
<path d="M680.304 342.998C673.28 342.998 667.836 341.067 663.973 337.204C660.285 333.34 658.441 327.897 658.441 320.872V174.683C658.441 167.483 660.461 162.039 664.5 158.352C668.539 154.488 674.246 152.557 681.621 152.557C687.767 152.557 692.596 153.786 696.108 156.244C699.796 158.527 703.132 162.39 706.118 167.834L762.75 269.508H753.531L809.899 167.834C813.06 162.39 816.397 158.527 819.909 156.244C823.596 153.786 828.513 152.557 834.659 152.557C841.683 152.557 847.039 154.488 850.727 158.352C854.59 162.039 856.522 167.483 856.522 174.683V320.872C856.522 327.897 854.678 333.34 850.99 337.204C847.303 341.067 841.859 342.998 834.659 342.998C827.635 342.998 822.191 341.067 818.328 337.204C814.641 333.34 812.797 327.897 812.797 320.872V230.261H818.328L775.92 304.014C773.462 307.878 770.827 310.775 768.018 312.707C765.384 314.638 761.784 315.604 757.218 315.604C752.828 315.604 749.228 314.638 746.419 312.707C743.609 310.775 741.063 307.878 738.78 304.014L696.108 229.998H702.167V320.872C702.167 327.897 700.323 333.34 696.635 337.204C692.947 341.067 687.504 342.998 680.304 342.998ZM925.215 390.411C919.771 390.411 915.381 389.006 912.044 386.197C908.708 383.387 906.601 379.699 905.723 375.134C905.02 370.568 905.81 365.739 908.093 360.647L925.741 322.453V341.418L880.699 238.427C878.416 233.159 877.626 228.242 878.328 223.676C879.206 219.11 881.577 215.51 885.44 212.876C889.304 210.067 894.572 208.662 901.245 208.662C906.864 208.662 911.342 209.979 914.678 212.613C918.19 215.071 921.351 219.988 924.161 227.364L950.501 295.849H941.546L969.467 227.1C972.276 219.9 975.437 215.071 978.949 212.613C982.637 209.979 987.554 208.662 993.7 208.662C998.968 208.662 1003.18 210.067 1006.34 212.876C1009.5 215.51 1011.44 219.11 1012.14 223.676C1012.84 228.242 1012.05 233.159 1009.77 238.427L949.975 372.763C946.814 379.787 943.302 384.441 939.438 386.724C935.751 389.182 931.009 390.411 925.215 390.411ZM1133.87 340.628C1125.62 340.628 1119.3 338.521 1114.91 334.306C1110.69 329.916 1108.58 323.682 1108.58 315.604V179.951C1108.58 171.873 1110.69 165.727 1114.91 161.512C1119.3 157.122 1125.62 154.927 1133.87 154.927H1198.14C1211.49 154.927 1222.81 156.947 1232.12 160.986C1241.6 164.849 1248.8 170.38 1253.72 177.58C1258.64 184.78 1261.09 193.209 1261.09 202.867C1261.09 213.754 1257.93 223.061 1251.62 230.788C1245.47 238.514 1237.04 243.783 1226.32 246.592V242.378C1238.96 244.661 1248.72 249.753 1255.56 257.655C1262.59 265.557 1266.1 275.655 1266.1 287.947C1266.1 304.278 1260.22 317.185 1248.45 326.667C1236.86 335.974 1220.97 340.628 1200.78 340.628H1133.87ZM1154.94 305.068H1194.19C1203.15 305.068 1209.64 303.4 1213.68 300.063C1217.89 296.551 1220.01 291.371 1220.01 284.523C1220.01 277.674 1217.89 272.581 1213.68 269.245C1209.64 265.909 1203.15 264.24 1194.19 264.24H1154.94V305.068ZM1154.94 228.681H1189.45C1198.23 228.681 1204.64 227.1 1208.68 223.939C1212.89 220.779 1215 215.949 1215 209.452C1215 202.955 1212.89 198.213 1208.68 195.228C1204.64 192.067 1198.23 190.487 1189.45 190.487H1154.94V228.681ZM1355.96 343.525C1341.57 343.525 1329.01 340.803 1318.29 335.36C1307.58 329.916 1299.24 322.102 1293.27 311.917C1287.3 301.732 1284.31 289.703 1284.31 275.83C1284.31 265.294 1285.99 255.899 1289.32 247.646C1292.65 239.217 1297.49 232.105 1303.81 226.31C1310.13 220.34 1317.68 215.862 1326.46 212.876C1335.24 209.716 1345.08 208.135 1355.96 208.135C1370.36 208.135 1382.92 210.857 1393.62 216.301C1404.34 221.744 1412.59 229.559 1418.39 239.744C1424.35 249.753 1427.35 261.782 1427.35 275.83C1427.35 286.191 1425.68 295.586 1422.34 304.014C1419 312.443 1414.18 319.643 1407.85 325.614C1401.7 331.409 1394.15 335.886 1385.2 339.047C1376.42 342.033 1366.67 343.525 1355.96 343.525ZM1355.96 309.019C1360.7 309.019 1364.91 307.878 1368.6 305.595C1372.3 303.136 1375.1 299.537 1377.04 294.795C1379.14 289.878 1380.2 283.557 1380.2 275.83C1380.2 264.065 1377.91 255.636 1373.34 250.543C1368.78 245.275 1362.99 242.641 1355.96 242.641C1351.22 242.641 1347 243.783 1343.32 246.065C1339.63 248.348 1336.73 251.948 1334.63 256.865C1332.52 261.606 1331.46 267.928 1331.46 275.83C1331.46 287.42 1333.75 295.849 1338.31 301.117C1342.88 306.385 1348.76 309.019 1355.96 309.019ZM1499.4 343.525C1488.34 343.525 1478.5 340.803 1469.9 335.36C1461.47 329.916 1454.8 322.102 1449.88 311.917C1445.14 301.732 1442.77 289.703 1442.77 275.83C1442.77 261.606 1445.14 249.49 1449.88 239.48C1454.8 229.471 1461.47 221.744 1469.9 216.301C1478.5 210.857 1488.34 208.135 1499.4 208.135C1509.06 208.135 1517.75 210.418 1525.47 214.984C1533.21 219.549 1538.39 225.432 1541.02 232.632H1538.13V176.263C1538.13 168.537 1540.15 162.654 1544.18 158.615C1548.22 154.576 1554.01 152.557 1561.57 152.557C1568.94 152.557 1574.64 154.576 1578.68 158.615C1582.9 162.654 1585.01 168.537 1585.01 176.263V319.292C1585.01 327.019 1582.99 332.901 1578.95 336.94C1575.09 340.979 1569.37 342.998 1561.83 342.998C1554.45 342.998 1548.75 340.979 1544.7 336.94C1540.66 332.901 1538.64 327.019 1538.64 319.292V304.278L1541.54 317.185C1539.09 325.087 1533.9 331.496 1526 336.413C1518.28 341.155 1509.41 343.525 1499.4 343.525ZM1514.42 309.019C1519.16 309.019 1523.37 307.878 1527.06 305.595C1530.74 303.136 1533.56 299.537 1535.49 294.795C1537.6 289.878 1538.64 283.557 1538.64 275.83C1538.64 264.065 1536.37 255.636 1531.8 250.543C1527.23 245.275 1521.44 242.641 1514.42 242.641C1509.67 242.641 1505.46 243.783 1501.77 246.065C1498.09 248.348 1495.19 251.948 1493.08 256.865C1490.98 261.606 1489.92 267.928 1489.92 275.83C1489.92 287.42 1492.2 295.849 1496.76 301.117C1501.33 306.385 1507.21 309.019 1514.42 309.019ZM1649.83 390.411C1644.4 390.411 1640.01 389.006 1636.66 386.197C1633.33 383.387 1631.23 379.699 1630.35 375.134C1629.64 370.568 1630.43 365.739 1632.72 360.647L1650.36 322.453V341.418L1605.32 238.427C1603.03 233.159 1602.25 228.242 1602.95 223.676C1603.83 219.11 1606.2 215.51 1610.06 212.876C1613.92 210.067 1619.19 208.662 1625.86 208.662C1631.48 208.662 1635.97 209.979 1639.3 212.613C1642.81 215.071 1645.97 219.988 1648.79 227.364L1675.13 295.849H1666.17L1694.08 227.1C1696.9 219.9 1700.06 215.071 1703.57 212.613C1707.25 209.979 1712.17 208.662 1718.32 208.662C1723.59 208.662 1727.81 210.067 1730.96 212.876C1734.12 215.51 1736.06 219.11 1736.76 223.676C1737.47 228.242 1736.67 233.159 1734.39 238.427L1674.6 372.763C1671.44 379.787 1667.92 384.441 1664.06 386.724C1660.37 389.182 1655.63 390.411 1649.83 390.411Z" fill="#008F12"/>
</svg>
