<svg width="1719" height="344" viewBox="0 0 1719 344" fill="none" xmlns="http://www.w3.org/2000/svg">
<path d="M715.763 256.241C709.123 256.241 703.977 254.415 700.325 250.763C696.839 247.111 695.096 241.965 695.096 235.325V97.1299C695.096 90.3239 697.005 85.1779 700.823 81.6919C704.641 78.0399 710.036 76.2139 717.008 76.2139C722.818 76.2139 727.383 77.3759 730.703 79.6999C734.189 81.8579 737.343 85.5099 740.165 90.6559L793.7 186.77H784.985L838.271 90.6559C841.259 85.5099 844.413 81.8579 847.733 79.6999C851.219 77.3759 855.867 76.2139 861.677 76.2139C868.317 76.2139 873.38 78.0399 876.866 81.6919C880.518 85.1779 882.344 90.3239 882.344 97.1299V235.325C882.344 241.965 880.601 247.111 877.115 250.763C873.629 254.415 868.483 256.241 861.677 256.241C855.037 256.241 849.891 254.415 846.239 250.763C842.753 247.111 841.01 241.965 841.01 235.325V149.669H846.239L806.15 219.389C803.826 223.041 801.336 225.78 798.68 227.606C796.19 229.432 792.787 230.345 788.471 230.345C784.321 230.345 780.918 229.432 778.262 227.606C775.606 225.78 773.199 223.041 771.041 219.389L730.703 149.42H736.43V235.325C736.43 241.965 734.687 247.111 731.201 250.763C727.715 254.415 722.569 256.241 715.763 256.241ZM947.281 301.061C942.135 301.061 937.985 299.733 934.831 297.077C931.677 294.421 929.685 290.935 928.855 286.619C928.191 282.303 928.938 277.738 931.096 272.924L947.779 236.819V254.747L905.2 157.388C903.042 152.408 902.295 147.76 902.959 143.444C903.789 139.128 906.03 135.725 909.682 133.235C913.334 130.579 918.314 129.251 924.622 129.251C929.934 129.251 934.167 130.496 937.321 132.986C940.641 135.31 943.629 139.958 946.285 146.93L971.185 211.67H962.719L989.113 146.681C991.769 139.875 994.757 135.31 998.077 132.986C1001.56 130.496 1006.21 129.251 1012.02 129.251C1017 129.251 1020.98 130.579 1023.97 133.235C1026.96 135.725 1028.79 139.128 1029.45 143.444C1030.11 147.76 1029.37 152.408 1027.21 157.388L970.687 284.378C967.699 291.018 964.379 295.417 960.727 297.575C957.241 299.899 952.759 301.061 947.281 301.061ZM1144.53 254C1136.72 254 1130.75 252.008 1126.6 248.024C1122.61 243.874 1120.62 237.981 1120.62 230.345V102.11C1120.62 94.4739 1122.61 88.6639 1126.6 84.6799C1130.75 80.5299 1136.72 78.4549 1144.53 78.4549H1205.28C1217.9 78.4549 1228.6 80.3639 1237.4 84.1819C1246.37 87.8339 1253.17 93.0629 1257.82 99.8689C1262.47 106.675 1264.79 114.643 1264.79 123.773C1264.79 134.065 1261.8 142.863 1255.83 150.167C1250.02 157.471 1242.05 162.451 1231.92 165.107V161.123C1243.88 163.281 1253.09 168.095 1259.56 175.565C1266.2 183.035 1269.52 192.58 1269.52 204.2C1269.52 219.638 1263.96 231.839 1252.84 240.803C1241.88 249.601 1226.86 254 1207.77 254H1144.53ZM1164.45 220.385H1201.55C1210.01 220.385 1216.15 218.808 1219.97 215.654C1223.96 212.334 1225.95 207.437 1225.95 200.963C1225.95 194.489 1223.96 189.675 1219.97 186.521C1216.15 183.367 1210.01 181.79 1201.55 181.79H1164.45V220.385ZM1164.45 148.175H1197.06C1205.36 148.175 1211.42 146.681 1215.24 143.693C1219.23 140.705 1221.22 136.14 1221.22 129.998C1221.22 123.856 1219.23 119.374 1215.24 116.552C1211.42 113.564 1205.36 112.07 1197.06 112.07H1164.45V148.175ZM1354.47 256.739C1340.86 256.739 1328.99 254.166 1318.86 249.02C1308.74 243.874 1300.85 236.487 1295.21 226.859C1289.56 217.231 1286.74 205.86 1286.74 192.746C1286.74 182.786 1288.32 173.905 1291.47 166.103C1294.63 158.135 1299.19 151.412 1305.17 145.934C1311.14 140.29 1318.28 136.057 1326.58 133.235C1334.88 130.247 1344.18 128.753 1354.47 128.753C1368.08 128.753 1379.95 131.326 1390.08 136.472C1400.2 141.618 1408 149.005 1413.48 158.633C1419.13 168.095 1421.95 179.466 1421.95 192.746C1421.95 202.54 1420.37 211.421 1417.22 219.389C1414.06 227.357 1409.5 234.163 1403.52 239.807C1397.71 245.285 1390.57 249.518 1382.11 252.506C1373.81 255.328 1364.6 256.739 1354.47 256.739ZM1354.47 224.12C1358.95 224.12 1362.94 223.041 1366.42 220.883C1369.91 218.559 1372.56 215.156 1374.39 210.674C1376.38 206.026 1377.38 200.05 1377.38 192.746C1377.38 181.624 1375.22 173.656 1370.9 168.842C1366.59 163.862 1361.11 161.372 1354.47 161.372C1349.99 161.372 1346 162.451 1342.52 164.609C1339.03 166.767 1336.29 170.17 1334.3 174.818C1332.31 179.3 1331.31 185.276 1331.31 192.746C1331.31 203.702 1333.47 211.67 1337.79 216.65C1342.1 221.63 1347.66 224.12 1354.47 224.12ZM1490.07 256.739C1479.61 256.739 1470.31 254.166 1462.18 249.02C1454.21 243.874 1447.9 236.487 1443.25 226.859C1438.77 217.231 1436.53 205.86 1436.53 192.746C1436.53 179.3 1438.77 167.846 1443.25 158.384C1447.9 148.922 1454.21 141.618 1462.18 136.472C1470.31 131.326 1479.61 128.753 1490.07 128.753C1499.2 128.753 1507.41 130.911 1514.72 135.227C1522.02 139.543 1526.92 145.104 1529.41 151.91H1526.67V98.6239C1526.67 91.3199 1528.58 85.7589 1532.4 81.9409C1536.21 78.1229 1541.69 76.2139 1548.83 76.2139C1555.8 76.2139 1561.2 78.1229 1565.01 81.9409C1569 85.7589 1570.99 91.3199 1570.99 98.6239V233.831C1570.99 241.135 1569.08 246.696 1565.26 250.514C1561.61 254.332 1556.22 256.241 1549.08 256.241C1542.11 256.241 1536.71 254.332 1532.89 250.514C1529.08 246.696 1527.17 241.135 1527.17 233.831V219.638L1529.91 231.839C1527.58 239.309 1522.68 245.368 1515.21 250.016C1507.91 254.498 1499.53 256.739 1490.07 256.739ZM1504.26 224.12C1508.74 224.12 1512.72 223.041 1516.21 220.883C1519.7 218.559 1522.35 215.156 1524.18 210.674C1526.17 206.026 1527.17 200.05 1527.17 192.746C1527.17 181.624 1525.01 173.656 1520.69 168.842C1516.38 163.862 1510.9 161.372 1504.26 161.372C1499.78 161.372 1495.79 162.451 1492.31 164.609C1488.82 166.767 1486.08 170.17 1484.09 174.818C1482.1 179.3 1481.1 185.276 1481.1 192.746C1481.1 203.702 1483.26 211.67 1487.58 216.65C1491.89 221.63 1497.45 224.12 1504.26 224.12ZM1632.27 301.061C1627.13 301.061 1622.98 299.733 1619.82 297.077C1616.67 294.421 1614.68 290.935 1613.85 286.619C1613.18 282.303 1613.93 277.738 1616.09 272.924L1632.77 236.819V254.747L1590.19 157.388C1588.03 152.408 1587.29 147.76 1587.95 143.444C1588.78 139.128 1591.02 135.725 1594.67 133.235C1598.33 130.579 1603.31 129.251 1609.61 129.251C1614.93 129.251 1619.16 130.496 1622.31 132.986C1625.63 135.31 1628.62 139.958 1631.28 146.93L1656.18 211.67H1647.71L1674.11 146.681C1676.76 139.875 1679.75 135.31 1683.07 132.986C1686.56 130.496 1691.2 129.251 1697.01 129.251C1701.99 129.251 1705.98 130.579 1708.97 133.235C1711.95 135.725 1713.78 139.128 1714.44 143.444C1715.11 147.76 1714.36 152.408 1712.2 157.388L1655.68 284.378C1652.69 291.018 1649.37 295.417 1645.72 297.575C1642.23 299.899 1637.75 301.061 1632.27 301.061Z" fill="#008F12"/>
<path fill-rule="evenodd" clip-rule="evenodd" d="M436.769 50.792C436.769 50.792 481.57 140.394 426.14 236.389C399.013 283.346 363.138 317.994 330.621 333.663C304.147 346.399 279.226 346.976 260.097 335.944C240.969 324.888 229.01 303.026 226.803 273.719C224.121 237.743 236.18 189.332 263.282 142.375C318.712 46.3789 418.719 40.3626 418.719 40.3626C422.422 40.1162 426.115 40.9763 429.329 42.8333C432.543 44.6904 435.133 47.4601 436.769 50.792Z" fill="#008F12"/>
<path fill-rule="evenodd" clip-rule="evenodd" d="M162.524 335.944C141.716 330.078 119.754 320.902 98.0927 308.417C5.808 255.117 0.0417741 158.996 0.0417741 158.996C-0.20606 155.289 0.65294 151.592 2.50978 148.373C4.36662 145.155 7.13759 142.561 10.4711 140.92C10.4711 140.92 28.7225 131.995 57.4784 127.307C56.19 169.95 66.9285 212.097 88.4656 248.924C109.725 285.777 136.125 315.561 162.524 335.944ZM478.789 126.68C509.125 131.168 528.529 140.92 528.529 140.92C531.863 142.561 534.633 145.155 536.49 148.373C538.347 151.592 539.207 155.289 538.958 158.996C538.958 158.996 533.192 255.117 440.907 308.417C417.793 321.754 394.326 331.306 372.289 337.097C399.165 316.665 426.166 286.48 447.852 248.924C469.478 211.905 480.202 169.529 478.789 126.68ZM214.821 47.9089C236.507 18.0239 259.071 3.15757 259.071 3.15757C262.159 1.09863 265.788 0 269.5 0C273.212 0 276.841 1.09863 279.93 3.15757C279.93 3.15757 301.941 17.648 323.352 46.7804C302.631 59.0237 283.994 74.4947 268.146 92.6091C252.79 75.041 234.801 59.9617 214.821 47.9089Z" fill="#008F12"/>
<path fill-rule="evenodd" clip-rule="evenodd" d="M227.683 341.559C220.077 339.746 212.695 337.097 205.671 333.662C173.154 317.992 137.279 283.346 110.177 236.389C54.7464 140.393 99.5224 50.7904 99.5224 50.7904C101.163 47.4575 103.757 44.6867 106.976 42.8296C110.194 40.9726 113.891 40.1136 117.598 40.361C117.598 40.361 195.969 45.0751 252.403 112.79C248.554 118.318 244.94 124.006 241.572 129.838C211.538 181.884 198.827 235.712 201.811 275.599C203.891 303.327 213.267 325.69 227.683 341.559Z" fill="#008F12"/>
</svg>
