<svg width="1787" height="344" viewBox="0 0 1787 344" fill="none" xmlns="http://www.w3.org/2000/svg">
<circle cx="172.128" cy="172.086" r="169.352" fill="#FFE500"/>
<path d="M156.359 0.431933C154.94 0.647094 152.316 0.99135 150.552 1.24954C145.003 1.93806 139.11 3.01386 131.625 4.69211C130.808 4.86424 128.571 5.46669 126.679 5.98307C124.786 6.49946 122.764 7.05887 122.162 7.18797C121.56 7.27403 120.915 7.53223 120.657 7.70435C120.442 7.87648 119.538 8.17771 118.721 8.34983C117.904 8.52196 116.957 8.82319 116.57 9.03835C116.226 9.21048 114.764 9.76989 113.344 10.2432C108.957 11.6633 102.59 14.4174 95.9231 17.7739C88.7827 21.3886 87.7503 21.948 84.2231 24.1426C82.3735 25.2614 80.7819 26.2081 80.6529 26.2081C80.4808 26.2081 76.5234 28.8331 76.1363 29.2204C76.0073 29.3495 74.7598 30.2101 73.3403 31.1568C71.9208 32.1035 70.6734 32.9642 70.5444 33.0933C70.4153 33.2224 69.0388 34.2982 67.4473 35.46C65.8127 36.6219 64.5223 37.6977 64.5223 37.9129C64.5223 38.085 64.3072 38.2571 64.0491 38.2571C63.791 38.2571 63.0168 38.8165 62.2855 39.5481C61.5973 40.2366 60.823 40.839 60.6079 40.839C60.0918 40.839 40.8641 60.0744 40.8641 60.5908C40.8641 60.8059 40.3049 61.5805 39.5737 62.269C38.8854 63.0006 38.2832 63.7751 38.2832 64.0333C38.2832 64.2915 38.1112 64.5067 37.9391 64.5067C37.724 64.5067 36.6487 65.7977 35.4873 67.3898C34.3259 69.0251 33.2505 70.4021 33.1214 70.5312C32.9924 70.6603 32.1321 71.9082 31.1858 73.3283C30.2394 74.7483 29.2931 76.1253 29.035 76.3835C28.82 76.6417 28.2177 77.5454 27.7446 78.406C27.2714 79.2667 26.7552 79.9982 26.5832 79.9982C26.3681 79.9982 26.2391 80.2995 26.2391 80.6437C26.2391 80.988 26.067 81.2892 25.8089 81.2892C25.5938 81.2892 25.3788 81.5044 25.3788 81.7626C25.3788 82.0207 24.5185 83.656 23.4431 85.3342C22.3677 87.0555 21.5074 88.6907 21.5074 88.9489C21.5074 89.2501 21.3354 89.4653 21.1203 89.4653C20.9052 89.4653 20.6041 89.9817 20.4321 90.6272C20.303 91.2726 20.0019 91.9181 19.8729 92.0472C19.3997 92.3915 14.41 102.719 13.5067 105.172C13.0765 106.334 12.6464 107.41 12.5173 107.539C12.2162 107.797 11.2269 110.336 10.8828 111.627C10.7537 112.1 10.4096 113.09 10.0655 113.864C9.72136 114.596 9.46327 115.5 9.46327 115.844C9.46327 116.231 9.29121 116.619 9.07614 116.748C8.86106 116.92 8.55996 117.78 8.3879 118.727C8.21584 119.674 7.91473 120.534 7.69966 120.707C7.48459 120.836 7.31253 121.309 7.31253 121.739C7.31253 122.213 7.05444 123.418 6.71032 124.407C5.80701 127.334 4.81766 131.163 4.08641 134.649C3.69928 136.413 3.22611 138.651 3.01104 139.598C1.29045 147.214 0 161.329 0 171.915C0 180.091 0.258089 183.964 1.46251 194.464C2.0217 199.369 4.51656 212.322 5.59193 215.721C5.80701 216.453 6.28017 218.217 6.6673 219.637C7.05444 221.057 7.5276 222.52 7.69966 222.865C7.91473 223.252 8.21584 224.371 8.3879 225.361C8.55996 226.35 8.86106 227.254 9.07614 227.426C9.29121 227.555 9.46327 227.986 9.46327 228.373C9.46327 228.76 9.76437 229.664 10.1085 230.352C10.4526 230.998 10.7537 231.858 10.7537 232.203C10.7537 232.547 11.0118 233.365 11.3559 233.967C11.7 234.612 12.5603 236.592 13.2916 238.356C14.582 241.584 15.6144 243.95 16.3887 245.327C16.6037 245.758 16.7758 246.36 16.7758 246.704C16.7758 247.049 16.9048 247.393 17.1199 247.479C17.292 247.522 18.1953 249.157 19.0986 251.051C20.0449 252.944 20.9482 254.536 21.1633 254.622C21.3354 254.708 21.5074 254.967 21.5074 255.182C21.5074 255.612 25.3358 262.54 25.7659 262.885C26.11 263.143 27.0133 264.606 27.4005 265.466C27.5725 265.811 27.7876 266.198 27.9597 266.327C28.0887 266.456 28.6909 267.317 29.2501 268.264C29.8093 269.21 30.3685 270.071 30.4975 270.2C30.6696 270.329 31.4439 271.362 32.2181 272.567C33.0354 273.729 33.8527 274.804 33.9817 274.934C34.1108 275.063 34.713 275.837 35.2722 276.655C35.8314 277.472 36.5196 278.376 36.7777 278.634C36.9928 278.892 37.681 279.71 38.2832 280.485C43.359 287.069 55.5752 299.505 61.0811 303.765C62.1565 304.583 63.4469 305.701 63.9631 306.261C64.4793 306.777 65.1245 307.208 65.3826 307.208C65.5977 307.208 65.8127 307.337 65.8127 307.509C65.8127 307.724 66.544 308.326 67.4473 308.929C68.3076 309.531 69.512 310.435 70.1142 310.994C70.7164 311.511 71.5337 312.07 71.9639 312.199C72.351 312.328 72.6951 312.63 72.6951 312.845C72.6951 313.06 72.9962 313.232 73.3403 313.232C73.6845 313.232 73.9856 313.361 73.9856 313.576C73.9856 313.748 74.8459 314.351 75.9212 314.953C76.9966 315.556 77.8569 316.115 77.8569 316.244C77.8569 316.373 78.5881 316.847 79.4915 317.32C80.3518 317.793 81.169 318.31 81.2981 318.439C81.4271 318.611 82.2874 319.17 83.2338 319.687C84.1801 320.203 85.5566 320.978 86.2448 321.408C86.976 321.838 89.5569 323.259 92.0518 324.506C94.5467 325.754 96.6544 326.873 96.7834 327.002C97.3426 327.562 99.9665 328.724 100.698 328.724C101.128 328.724 101.515 328.896 101.515 329.154C101.515 329.369 101.73 329.584 101.988 329.584C102.375 329.584 104.827 330.574 107.322 331.779C109.43 332.769 119.366 336.168 124.227 337.545C133.26 340.127 135.11 340.557 142.809 341.891C153.821 343.742 157.004 343.957 172.059 344C187.201 344 191.631 343.699 201.74 341.848C203.761 341.504 206.514 340.988 207.891 340.773C209.267 340.557 210.773 340.17 211.203 339.912C211.633 339.697 212.45 339.482 213.01 339.482C213.569 339.482 214.859 339.223 215.935 338.879C217.01 338.535 219.032 337.932 220.451 337.502C226.258 335.824 234.689 332.812 236.668 331.736C237.098 331.478 237.657 331.306 237.958 331.306C238.216 331.306 239.722 330.703 241.27 329.972C244.884 328.25 254.218 323.603 255.078 323.086C263.294 318.224 266.391 316.33 268.585 314.867C271.166 313.103 279.166 307.251 279.597 306.777C279.726 306.648 280.801 305.788 281.962 304.841C283.167 303.937 284.543 302.732 285.059 302.173C285.576 301.613 286.135 301.183 286.307 301.183C286.694 301.183 301.104 286.724 301.104 286.337C301.104 286.208 301.534 285.649 302.093 285.132C302.653 284.616 303.857 283.239 304.76 282.034C305.707 280.872 306.696 279.667 306.911 279.409C310.352 275.407 318.353 263.401 322.87 255.397C323.902 253.633 329.408 242.401 330.311 240.293C330.827 239.088 331.429 237.797 331.645 237.41C331.903 236.979 332.075 236.42 332.075 236.162C332.075 235.903 332.376 235 332.763 234.139C333.15 233.235 333.709 231.901 334.053 231.127C334.398 230.352 334.656 229.363 334.656 228.889C334.656 228.459 334.828 227.986 335.043 227.856C335.258 227.727 335.559 226.91 335.731 226.049C335.86 225.188 336.161 224.156 336.376 223.768C336.849 222.908 337.753 219.766 338.742 215.764C339.129 214.086 339.645 212.064 339.86 211.246C340.635 208.449 342.14 199.8 343.13 192.097C344.205 184.05 344.205 159.995 343.173 152.077C342.054 143.6 341.581 140.587 341.151 138.952C340.936 138.135 340.42 135.897 340.032 134.003C339.602 132.11 339.043 129.7 338.742 128.624C337.021 122.6 336.591 121.051 335 116.36C334.096 113.52 333.15 110.809 332.935 110.336C332.591 109.561 331.645 107.324 330.268 104.096C330.053 103.494 329.58 102.418 329.279 101.729C328.504 99.8791 324.031 90.9714 322.482 88.1743C319.643 83.0535 314.094 74.318 313.492 74.0598C313.277 73.9737 313.148 73.6295 313.148 73.2852C313.148 72.941 312.976 72.6828 312.761 72.6828C312.546 72.6828 312.245 72.3385 312.116 71.9082C311.944 71.5209 311.256 70.5312 310.567 69.7136C309.836 68.939 309.277 68.1644 309.277 67.9923C309.277 67.8632 308.718 67.1316 308.072 66.4001C305.836 63.7751 305.147 63.0006 304.502 62.0108C301.276 57.4064 287.167 43.507 280.414 38.2571C279.64 37.6547 278.822 36.9662 278.564 36.751C278.306 36.4928 277.403 35.8043 276.586 35.2449C275.768 34.6855 274.693 33.8248 274.22 33.3945C273.747 32.9642 272.671 32.1896 271.854 31.6732C271.037 31.1999 270.262 30.6835 270.133 30.5114C269.875 30.2532 266.262 27.8434 265.617 27.4991C265.402 27.37 264.111 26.5954 262.821 25.7348C260.025 23.8844 255.809 21.5176 252.497 19.8824C251.207 19.2369 250.045 18.5484 249.916 18.4193C249.787 18.2902 249.228 17.989 248.626 17.8169C248.024 17.6448 247.464 17.3866 247.335 17.2144C246.991 16.7841 243.894 15.4501 243.249 15.4501C242.905 15.4501 242.604 15.235 242.604 15.0198C242.604 14.7616 242.389 14.5895 242.131 14.5895C241.7 14.5895 240.926 14.2883 237.657 12.8682C235.721 12.0076 234.087 11.3621 230.99 10.3293C229.441 9.76989 227.592 9.08138 226.817 8.73712C226.086 8.39287 225.183 8.13467 224.796 8.13467C224.409 8.13467 223.763 7.96255 223.333 7.74739C222.559 7.3601 219.634 6.49946 215.074 5.33759C213.526 4.9503 211.59 4.43392 210.773 4.21876C209.956 3.96056 208.192 3.61631 206.901 3.35811C205.611 3.14295 202.987 2.6696 201.094 2.32534C192.319 0.77619 181.867 -0.0414195 170.339 0.00161256C164.059 0.0446446 157.778 0.216773 156.359 0.431933ZM190.126 14.1161C192.362 14.3743 195.072 14.7616 196.148 14.9768C197.223 15.1919 200.019 15.7083 202.385 16.0956C204.751 16.5259 207.074 16.9993 207.547 17.2144C208.02 17.3866 209.267 17.6878 210.343 17.8599C211.418 17.989 212.493 18.2902 212.708 18.4624C212.967 18.6345 213.999 18.9357 215.074 19.1079C216.107 19.28 217.268 19.5812 217.655 19.7533C217.999 19.9255 219.376 20.3988 220.666 20.7861C224.452 21.991 230.302 24.1426 230.732 24.5729C230.99 24.7451 231.42 24.9172 231.764 24.9172C232.108 24.9172 233.614 25.4766 235.162 26.2081C236.668 26.8967 238.173 27.4991 238.517 27.4991C238.818 27.4991 239.163 27.6282 239.249 27.8003C239.335 28.0155 241.916 29.3925 244.97 30.9417C248.067 32.4478 250.648 33.8248 250.777 33.9969C250.906 34.126 251.68 34.5994 252.497 35.0297C254.519 36.0625 263.853 42.2161 264.025 42.6464C264.111 42.8185 264.455 42.9907 264.799 42.9907C265.144 42.9907 265.402 43.1628 265.402 43.3779C265.402 43.5931 265.746 43.8943 266.176 44.0234C266.563 44.1525 267.38 44.7119 267.983 45.2714C268.585 45.7877 270.305 47.2078 271.854 48.3697C275.811 51.3819 277.231 52.7159 284.328 59.7732C291.297 66.7874 292.63 68.2505 295.727 72.2525C296.932 73.7586 298.308 75.5229 298.867 76.1253C299.383 76.7278 299.814 77.3302 299.814 77.4593C299.814 77.5884 300.244 78.1909 300.717 78.7503C301.878 80.0843 307.556 88.6907 308.89 91.1866C309.449 92.2624 310.051 93.166 310.266 93.2521C310.438 93.3382 310.567 93.6824 310.567 93.9837C310.567 94.3279 310.825 94.8443 311.126 95.1455C311.643 95.7049 315.729 103.881 317.235 107.324C317.622 108.27 318.224 109.604 318.525 110.336C320.16 114.037 320.461 114.811 320.461 115.457C320.461 115.844 320.676 116.145 320.891 116.145C321.149 116.145 321.321 116.532 321.321 117.049C321.321 117.565 321.579 118.555 321.923 119.287C322.525 120.664 324.59 126.903 325.192 129.27C327.988 139.899 329.365 147.085 330.01 154.229C330.698 161.501 330.913 181.64 330.397 186.287C328.72 201.607 327.601 207.244 323.816 219.637C323.085 222.004 322.224 224.543 321.923 225.318C321.579 226.049 321.321 226.953 321.321 227.297C321.321 227.684 321.149 228.072 320.934 228.244C320.719 228.373 320.418 229.018 320.246 229.75C320.117 230.438 319.514 231.988 318.912 233.192C318.353 234.354 317.88 235.473 317.88 235.645C317.88 235.989 311.772 248.34 311.428 248.684C311.299 248.813 310.739 249.846 310.137 251.051C309.535 252.213 308.933 253.288 308.804 253.417C308.675 253.547 308.46 253.934 308.287 254.278C307.943 255.01 306.997 256.559 306.696 256.86C306.051 257.506 304.545 259.915 304.545 260.303C304.545 260.518 304.416 260.733 304.201 260.733C304.029 260.733 303.513 261.378 303.126 262.153C302.696 262.971 301.921 264.089 301.405 264.649C300.889 265.208 299.986 266.413 299.383 267.274C298.781 268.177 298.179 268.909 298.007 268.909C297.792 268.909 297.663 269.124 297.663 269.382C297.663 269.641 297.018 270.587 296.286 271.491C295.512 272.352 294.007 274.116 292.931 275.407C290.479 278.419 278.349 290.554 275.338 293.007C274.048 294.083 272.284 295.589 271.424 296.32C270.52 297.095 269.574 297.741 269.316 297.741C269.058 297.741 268.843 297.87 268.843 298.042C268.843 298.257 268.112 298.859 267.208 299.462C266.348 300.064 265.144 300.968 264.584 301.484C264.025 302.001 262.907 302.775 262.09 303.206C261.315 303.593 260.67 304.109 260.67 304.281C260.67 304.497 260.455 304.626 260.24 304.626C259.724 304.626 257.1 306.39 256.885 306.863C256.799 307.078 256.541 307.208 256.369 307.208C256.153 307.208 254.519 308.068 252.798 309.144C251.035 310.22 249.4 311.08 249.142 311.08C248.884 311.08 248.626 311.253 248.54 311.425C248.325 312.027 233.27 319.257 232.28 319.257C232.065 319.257 231.506 319.429 231.076 319.644C229.312 320.634 227.377 321.408 226.774 321.408C226.473 321.408 225.57 321.666 224.839 322.011C224.064 322.355 222.387 322.957 221.096 323.345C219.806 323.775 218.3 324.248 217.784 324.463C217.268 324.679 215.117 325.238 213.053 325.711C210.988 326.228 208.708 326.787 207.977 327.002C207.289 327.174 205.138 327.691 203.245 328.078C201.353 328.465 198.944 328.939 197.868 329.197C194.298 329.972 185.695 330.531 174.64 330.746C162.123 331.004 156.015 330.617 144.315 328.724C140.616 328.164 132.744 326.314 128.614 325.066C127.324 324.679 125.689 324.205 124.958 323.99C123.066 323.474 120.829 322.699 119.28 322.011C118.549 321.666 117.732 321.408 117.474 321.408C117.215 321.408 116.656 321.236 116.226 321.021C115.839 320.806 114.635 320.289 113.559 319.902C110.677 318.826 109.645 318.353 102.762 314.996C99.3213 313.318 96.2673 311.941 96.0092 311.941C95.7081 311.941 95.493 311.726 95.493 311.511C95.493 311.253 95.2349 311.08 94.8908 311.08C94.5467 311.08 93.9875 310.822 93.6864 310.521C93.3853 310.22 92.611 309.746 91.9658 309.488C91.2775 309.187 90.7614 308.8 90.7614 308.585C90.7614 308.111 93.3853 307.208 94.8908 307.208C95.579 307.208 96.8264 306.992 97.6437 306.777C98.461 306.519 100.311 306.132 101.73 305.917C103.15 305.658 105.774 305.185 107.537 304.841C111.624 304.066 114.075 303.507 123.883 301.183C127.711 300.236 129.303 299.806 129.948 299.462C130.335 299.247 131.539 298.988 132.658 298.816C133.733 298.644 134.766 298.343 134.895 298.128C135.024 297.913 135.497 297.741 136.013 297.741C136.486 297.741 137.475 297.482 138.207 297.181C138.981 296.837 141.605 295.933 144.1 295.116C146.595 294.341 148.788 293.523 149.046 293.351C149.262 293.179 149.692 293.007 150.036 293.007C150.38 293.007 151.24 292.749 151.971 292.405C154.724 291.2 160.316 289.134 160.79 289.134C161.091 289.134 161.306 288.919 161.306 288.704C161.306 288.446 161.564 288.273 161.865 288.273C162.123 288.273 162.897 288.015 163.499 287.671C164.102 287.37 165.134 286.983 165.865 286.81C166.554 286.638 167.199 286.337 167.328 286.208C167.672 285.735 170.726 284.401 171.414 284.401C171.715 284.401 172.059 284.271 172.145 284.056C172.318 283.669 180.318 279.667 180.964 279.667C181.222 279.667 181.523 279.538 181.609 279.323C181.695 279.151 182.727 278.548 183.889 277.946C185.093 277.343 186.125 276.784 186.254 276.655C186.383 276.526 187.115 276.095 187.889 275.665C188.62 275.278 189.911 274.589 190.685 274.159C191.416 273.772 192.147 273.298 192.19 273.083C192.276 272.911 192.535 272.782 192.75 272.782C193.352 272.782 205.31 265.036 205.525 264.52C205.611 264.348 205.869 264.176 206.084 264.176C206.471 264.176 217.999 255.827 218.515 255.182C218.645 255.01 219.806 254.063 221.096 253.03C225.656 249.502 229.097 246.274 237.657 237.711C246.518 228.803 248.067 227.168 250.992 223.51C252.669 221.445 253.314 220.67 254.949 218.691C255.379 218.217 256.024 217.357 256.369 216.84C256.713 216.324 257.229 215.635 257.444 215.377C257.702 215.119 258.562 213.914 259.38 212.752C260.154 211.547 260.928 210.515 261.1 210.385C261.229 210.256 262.305 208.707 263.466 206.943C264.67 205.179 265.832 203.5 266.047 203.242C266.305 202.984 266.864 202.08 267.337 201.22C267.811 200.359 268.327 199.627 268.499 199.627C268.714 199.627 268.843 199.455 268.843 199.197C268.843 198.982 269.918 197.045 271.209 194.894C272.499 192.742 273.574 190.806 273.574 190.591C273.574 190.332 273.747 190.16 273.962 190.16C274.177 190.16 274.478 189.558 274.65 188.869C274.822 188.138 275.123 187.578 275.338 187.578C275.553 187.578 275.811 187.105 275.983 186.503C276.112 185.9 276.413 185.427 276.586 185.427C276.758 185.427 277.059 184.91 277.231 184.265C277.36 183.619 277.661 182.974 277.79 182.845C277.962 182.716 278.521 181.769 279.037 180.693C280.672 177.251 283.038 172.044 283.038 171.829C283.038 171.7 283.511 170.538 284.113 169.247C284.715 167.956 285.189 166.751 285.189 166.579C285.232 166.407 285.576 165.503 286.049 164.556C286.522 163.61 286.866 162.491 286.909 162.06C286.909 161.673 287.124 161.329 287.339 161.329C287.597 161.329 287.769 160.899 287.769 160.339C287.769 159.823 288.071 158.833 288.415 158.144C288.759 157.499 289.06 156.681 289.06 156.337C289.06 156.036 289.318 155.132 289.662 154.358C290.006 153.583 290.608 151.776 290.996 150.356C291.426 148.936 291.899 147.386 292.114 146.913C292.286 146.44 292.587 145.364 292.759 144.546C292.888 143.729 293.189 142.782 293.361 142.395C293.533 142.05 294.007 140.2 294.437 138.307C294.824 136.413 295.34 134.09 295.555 133.143C295.985 131.422 296.415 128.969 297.276 123.03C298.351 115.629 296.846 106.463 293.103 97.7705C292.759 97.0389 292.501 96.2213 292.501 96.0062C292.501 95.748 292.372 95.4898 292.2 95.4037C291.985 95.3177 291.469 94.5 290.996 93.5533C290.221 92.0042 286.737 87.0555 284.887 84.9469C284.457 84.4736 283.167 83.3117 281.962 82.365C280.801 81.4183 279.726 80.5577 279.597 80.4286C279.295 80.1273 277.79 79.3097 274.779 77.8036C273.273 77.0721 271.725 76.2975 271.338 76.0823C270.606 75.695 268.499 75.1356 265.187 74.4041C262.993 73.8877 252.884 73.9307 250.346 74.4041C246.733 75.0926 244.97 75.5659 243.679 76.1253C239.163 78.0618 236.582 79.3528 236.582 79.654C236.582 79.8261 236.367 79.9982 236.109 79.9982C235.334 79.9982 232.28 82.5371 228.968 85.9367C226.129 88.8198 224.452 91.4878 222.86 95.7049C222.645 96.1783 222.172 97.2971 221.785 98.2008C221.397 99.1045 221.096 100.18 221.096 100.568C221.096 100.998 220.924 101.514 220.709 101.772C220.537 101.988 220.021 103.236 219.634 104.527C218.602 107.926 216.021 115.069 214.601 118.512C214.429 118.985 213.87 120.319 213.354 121.524C212.838 122.686 212.235 124.149 211.977 124.752C210.859 127.42 210.257 128.754 207.762 133.788C204.708 140.028 202.944 143.384 202.557 143.686C202.385 143.815 202.17 144.331 201.998 144.848C201.826 145.407 201.525 145.837 201.31 145.837C201.137 145.837 200.879 146.182 200.707 146.569C200.449 147.429 200.234 147.774 197.137 152.421C195.89 154.272 194.857 155.993 194.857 156.208C194.857 156.423 194.685 156.595 194.513 156.595C194.341 156.595 193.825 157.155 193.438 157.886C193.008 158.575 192.448 159.392 192.147 159.694C191.846 159.995 190.857 161.2 189.954 162.405C187.287 165.976 184.534 169.032 179.802 173.808C174.554 179.058 172.877 180.564 169.048 183.49C167.5 184.652 166.166 185.728 166.037 185.857C165.177 186.761 155.714 192.656 152.488 194.248C151.541 194.722 150.681 195.195 150.552 195.324C150.251 195.625 147.756 196.787 145.605 197.691C144.659 198.078 143.326 198.681 142.68 199.025C141.992 199.369 141.089 199.627 140.659 199.627C140.228 199.627 139.798 199.8 139.712 199.972C139.54 200.402 134.249 202.209 133.217 202.209C132.83 202.209 132.486 202.381 132.486 202.597C132.486 202.812 131.539 203.113 130.335 203.285C129.174 203.457 128.098 203.758 127.926 203.974C127.797 204.189 127.324 204.361 126.808 204.361C125.991 204.361 121.517 205.265 118.248 206.125C117.388 206.34 113.516 206.814 109.645 207.201C99.1923 208.191 78.8032 207.631 71.8348 206.125C65.4256 204.748 63.3179 204.361 62.2855 204.361C61.6403 204.361 61.0381 204.189 60.909 203.974C60.737 203.758 59.6186 203.457 58.3712 203.285C57.1667 203.113 55.9623 202.812 55.7042 202.64C55.4892 202.468 54.4138 202.166 53.3384 201.994C52.2631 201.822 51.2307 201.521 50.9726 201.349C50.7575 201.177 49.8112 200.875 48.8649 200.746C47.9616 200.574 46.8862 200.273 46.4991 200.058C46.1119 199.886 44.6494 199.369 43.2299 198.939C41.8104 198.509 40.477 197.992 40.2619 197.82C40.0038 197.648 39.5737 197.476 39.2296 197.476C38.6273 197.476 36.4336 196.615 34.2828 195.496C33.5946 195.152 32.9064 194.894 32.6913 194.894C32.4762 194.894 31.0567 194.291 29.5512 193.603C28.0027 192.871 26.5402 192.312 26.2821 192.312C26.024 192.312 25.8089 192.097 25.8089 191.882C25.8089 191.623 25.5508 191.451 25.2927 191.451C24.9916 191.494 22.3677 190.246 19.4427 188.783C14.453 186.201 14.1519 185.986 13.7217 184.394C12.7754 180.908 13.7217 155.692 15.0552 147.774C15.8725 143.04 16.8188 138.307 17.2059 137.016C17.421 136.284 17.7221 134.95 17.8512 134.003C18.0232 133.057 18.2813 131.895 18.4964 131.422C18.8405 130.604 19.1416 129.399 20.26 124.967C20.5181 124.02 20.8622 123.073 21.1203 122.815C21.3354 122.6 21.5074 122.127 21.5074 121.739C21.5074 121.18 23.4001 115.844 24.4755 113.348C24.6905 112.875 25.2927 111.412 25.8089 110.121C28.6049 103.106 38.7994 84.4305 40.0898 83.9572C40.2619 83.8711 40.434 83.6129 40.434 83.3978C40.434 83.0105 41.9825 80.6007 42.5847 79.9982C43.2299 79.3528 45.5957 76.1253 45.5957 75.9102C45.5957 75.7381 45.8538 75.3938 46.1549 75.0926C46.8432 74.361 48.0046 72.941 50.1123 70.316C54.3278 65.0661 65.1675 54.222 70.3293 50.0909C71.5337 49.1442 72.5661 48.2406 72.6091 48.0684C72.6951 47.8533 73.0392 47.7242 73.3403 47.7242C73.6414 47.7242 73.9856 47.5521 74.0716 47.3369C74.2436 46.8205 82.8896 40.4087 83.4058 40.4087C83.6209 40.4087 83.879 40.2796 83.965 40.0645C84.094 39.7632 88.0514 36.9662 88.3955 36.9662C88.6536 36.9662 93.0842 34.2982 93.3422 33.9539C93.6864 33.5666 108.699 26.2081 109.172 26.2081C109.43 26.2081 110.161 25.95 110.849 25.6057C113.559 24.2717 119.452 21.991 121.302 21.6037C121.904 21.4746 122.592 21.2164 122.807 21.0443C123.066 20.8291 124.012 20.5279 124.958 20.3558C125.904 20.1837 127.281 19.7964 128.055 19.4521C128.829 19.1509 129.948 18.8927 130.55 18.8927C131.152 18.8927 131.625 18.7206 131.625 18.5484C131.625 18.3333 132.744 17.989 134.12 17.7308C135.454 17.4726 138.121 16.9132 140.013 16.5259C144.788 15.5362 147.111 15.1489 151.842 14.5895C154.079 14.3313 156.918 13.944 158.08 13.7288C161.005 13.2555 185.05 13.5137 190.126 14.1161ZM265.187 88.0883C267.38 88.6907 269.531 89.7235 271.295 91.0144C272.026 91.5739 272.757 92.0472 272.886 92.0472C273.015 92.0472 273.661 92.6066 274.349 93.2521L275.596 94.457L274.478 94.9734C273.876 95.2746 273.23 95.4898 273.015 95.4898C272.671 95.4898 269.703 96.9098 268.198 97.7705C264.025 100.266 258.089 105.99 255.121 110.379C253.358 113.004 249.873 119.502 249.357 121.094C249.228 121.567 248.712 123.03 248.196 124.321C247.723 125.612 247.335 127.075 247.335 127.549C247.335 128.065 247.12 128.668 246.819 128.969C246.131 129.657 245.787 144.762 246.432 147.989C246.647 149.28 247.077 151.302 247.292 152.507C248.196 157.284 251.895 166.364 254.648 170.581C255.121 171.269 255.637 172.173 255.809 172.517C255.938 172.861 256.196 173.249 256.326 173.378C256.455 173.507 257.272 174.454 258.132 175.529C258.992 176.605 260.627 178.413 261.702 179.531C262.821 180.65 263.638 181.726 263.552 181.898C263.208 182.458 258.734 189.773 257.96 190.935C257.573 191.58 257.1 192.441 256.971 192.828C256.799 193.259 256.541 193.603 256.326 193.603C256.11 193.603 255.938 193.818 255.938 194.033C255.938 194.55 254.175 197.175 253.702 197.39C253.487 197.476 253.358 197.734 253.358 197.949C253.358 198.164 252.497 199.541 251.422 201.047C250.346 202.511 249.142 204.189 248.755 204.748C248.325 205.351 247.551 206.34 247.034 206.986C246.475 207.631 246.045 208.234 246.045 208.406C246.045 208.535 245.529 209.224 244.884 209.912C244.195 210.601 242.905 212.193 241.959 213.441C241.012 214.646 239.894 216.023 239.507 216.496C235.721 220.885 232.022 224.844 227.032 229.793C221.957 234.914 221.01 235.645 220.064 235.473C219.419 235.344 218.817 235.086 218.688 234.871C218.558 234.656 218.171 234.483 217.784 234.483C217.44 234.483 216.537 234.225 215.806 233.924C213.87 233.106 210.644 232.117 207.117 231.299C205.482 230.869 203.546 230.395 202.815 230.18C202.127 229.965 200.578 229.664 199.374 229.535C198.212 229.406 196.363 229.104 195.287 228.846C194.212 228.631 188.835 228.287 183.329 228.029C173.522 227.598 165.435 227.899 161.736 228.846C160.919 229.061 158.682 229.578 156.789 230.008C154.897 230.438 152.101 231.256 150.552 231.815C149.003 232.375 147.369 232.934 146.896 233.063C146.423 233.235 145.949 233.451 145.82 233.58C145.691 233.709 144.659 234.311 143.455 234.871C141.39 235.86 134.206 240.336 133.776 240.895C133.647 241.067 132.701 241.842 131.668 242.659C129.604 244.252 125.173 248.598 122.334 251.782C118.979 255.526 112.269 265.208 112.269 266.284C112.269 266.499 112.14 266.757 111.968 266.843C111.279 267.145 106.247 277.86 106.247 278.979C106.247 279.366 106.075 279.667 105.86 279.667C105.644 279.667 105.343 280.356 105.171 281.216C105.042 282.077 104.741 283.11 104.569 283.497C103.838 284.917 102.806 288.661 102.806 289.694C102.806 291.544 101.558 292.577 98.7191 293.05C92.2669 294.083 87.5783 294.771 83.0187 295.374C80.3087 295.761 77.7709 296.148 77.3837 296.234C75.8782 296.708 72.1359 294.47 66.9311 289.995C64.6513 288.058 57.4248 280.829 55.4031 278.505C51.5748 274.03 42.6277 261.249 41.8535 259.098C41.6814 258.71 41.4663 258.28 41.3373 258.151C41.2082 258.022 40.606 256.946 40.0038 255.784C39.4016 254.579 38.8424 253.547 38.7134 253.417C38.5843 253.288 38.1972 252.514 37.8101 251.696C37.4229 250.879 36.6056 249.114 36.0034 247.823C34.799 245.198 33.9817 243.262 32.9924 240.723C32.6483 239.776 32.0031 238.141 31.6159 237.065C30.3255 233.709 30.2394 233.451 29.2931 230.395C28.7769 228.717 28.3898 227.125 28.3898 226.824C28.3898 226.522 28.2177 225.963 28.0027 225.533C27.7876 225.145 27.3144 223.252 26.8843 221.359C26.4972 219.465 25.981 217.141 25.7659 216.195C25.5508 215.248 25.2067 213.312 24.9486 211.892C24.7335 210.471 24.4324 208.578 24.2604 207.631C24.0023 206.168 24.0453 205.996 24.7766 206.168C25.8089 206.34 27.0133 208.836 28.863 214.56C29.6372 217.012 30.4545 218.992 30.6266 218.992C30.7986 218.992 30.9707 219.293 30.9707 219.637C30.9707 220.24 33.2935 225.016 34.1108 226.092C34.2828 226.307 35.2722 227.77 36.3045 229.32C37.2939 230.869 38.6273 232.676 39.1865 233.365C41.1652 235.774 46.8432 241.369 47.2733 241.369C47.5314 241.369 47.7465 241.541 47.7465 241.756C47.7465 241.971 48.4777 242.616 49.338 243.133C50.2414 243.692 51.0586 244.252 51.1877 244.381C52.177 245.543 59.6616 249.157 62.3715 249.76C63.1888 249.932 64.1352 250.233 64.5223 250.448C64.8664 250.62 67.4473 251.094 70.2433 251.481C74.7168 252.04 75.8352 252.04 80.3518 251.481C83.1047 251.137 86.0727 250.663 86.89 250.448C87.7073 250.19 89.5569 249.717 90.9764 249.329C94.6327 248.297 101.902 245.284 102.806 244.381C102.935 244.252 104.01 243.52 105.171 242.703C108.268 240.594 117.732 230.955 120.528 227.168C122.764 224.07 124.313 221.273 124.313 220.326C124.313 219.551 127.066 217.83 128.829 217.529C130.464 217.228 131.195 217.012 135.282 215.764C136.228 215.463 138.164 214.861 139.583 214.43C141.003 214 142.379 213.527 142.594 213.355C142.852 213.182 143.67 212.924 144.444 212.752C145.175 212.623 145.82 212.279 145.82 212.064C145.82 211.849 146.121 211.676 146.466 211.676C147.928 211.676 163.93 203.802 165.564 202.252C166.252 201.607 170.124 201.908 171.027 202.683C172.188 203.672 189.308 202.554 191.416 201.392C191.803 201.177 192.922 200.875 193.911 200.703C194.9 200.531 195.804 200.23 195.976 200.015C196.105 199.8 196.578 199.627 197.008 199.627C197.481 199.627 198.557 199.283 199.46 198.896C204.88 196.529 208.622 194.679 210.257 193.56C211.289 192.871 212.278 192.312 212.536 192.312C212.751 192.312 212.924 192.14 212.924 191.925C212.924 191.709 213.311 191.408 213.741 191.236C215.418 190.72 223.677 181.984 223.677 180.736C223.677 180.521 223.806 180.263 224.021 180.177C224.322 180.048 226.903 174.97 227.592 173.163C229.613 167.698 230.474 159.565 229.742 152.636C229.14 146.827 228.409 144.116 226.215 139.684C224.839 136.887 224.279 135.94 223.72 135.381C223.032 134.692 223.118 132.669 223.935 130.862C224.279 129.958 224.839 128.668 225.14 127.979C225.484 127.247 226.043 125.827 226.473 124.752C226.903 123.676 227.506 122.213 227.807 121.438C228.151 120.707 228.409 119.889 228.409 119.631C228.409 119.373 228.581 118.813 228.796 118.383C229.398 117.221 230.431 114.424 231.248 111.842C231.678 110.551 232.237 108.873 232.581 108.098C232.882 107.367 233.141 106.377 233.141 105.904C233.141 105.387 233.356 104.871 233.571 104.742C233.829 104.613 234.001 104.182 234.001 103.838C234.001 103.451 234.603 101.902 235.291 100.352C236.023 98.8463 236.582 97.4693 236.582 97.2971C236.625 96.7807 241.571 92.0472 242.131 92.0472C242.389 92.0472 242.604 91.9181 242.604 91.703C242.604 91.1866 247.034 89.035 250.346 88.0022C252.626 87.2707 262.477 87.3137 265.187 88.0883Z" fill="#1D1D1D"/>
<path d="M589.432 107.066C584.099 109.045 580.786 113.219 580.356 118.512C579.926 124.063 582.808 128.969 587.927 131.508C590.164 132.627 590.766 132.713 595.326 132.713C599.885 132.713 600.487 132.627 602.724 131.508C608.66 128.582 611.628 121.869 609.779 115.543C608.875 112.402 606.079 109.303 602.681 107.668C599.455 106.076 592.917 105.775 589.432 107.066Z" fill="#1D1D1D"/>
<path d="M486.068 173.808V228.029H498.542H511.016V208.234V188.439H536.18H561.344V178.327V168.214H536.18H511.016V154.014V139.813H539.406H567.796V129.7V119.588H526.932H486.068V173.808Z" fill="#1D1D1D"/>
<path d="M1173.88 173.808V228.029H1215.81H1257.75V217.916V207.804H1228.29H1198.82V195.324V182.845H1223.99H1249.15L1249.07 173.034L1248.94 163.265L1223.9 163.136L1198.82 163.05V151.432V139.813H1227.21H1255.6V129.7V119.588H1214.74H1173.88V173.808Z" fill="#1D1D1D"/>
<path d="M675.548 143.686C667.504 144.546 659.03 148.29 654.686 152.895L653.18 154.487L652.965 149.624L652.75 144.762L641.265 144.633L629.737 144.546V186.288V228.029H641.738H653.782L653.912 204.447C654.084 183.792 654.17 180.607 654.815 178.37C657.525 169.075 665.483 163.739 675.548 164.47C682.731 164.987 687.162 168.343 689.614 175.142C690.603 177.896 690.603 177.982 690.732 202.941L690.861 228.029H702.905H714.95L714.821 199.714C714.649 171.657 714.649 171.398 713.659 167.784C713.1 165.761 712.197 163.136 711.68 161.888C708.928 155.735 703.766 150.399 697.615 147.387C693.098 145.149 690.087 144.288 684.796 143.686C680.753 143.212 679.979 143.212 675.548 143.686Z" fill="#1D1D1D"/>
<path d="M764.029 143.756C755.512 144.53 747.469 146.682 740.414 150.168C733.575 153.567 733.79 152.276 738.694 161.872C741.016 166.434 742.952 170.264 743.038 170.35C743.081 170.393 743.812 170.005 744.587 169.403C748.63 166.391 756.158 163.723 762.868 162.948C776.245 161.485 785.064 166.606 786.096 176.503L786.354 178.999H774.998C757.835 178.999 751.598 179.946 744.113 183.604C736.242 187.39 732.284 193.114 731.381 202.021C731.037 205.593 732.112 211.187 733.79 214.673C735.725 218.675 740.629 223.451 744.974 225.603C750.652 228.4 753.964 229.045 762.352 229.045C770.74 229.045 774.181 228.357 779.3 225.689C781.923 224.312 785.451 221.257 787.3 218.804C787.859 218.029 787.903 218.416 787.946 222.978V228.056H799.129H810.313V201.118C810.313 176.03 810.27 173.921 809.453 170.048C808.033 163.034 805.883 158.688 801.753 154.342C796.075 148.317 787.558 144.789 776.289 143.756C770.869 143.239 769.75 143.239 764.029 143.756ZM786.225 197.847V202.538L784.547 205.12C782.655 208.089 779.558 210.499 776.03 211.833C773.966 212.607 772.632 212.736 768.374 212.736C763.9 212.736 762.911 212.607 760.975 211.747C755.297 209.251 753.276 203.312 756.33 198.105C758.695 194.06 761.922 193.286 776.03 193.243L786.225 193.2V197.847Z" fill="#1D1D1D"/>
<path d="M877.976 143.729C870.534 144.589 862.706 147.946 858.103 152.206L855.565 154.53V149.538V144.546L844.08 144.633L832.552 144.762L832.423 186.374L832.337 228.029H844.338H856.34L856.555 204.662C856.727 179.704 856.813 178.499 859.049 174.196C860.125 172.001 863.007 168.86 865.029 167.569C868.513 165.374 871.438 164.642 876.427 164.599C880.342 164.599 881.589 164.772 883.568 165.546C886.751 166.837 889.676 169.419 891.009 172.216C893.289 176.821 893.418 178.499 893.418 204.232V228.029H905.462H917.55L917.378 199.714C917.249 172.087 917.206 171.355 916.302 167.784C914.668 161.63 912.302 157.37 908.043 153.11C902.494 147.559 896.214 144.633 887.611 143.686C883.267 143.212 882.493 143.212 877.976 143.729Z" fill="#1D1D1D"/>
<path d="M974.287 143.728C957.726 145.536 944.09 154.702 937.724 168.343C935.014 174.109 934.111 178.455 934.111 186.072C934.068 195.539 935.917 202.553 940.305 209.223C946.886 219.336 957.511 226.178 970.415 228.502C975.534 229.448 986.933 229.233 991.794 228.114C1003.19 225.489 1012.31 218.819 1017.04 209.654L1017.73 208.276L1015.06 206.77C1013.56 205.953 1009.34 203.629 1005.69 201.65L999.02 197.992L998.16 199.369C993.299 207.244 984.739 210.858 975.577 208.922C964.178 206.512 957.812 197.562 958.5 184.781C958.887 177.552 960.952 172.818 965.383 168.816C969.813 164.857 974.373 163.308 981.126 163.566C985.298 163.695 985.944 163.824 988.912 165.244C992.697 167.052 995.579 169.505 997.515 172.517C998.289 173.679 998.934 174.668 999.02 174.668C999.063 174.668 1003.32 172.431 1008.44 169.677L1017.69 164.685L1016.7 162.662C1012.14 153.712 1002.5 146.913 990.976 144.546C986.245 143.556 979.018 143.212 974.287 143.728Z" fill="#1D1D1D"/>
<path d="M1063.15 143.729C1058.12 144.245 1053.3 145.665 1048.4 147.989C1043.2 150.442 1040.96 151.948 1037.3 155.391C1025.77 166.149 1021.52 182.974 1026.16 199.111C1031.75 218.433 1050.98 230.353 1074.73 229.191C1087.76 228.545 1098.08 224.457 1104.92 217.185L1106.26 215.765L1100.1 209.095C1096.71 205.437 1093.78 202.382 1093.57 202.339C1093.35 202.253 1092.15 202.984 1090.86 203.974C1085.74 207.804 1081.26 209.396 1074.3 209.783C1065.91 210.257 1058.77 207.976 1054.16 203.371C1051.88 201.091 1049.61 197.132 1048.92 194.335L1048.62 193.173H1080.02C1102.17 193.173 1111.55 193.044 1111.76 192.699C1111.89 192.441 1112.02 189.515 1111.98 186.159C1111.93 173.421 1108.28 163.868 1100.53 156.036C1097.05 152.507 1093.82 150.27 1088.58 147.731C1083.89 145.493 1079.5 144.288 1073.61 143.686C1068.79 143.213 1068.06 143.213 1063.15 143.729ZM1074.47 162.405C1076.02 162.792 1078.25 163.653 1079.46 164.341C1083.97 166.923 1088.23 172.69 1088.96 177.208L1089.26 178.972H1068.79H1048.36L1048.74 177.122C1049.43 174.024 1051.67 169.979 1054.08 167.569C1059.07 162.62 1066.9 160.641 1074.47 162.405Z" fill="#1D1D1D"/>
<path d="M1411.53 143.685C1404.26 144.46 1397.68 147.257 1393.08 151.517L1390.24 154.099V149.322V144.546L1378.75 144.632L1367.23 144.761L1367.1 201.477L1367.01 258.151L1379.14 258.064L1391.32 257.935L1391.44 238.872L1391.53 219.809L1394.2 221.961C1397.42 224.585 1402.07 226.909 1406.5 228.114C1411.36 229.448 1421.55 229.448 1427.02 228.114C1435.41 226.049 1444.18 220.454 1449.04 214.043C1455.11 206.082 1457.77 197.561 1457.77 186.201C1457.77 173.679 1454.03 163.781 1446.37 155.949C1439.28 148.72 1431.32 144.847 1421.08 143.728C1416.56 143.212 1416.01 143.212 1411.53 143.685ZM1420.91 165.115C1426.5 167.697 1430.97 173.205 1432.61 179.402C1433.43 182.5 1433.43 190.117 1432.61 193.301C1429.77 204.188 1420.14 210.729 1409.17 209.18C1398.03 207.588 1391.1 198.895 1391.1 186.502C1391.1 175.314 1396 167.697 1405.21 164.47C1407.7 163.566 1408.74 163.48 1413.04 163.609C1417.55 163.738 1418.24 163.867 1420.91 165.115Z" fill="#1D1D1D"/>
<path d="M1522.3 143.557C1512.36 144.503 1505.39 147.301 1500.06 152.464L1497.39 155.089L1497.26 149.925L1497.13 144.762L1485.65 144.633L1474.12 144.546V186.288V228.029H1486.12H1498.16L1498.29 205.093C1498.47 183.189 1498.51 182.07 1499.37 179.532C1500.62 175.831 1502.08 173.464 1504.57 171.14C1508.79 167.181 1513.39 165.632 1520.88 165.632H1525.74V154.444V143.256L1524.79 143.342C1524.23 143.342 1523.11 143.471 1522.3 143.557Z" fill="#1D1D1D"/>
<path d="M1572.19 143.729C1562.04 144.804 1552.06 149.538 1545.31 156.38C1537.35 164.427 1533.48 174.152 1533.48 186.115C1533.48 198.035 1536.96 207.244 1544.58 215.162C1552.88 223.897 1563.85 228.502 1578 229.19C1592.37 229.879 1604.63 225.963 1613.23 217.959L1615.34 216.023L1612.71 213.096C1611.29 211.504 1608.41 208.363 1606.3 206.125L1602.52 202.08L1599.16 204.49C1593.53 208.578 1587.38 210.213 1579.72 209.783C1572.37 209.353 1567.68 207.588 1563.63 203.715C1561.1 201.306 1558.86 197.734 1558.08 194.765L1557.65 193.173H1589.18H1620.71L1621.06 189.816C1621.75 182.587 1619.85 172.259 1616.67 165.89C1608.93 150.442 1591.29 141.663 1572.19 143.729ZM1582.56 162.189C1586 162.835 1590.17 165.073 1592.71 167.568C1594.86 169.763 1597.18 173.636 1597.74 176.175C1597.92 176.863 1598.13 177.81 1598.26 178.197C1598.48 178.929 1597.31 178.972 1578 178.972H1557.48L1557.74 177.337C1558.26 174.583 1560.45 170.452 1562.73 168.042C1567.55 162.964 1574.95 160.769 1582.56 162.189Z" fill="#1D1D1D"/>
<path d="M1663.47 143.728C1647.38 145.278 1635.68 152.507 1632.37 163.007C1630.56 168.73 1630.95 176.089 1633.36 181.08C1634.82 184.136 1639.38 188.396 1643.17 190.203C1648.07 192.613 1651.3 193.431 1663.08 195.367C1675 197.303 1677.92 198.164 1680.12 200.359C1681.45 201.693 1681.54 201.951 1681.36 204.016C1681.15 205.996 1680.89 206.469 1679.39 207.803C1676.93 209.998 1675.21 210.428 1668.07 210.686C1658.05 211.074 1649.32 209.18 1640.63 204.791L1637.15 203.07L1636.11 205.307C1635.55 206.555 1633.83 210.342 1632.24 213.742C1630.69 217.098 1629.4 220.067 1629.4 220.283C1629.4 220.971 1636.16 224.069 1641.06 225.662C1647.21 227.641 1654.35 228.846 1661.88 229.19C1677.75 229.836 1690.57 226.092 1698.18 218.518C1702.61 214.129 1704.46 209.438 1704.46 202.639C1704.46 196.658 1703.39 193.086 1700.51 189.558C1695.52 183.361 1687.95 180.306 1671.77 177.896C1658.7 175.96 1654.35 173.894 1654.35 169.591C1654.35 164.986 1658.87 162.318 1667.47 161.888C1675.47 161.501 1683.56 163.007 1690.01 166.062C1691.99 167.052 1693.75 167.654 1693.92 167.482C1694.27 167.095 1701.67 151.13 1701.67 150.786C1701.67 150.355 1697.11 148.29 1693.54 147.085C1688.72 145.45 1682.4 144.245 1675.64 143.685C1669.58 143.212 1668.72 143.212 1663.47 143.728Z" fill="#1D1D1D"/>
<path d="M1745.5 143.729C1735.61 144.675 1726.36 148.333 1720.85 153.626C1715.69 158.489 1713.5 163.695 1713.54 170.796C1713.63 180.349 1717.33 186.201 1725.8 190.289C1730.7 192.656 1734.49 193.646 1745.03 195.324C1755.18 196.916 1757.29 197.389 1759.61 198.379C1762.53 199.627 1763.61 200.961 1763.61 203.328C1763.61 208.578 1759.22 210.816 1748.77 210.816C1739.43 210.816 1731.39 209.008 1723.39 205.049C1721.28 204.016 1719.48 203.199 1719.43 203.242C1719.22 203.457 1711.56 220.067 1711.56 220.326C1711.56 220.885 1719.52 224.5 1723.78 225.834C1732.64 228.674 1745.72 229.965 1755.14 228.932C1767.95 227.512 1778.19 222.606 1782.88 215.549C1785.46 211.719 1786.49 208.664 1786.71 204.146C1787.14 196.873 1785.5 192.183 1781.16 187.836C1775.78 182.543 1769.29 180.177 1753.93 177.896C1742.92 176.261 1738.1 174.453 1737.03 171.57C1735.69 168.042 1737.63 164.857 1742.32 163.05C1744.64 162.103 1745.59 162.017 1751.78 162.017C1756.9 161.974 1759.61 162.189 1762.32 162.792C1766.49 163.695 1772.04 165.632 1774.28 166.923C1775.09 167.439 1775.91 167.654 1776.13 167.482C1776.56 167.009 1783.83 151.388 1783.83 150.915C1783.83 150.183 1776.77 147.214 1772.56 146.095C1764.21 143.944 1753.33 142.954 1745.5 143.729Z" fill="#1D1D1D"/>
<path d="M583.281 186.288V228.029H595.326H607.37V186.288V144.546H595.326H583.281V186.288Z" fill="#1D1D1D"/>
<path d="M1265.93 144.848C1265.93 144.977 1272.81 154.315 1281.24 165.503C1295.78 184.954 1296.51 185.986 1295.91 186.847C1295.56 187.363 1288.38 196.787 1279.99 207.804L1264.72 227.814L1277.63 227.943C1285.33 227.986 1290.75 227.857 1291.05 227.641C1291.31 227.426 1295.61 221.703 1300.55 214.947C1305.54 208.191 1309.67 202.683 1309.8 202.683C1309.93 202.683 1314.06 208.363 1319.01 215.334L1328 228.029H1341.72H1355.44L1352.9 224.672C1351.53 222.865 1344.26 213.269 1336.77 203.414L1323.22 185.47L1338.71 165.116L1354.15 144.762L1341.76 144.633C1334.97 144.589 1329.16 144.633 1328.86 144.719C1328.6 144.848 1324.3 150.356 1319.35 156.983L1310.4 169.032L1301.59 156.897L1292.77 144.762L1279.35 144.633C1271.95 144.589 1265.93 144.676 1265.93 144.848Z" fill="#1D1D1D"/>
</svg>
