<svg width="512" height="512" viewBox="0 0 512 512" fill="none" xmlns="http://www.w3.org/2000/svg">
<path fill-rule="evenodd" clip-rule="evenodd" d="M414.891 141.248C414.891 141.248 457.448 226.362 404.794 317.548C379.026 362.153 344.948 395.065 314.06 409.949C288.912 422.047 265.24 422.595 247.069 412.116C228.899 401.614 217.539 380.847 215.443 353.008C212.895 318.834 224.35 272.848 250.094 228.243C302.748 137.056 397.745 131.341 397.745 131.341C401.263 131.107 404.771 131.924 407.824 133.688C410.877 135.452 413.337 138.083 414.891 141.248Z" fill="#008F12"/>
<path fill-rule="evenodd" clip-rule="evenodd" d="M154.383 412.116C134.617 406.543 113.755 397.827 93.1789 385.967C5.51706 335.337 0.0396816 244.031 0.0396816 244.031C-0.195738 240.51 0.620232 236.998 2.38406 233.941C4.14788 230.884 6.78005 228.42 9.94659 226.861C9.94659 226.861 27.2837 218.383 54.5991 213.93C53.3753 254.437 63.5758 294.472 84.0341 329.455C104.229 364.462 129.306 392.754 154.383 412.116ZM454.805 213.334C483.621 217.597 502.053 226.861 502.053 226.861C505.22 228.42 507.852 230.884 509.616 233.941C511.38 236.998 512.196 240.51 511.96 244.031C511.96 244.031 506.483 335.337 418.821 385.967C396.864 398.636 374.573 407.71 353.64 413.211C379.17 393.802 404.818 365.129 425.418 329.455C445.96 294.29 456.147 254.037 454.805 213.334ZM204.06 138.509C224.66 110.121 246.093 95.9994 246.093 95.9994C249.027 94.0436 252.474 93 256 93C259.526 93 262.973 94.0436 265.907 95.9994C265.907 95.9994 286.816 109.764 307.154 137.437C287.471 149.067 269.768 163.763 254.714 180.97C240.127 164.282 223.039 149.958 204.06 138.509Z" fill="#008F12"/>
<path fill-rule="evenodd" clip-rule="evenodd" d="M216.278 417.449C209.053 415.727 202.041 413.211 195.369 409.948C164.481 395.063 130.403 362.152 104.659 317.547C52.0047 226.36 94.5377 141.246 94.5377 141.246C96.0964 138.08 98.5605 135.448 101.618 133.684C104.675 131.92 108.187 131.104 111.708 131.339C111.708 131.339 186.153 135.817 239.76 200.14C236.104 205.391 232.671 210.794 229.472 216.334C200.942 265.773 188.868 316.904 191.702 354.793C193.678 381.132 202.585 402.375 216.278 417.449Z" fill="#008F12"/>
</svg>
