<svg width="512" height="327" viewBox="0 0 512 327" fill="none" xmlns="http://www.w3.org/2000/svg">
<path fill-rule="evenodd" clip-rule="evenodd" d="M154.383 319.116C134.617 313.543 113.755 304.827 93.1789 292.967C5.51706 242.337 0.0396816 151.031 0.0396816 151.031C-0.195738 147.51 0.620232 143.998 2.38406 140.941C4.14788 137.884 6.78005 135.42 9.94659 133.861C9.94659 133.861 27.2837 125.383 54.5991 120.93C53.3753 161.437 63.5758 201.472 84.0341 236.455C104.229 271.462 129.306 299.754 154.383 319.116ZM454.805 120.334C483.621 124.597 502.053 133.861 502.053 133.861C505.22 135.42 507.852 137.884 509.616 140.941C511.38 143.998 512.196 147.51 511.96 151.031C511.96 151.031 506.483 242.337 418.821 292.967C396.864 305.636 374.573 314.71 353.64 320.211C379.17 300.802 404.818 272.129 425.418 236.455C445.96 201.29 456.147 161.037 454.805 120.334ZM204.06 45.509C224.66 17.121 246.093 2.9994 246.093 2.9994C249.027 1.0436 252.474 0 256 0C259.526 0 262.973 1.0436 265.907 2.9994C265.907 2.9994 286.816 16.764 307.154 44.437C287.471 56.067 269.768 70.763 254.714 87.97C240.127 71.282 223.039 56.958 204.06 45.509Z" fill="#008F12"/>
</svg>